%TF.GenerationSoftware,KiCad,Pcbnew,8.0.2*%
%TF.CreationDate,2024-05-28T03:04:17+03:00*%
%TF.ProjectId,ups,7570732e-6b69-4636-9164-5f7063625858,rev?*%
%TF.SameCoordinates,Original*%
%TF.FileFunction,Soldermask,Top*%
%TF.FilePolarity,Negative*%
%FSLAX46Y46*%
G04 Gerber Fmt 4.6, Leading zero omitted, Abs format (unit mm)*
G04 Created by KiCad (PCBNEW 8.0.2) date 2024-05-28 03:04:17*
%MOMM*%
%LPD*%
G01*
G04 APERTURE LIST*
G04 Aperture macros list*
%AMRoundRect*
0 Rectangle with rounded corners*
0 $1 Rounding radius*
0 $2 $3 $4 $5 $6 $7 $8 $9 X,Y pos of 4 corners*
0 Add a 4 corners polygon primitive as box body*
4,1,4,$2,$3,$4,$5,$6,$7,$8,$9,$2,$3,0*
0 Add four circle primitives for the rounded corners*
1,1,$1+$1,$2,$3*
1,1,$1+$1,$4,$5*
1,1,$1+$1,$6,$7*
1,1,$1+$1,$8,$9*
0 Add four rect primitives between the rounded corners*
20,1,$1+$1,$2,$3,$4,$5,0*
20,1,$1+$1,$4,$5,$6,$7,0*
20,1,$1+$1,$6,$7,$8,$9,0*
20,1,$1+$1,$8,$9,$2,$3,0*%
%AMFreePoly0*
4,1,19,0.500000,-0.750000,0.000000,-0.750000,0.000000,-0.744911,-0.071157,-0.744911,-0.207708,-0.704816,-0.327430,-0.627875,-0.420627,-0.520320,-0.479746,-0.390866,-0.500000,-0.250000,-0.500000,0.250000,-0.479746,0.390866,-0.420627,0.520320,-0.327430,0.627875,-0.207708,0.704816,-0.071157,0.744911,0.000000,0.744911,0.000000,0.750000,0.500000,0.750000,0.500000,-0.750000,0.500000,-0.750000,
$1*%
%AMFreePoly1*
4,1,19,0.000000,0.744911,0.071157,0.744911,0.207708,0.704816,0.327430,0.627875,0.420627,0.520320,0.479746,0.390866,0.500000,0.250000,0.500000,-0.250000,0.479746,-0.390866,0.420627,-0.520320,0.327430,-0.627875,0.207708,-0.704816,0.071157,-0.744911,0.000000,-0.744911,0.000000,-0.750000,-0.500000,-0.750000,-0.500000,0.750000,0.000000,0.750000,0.000000,0.744911,0.000000,0.744911,
$1*%
G04 Aperture macros list end*
%ADD10RoundRect,0.150000X0.150000X-0.825000X0.150000X0.825000X-0.150000X0.825000X-0.150000X-0.825000X0*%
%ADD11RoundRect,0.200000X-0.200000X-0.275000X0.200000X-0.275000X0.200000X0.275000X-0.200000X0.275000X0*%
%ADD12RoundRect,0.250000X-0.325000X-0.650000X0.325000X-0.650000X0.325000X0.650000X-0.325000X0.650000X0*%
%ADD13RoundRect,0.250000X0.450000X-0.350000X0.450000X0.350000X-0.450000X0.350000X-0.450000X-0.350000X0*%
%ADD14RoundRect,0.162500X-0.162500X0.837500X-0.162500X-0.837500X0.162500X-0.837500X0.162500X0.837500X0*%
%ADD15RoundRect,0.250000X0.350000X0.450000X-0.350000X0.450000X-0.350000X-0.450000X0.350000X-0.450000X0*%
%ADD16RoundRect,0.250000X-0.650000X0.325000X-0.650000X-0.325000X0.650000X-0.325000X0.650000X0.325000X0*%
%ADD17RoundRect,0.250000X0.325000X0.650000X-0.325000X0.650000X-0.325000X-0.650000X0.325000X-0.650000X0*%
%ADD18RoundRect,0.250000X0.650000X-0.325000X0.650000X0.325000X-0.650000X0.325000X-0.650000X-0.325000X0*%
%ADD19RoundRect,0.250000X-0.625000X0.312500X-0.625000X-0.312500X0.625000X-0.312500X0.625000X0.312500X0*%
%ADD20RoundRect,0.225000X-0.250000X0.225000X-0.250000X-0.225000X0.250000X-0.225000X0.250000X0.225000X0*%
%ADD21RoundRect,0.225000X-0.225000X-0.250000X0.225000X-0.250000X0.225000X0.250000X-0.225000X0.250000X0*%
%ADD22C,5.600000*%
%ADD23RoundRect,0.200000X0.275000X-0.200000X0.275000X0.200000X-0.275000X0.200000X-0.275000X-0.200000X0*%
%ADD24RoundRect,0.243750X0.243750X0.456250X-0.243750X0.456250X-0.243750X-0.456250X0.243750X-0.456250X0*%
%ADD25RoundRect,0.250000X0.250000X0.475000X-0.250000X0.475000X-0.250000X-0.475000X0.250000X-0.475000X0*%
%ADD26RoundRect,0.225000X0.250000X-0.225000X0.250000X0.225000X-0.250000X0.225000X-0.250000X-0.225000X0*%
%ADD27RoundRect,0.235000X-0.940000X-1.465000X0.940000X-1.465000X0.940000X1.465000X-0.940000X1.465000X0*%
%ADD28RoundRect,0.225000X0.225000X0.250000X-0.225000X0.250000X-0.225000X-0.250000X0.225000X-0.250000X0*%
%ADD29RoundRect,0.200000X-0.275000X0.200000X-0.275000X-0.200000X0.275000X-0.200000X0.275000X0.200000X0*%
%ADD30RoundRect,0.250000X-0.250000X-0.475000X0.250000X-0.475000X0.250000X0.475000X-0.250000X0.475000X0*%
%ADD31RoundRect,0.125000X-0.125000X-0.125000X0.125000X-0.125000X0.125000X0.125000X-0.125000X0.125000X0*%
%ADD32RoundRect,0.250002X-1.499998X-1.499998X1.499998X-1.499998X1.499998X1.499998X-1.499998X1.499998X0*%
%ADD33RoundRect,0.250002X-1.699998X-1.699998X1.699998X-1.699998X1.699998X1.699998X-1.699998X1.699998X0*%
%ADD34C,3.900000*%
%ADD35RoundRect,0.102000X-1.225000X-1.225000X1.225000X-1.225000X1.225000X1.225000X-1.225000X1.225000X0*%
%ADD36RoundRect,0.011350X-0.215650X0.390650X-0.215650X-0.390650X0.215650X-0.390650X0.215650X0.390650X0*%
%ADD37RoundRect,0.011350X0.390650X0.215650X-0.390650X0.215650X-0.390650X-0.215650X0.390650X-0.215650X0*%
%ADD38RoundRect,0.011350X0.215650X-0.390650X0.215650X0.390650X-0.215650X0.390650X-0.215650X-0.390650X0*%
%ADD39RoundRect,0.011350X-0.390650X-0.215650X0.390650X-0.215650X0.390650X0.215650X-0.390650X0.215650X0*%
%ADD40RoundRect,0.250002X1.499998X1.499998X-1.499998X1.499998X-1.499998X-1.499998X1.499998X-1.499998X0*%
%ADD41RoundRect,0.250002X-1.699998X1.699998X-1.699998X-1.699998X1.699998X-1.699998X1.699998X1.699998X0*%
%ADD42RoundRect,0.150000X-0.587500X-0.150000X0.587500X-0.150000X0.587500X0.150000X-0.587500X0.150000X0*%
%ADD43RoundRect,0.250002X1.699998X-1.699998X1.699998X1.699998X-1.699998X1.699998X-1.699998X-1.699998X0*%
%ADD44RoundRect,0.250000X-0.450000X0.350000X-0.450000X-0.350000X0.450000X-0.350000X0.450000X0.350000X0*%
%ADD45RoundRect,0.250000X0.312500X0.625000X-0.312500X0.625000X-0.312500X-0.625000X0.312500X-0.625000X0*%
%ADD46RoundRect,0.250000X0.475000X-0.250000X0.475000X0.250000X-0.475000X0.250000X-0.475000X-0.250000X0*%
%ADD47RoundRect,0.327333X-1.059917X0.409167X-1.059917X-0.409167X1.059917X-0.409167X1.059917X0.409167X0*%
%ADD48RoundRect,0.327333X-1.030667X0.409167X-1.030667X-0.409167X1.030667X-0.409167X1.030667X0.409167X0*%
%ADD49R,1.700000X1.700000*%
%ADD50O,1.700000X1.700000*%
%ADD51RoundRect,0.250000X-0.312500X-0.625000X0.312500X-0.625000X0.312500X0.625000X-0.312500X0.625000X0*%
%ADD52FreePoly0,90.000000*%
%ADD53FreePoly1,90.000000*%
%ADD54RoundRect,0.150000X-0.825000X-0.150000X0.825000X-0.150000X0.825000X0.150000X-0.825000X0.150000X0*%
G04 APERTURE END LIST*
D10*
%TO.C,Q1*%
X89535000Y-65975000D03*
X90805000Y-65975000D03*
X92075000Y-65975000D03*
X93345000Y-65975000D03*
X93345000Y-61025000D03*
X92075000Y-61025000D03*
X90805000Y-61025000D03*
X89535000Y-61025000D03*
%TD*%
D11*
%TO.C,R15*%
X90615000Y-75695000D03*
X92265000Y-75695000D03*
%TD*%
%TO.C,R23*%
X96965000Y-85090000D03*
X98615000Y-85090000D03*
%TD*%
D12*
%TO.C,C10*%
X121461000Y-67818000D03*
X124411000Y-67818000D03*
%TD*%
D13*
%TO.C,R10*%
X105410000Y-89900000D03*
X105410000Y-87900000D03*
%TD*%
D14*
%TO.C,U2*%
X124648000Y-85090000D03*
X123698000Y-85090000D03*
X122748000Y-85090000D03*
X122748000Y-88510000D03*
X123698000Y-88510000D03*
X124648000Y-88510000D03*
%TD*%
D15*
%TO.C,R19*%
X124190000Y-75565000D03*
X122190000Y-75565000D03*
%TD*%
D16*
%TO.C,C1*%
X124714000Y-50849000D03*
X124714000Y-53799000D03*
%TD*%
D13*
%TO.C,R18*%
X115570000Y-85455000D03*
X115570000Y-83455000D03*
%TD*%
D17*
%TO.C,C3*%
X104853000Y-57737000D03*
X101903000Y-57737000D03*
%TD*%
D18*
%TO.C,C20*%
X120396000Y-87513000D03*
X120396000Y-84563000D03*
%TD*%
D19*
%TO.C,R2*%
X96520000Y-62037500D03*
X96520000Y-64962500D03*
%TD*%
D20*
%TO.C,C17*%
X108585000Y-78600000D03*
X108585000Y-80150000D03*
%TD*%
D11*
%TO.C,R8*%
X113475000Y-48895000D03*
X115125000Y-48895000D03*
%TD*%
D12*
%TO.C,C19*%
X122223000Y-81720000D03*
X125173000Y-81720000D03*
%TD*%
D21*
%TO.C,C9*%
X110985000Y-69215000D03*
X112535000Y-69215000D03*
%TD*%
D22*
%TO.C,H2*%
X121920000Y-59055000D03*
%TD*%
D20*
%TO.C,C4*%
X99060000Y-62725000D03*
X99060000Y-64275000D03*
%TD*%
D23*
%TO.C,R6*%
X96520000Y-68770000D03*
X96520000Y-67120000D03*
%TD*%
D24*
%TO.C,D2*%
X88567500Y-81780000D03*
X86692500Y-81780000D03*
%TD*%
D25*
%TO.C,C8*%
X106360000Y-72898000D03*
X104460000Y-72898000D03*
%TD*%
D18*
%TO.C,C15*%
X127254000Y-87513000D03*
X127254000Y-84563000D03*
%TD*%
D12*
%TO.C,C11*%
X121461000Y-65278000D03*
X124411000Y-65278000D03*
%TD*%
D26*
%TO.C,C13*%
X104394000Y-76467000D03*
X104394000Y-74917000D03*
%TD*%
D27*
%TO.C,L1*%
X108100000Y-60960000D03*
X114150000Y-60960000D03*
%TD*%
D28*
%TO.C,C14*%
X123711000Y-72644000D03*
X122161000Y-72644000D03*
%TD*%
D11*
%TO.C,R3*%
X89980000Y-71120000D03*
X91630000Y-71120000D03*
%TD*%
D29*
%TO.C,R22*%
X100330000Y-83630000D03*
X100330000Y-85280000D03*
%TD*%
D30*
%TO.C,C18*%
X114620000Y-73025000D03*
X116520000Y-73025000D03*
%TD*%
D26*
%TO.C,C16*%
X114935000Y-69990000D03*
X114935000Y-68440000D03*
%TD*%
D11*
%TO.C,R5*%
X105855000Y-48895000D03*
X107505000Y-48895000D03*
%TD*%
D31*
%TO.C,D1*%
X110660000Y-71120000D03*
X112860000Y-71120000D03*
%TD*%
D23*
%TO.C,R4*%
X107950000Y-52260000D03*
X107950000Y-50610000D03*
%TD*%
D32*
%TO.C,J6*%
X129032000Y-80518000D03*
%TD*%
D21*
%TO.C,C5*%
X90030000Y-69215000D03*
X91580000Y-69215000D03*
%TD*%
D33*
%TO.C,J1*%
X90080000Y-49530000D03*
D34*
X97880000Y-49530000D03*
%TD*%
D13*
%TO.C,R11*%
X110490000Y-89900000D03*
X110490000Y-87900000D03*
%TD*%
D17*
%TO.C,C2*%
X104853000Y-61087000D03*
X101903000Y-61087000D03*
%TD*%
D13*
%TO.C,R16*%
X105410000Y-85455000D03*
X105410000Y-83455000D03*
%TD*%
D26*
%TO.C,C7*%
X106045000Y-52210000D03*
X106045000Y-50660000D03*
%TD*%
D13*
%TO.C,R12*%
X115570000Y-89900000D03*
X115570000Y-87900000D03*
%TD*%
D35*
%TO.C,U1*%
X110490000Y-74930000D03*
D36*
X109240000Y-73030000D03*
X109740000Y-73030000D03*
X110240000Y-73030000D03*
X110740000Y-73030000D03*
X111240000Y-73030000D03*
X111740000Y-73030000D03*
D37*
X112390000Y-73680000D03*
X112390000Y-74180000D03*
X112390000Y-74680000D03*
X112390000Y-75180000D03*
X112390000Y-75680000D03*
X112390000Y-76180000D03*
D38*
X111740000Y-76830000D03*
X111240000Y-76830000D03*
X110740000Y-76830000D03*
X110240000Y-76830000D03*
X109740000Y-76830000D03*
X109240000Y-76830000D03*
D39*
X108590000Y-76180000D03*
X108590000Y-75680000D03*
X108590000Y-75180000D03*
X108590000Y-74680000D03*
X108590000Y-74180000D03*
X108590000Y-73680000D03*
%TD*%
D22*
%TO.C,H1*%
X97155000Y-77470000D03*
%TD*%
D40*
%TO.C,J4*%
X89535000Y-88265000D03*
%TD*%
D41*
%TO.C,J2*%
X128905000Y-47535000D03*
D34*
X128905000Y-55335000D03*
%TD*%
D13*
%TO.C,R17*%
X110490000Y-85455000D03*
X110490000Y-83455000D03*
%TD*%
D42*
%TO.C,Q3*%
X116537500Y-50485000D03*
X116537500Y-52385000D03*
X118412500Y-51435000D03*
%TD*%
D24*
%TO.C,D4*%
X88567500Y-75700000D03*
X86692500Y-75700000D03*
%TD*%
D11*
%TO.C,R1*%
X95695000Y-70612000D03*
X97345000Y-70612000D03*
%TD*%
D43*
%TO.C,J3*%
X128905000Y-72390000D03*
D34*
X128905000Y-64590000D03*
%TD*%
D44*
%TO.C,R20*%
X118745000Y-77105000D03*
X118745000Y-79105000D03*
%TD*%
D20*
%TO.C,C21*%
X111125000Y-78600000D03*
X111125000Y-80150000D03*
%TD*%
D44*
%TO.C,R21*%
X116205000Y-77105000D03*
X116205000Y-79105000D03*
%TD*%
D45*
%TO.C,R7*%
X99252500Y-54610000D03*
X96327500Y-54610000D03*
%TD*%
D46*
%TO.C,C6*%
X93980000Y-56195000D03*
X93980000Y-54295000D03*
%TD*%
D47*
%TO.C,F1*%
X90170000Y-53568500D03*
D48*
X90170000Y-58191500D03*
%TD*%
D49*
%TO.C,J5*%
X99700000Y-88900000D03*
D50*
X97160000Y-88900000D03*
%TD*%
D24*
%TO.C,D3*%
X88567500Y-78740000D03*
X86692500Y-78740000D03*
%TD*%
D51*
%TO.C,R9*%
X116647500Y-67945000D03*
X119572500Y-67945000D03*
%TD*%
D21*
%TO.C,C12*%
X117335000Y-69850000D03*
X118885000Y-69850000D03*
%TD*%
D52*
%TO.C,JP1*%
X104648000Y-79644000D03*
D53*
X104648000Y-78344000D03*
%TD*%
D54*
%TO.C,Q4*%
X102300000Y-65405000D03*
X102300000Y-66675000D03*
X102300000Y-67945000D03*
X102300000Y-69215000D03*
X107250000Y-69215000D03*
X107250000Y-67945000D03*
X107250000Y-66675000D03*
X107250000Y-65405000D03*
%TD*%
D11*
%TO.C,R14*%
X90615000Y-78870000D03*
X92265000Y-78870000D03*
%TD*%
%TO.C,R13*%
X90615000Y-81410000D03*
X92265000Y-81410000D03*
%TD*%
D42*
%TO.C,Q2*%
X110187500Y-50485000D03*
X110187500Y-52385000D03*
X112062500Y-51435000D03*
%TD*%
M02*
