M48
; DRILL file {KiCad 8.0.2} date 2024-05-28T03:05:23+0300
; FORMAT={-:-/ absolute / metric / decimal}
; #@! TF.CreationDate,2024-05-28T03:05:23+03:00
; #@! TF.GenerationSoftware,Kicad,Pcbnew,8.0.2
; #@! TF.FileFunction,Plated,1,2,PTH
FMAT,2
METRIC
; #@! TA.AperFunction,Plated,PTH,ViaDrill
T1C0.300
; #@! TA.AperFunction,Plated,PTH,ComponentDrill
T2C1.000
; #@! TA.AperFunction,Plated,PTH,ComponentDrill
T3C1.550
; #@! TA.AperFunction,Plated,PTH,ComponentDrill
T4C2.100
; #@! TA.AperFunction,Plated,PTH,ComponentDrill
T5C3.200
%
G90
G05
T1
X86.106Y-45.974
X86.106Y-47.498
X86.106Y-49.022
X86.106Y-50.546
X86.106Y-52.07
X86.106Y-53.594
X86.106Y-55.118
X86.106Y-56.642
X86.106Y-58.166
X86.106Y-59.69
X86.106Y-61.214
X86.106Y-62.738
X86.106Y-64.262
X86.106Y-65.786
X86.106Y-67.31
X86.106Y-68.834
X86.106Y-70.358
X86.106Y-71.882
X86.614Y-83.566
X86.614Y-91.44
X87.969Y-91.44
X89.323Y-91.44
X89.916Y-44.45
X90.678Y-91.44
X91.933Y-44.45
X92.033Y-91.44
X92.202Y-76.708
X92.202Y-79.756
X93.218Y-82.55
X93.387Y-91.44
X93.95Y-44.45
X94.742Y-91.44
X95.758Y-83.566
X95.766Y-81.6
X95.967Y-44.45
X96.266Y-58.674
X96.266Y-59.944
X97.79Y-58.674
X97.79Y-59.944
X97.984Y-44.45
X99.568Y-80.222
X99.822Y-82.296
X99.949Y-65.225
X100.001Y-44.45
X100.584Y-65.786
X100.584Y-66.548
X100.838Y-53.086
X100.838Y-54.356
X100.838Y-55.626
X100.838Y-60.706
X100.838Y-61.468
X100.95Y-73.05
X102.018Y-44.45
X102.108Y-56.388
X102.108Y-82.296
X102.108Y-86.36
X102.108Y-90.17
X102.632Y-71.104
X103.124Y-56.388
X103.378Y-71.628
X103.378Y-72.39
X103.886Y-68.326
X104.035Y-44.45
X104.14Y-71.628
X104.394Y-82.296
X104.394Y-91.44
X104.648Y-79.502
X104.75Y-77.2
X105.156Y-76.2
X105.41Y-86.614
X105.9Y-91.44
X105.918Y-53.594
X106.052Y-44.45
X106.934Y-79.502
X107.406Y-91.44
X107.442Y-82.505
X107.696Y-80.772
X107.95Y-85.852
X107.95Y-88.9
X108.07Y-44.45
X108.175Y-81.293
X108.912Y-91.44
X109.474Y-70.104
X109.588Y-80.15
X109.728Y-70.866
X109.728Y-74.168
X109.728Y-75.692
X110.087Y-44.45
X110.236Y-80.15
X110.417Y-91.44
X110.49Y-74.93
X110.49Y-86.614
X111.252Y-74.168
X111.252Y-75.692
X111.506Y-70.612
X111.923Y-91.44
X112.104Y-44.45
X112.268Y-72.136
X113.03Y-52.832
X113.03Y-85.852
X113.03Y-88.9
X113.284Y-74.168
X113.284Y-78.232
X113.429Y-91.44
X113.538Y-82.296
X113.665Y-55.118
X113.792Y-52.832
X113.792Y-71.882
X114.121Y-44.45
X114.3Y-71.374
X114.3Y-81.788
X114.554Y-52.832
X114.808Y-55.118
X114.808Y-70.866
X114.935Y-91.44
X115.316Y-52.832
X115.316Y-75.055
X115.316Y-78.74
X115.316Y-79.502
X115.316Y-81.788
X115.57Y-86.614
X116.078Y-70.104
X116.138Y-44.45
X116.24Y-74.7
X117.856Y-72.136
X117.856Y-73.077
X117.856Y-74.168
X118.11Y-83.566
X118.11Y-86.285
X118.11Y-89.005
X118.155Y-44.45
X120.142Y-50.038
X120.142Y-72.644
X120.142Y-91.44
X120.172Y-44.45
X121.92Y-51.054
X121.92Y-53.594
X122.159Y-91.44
X122.189Y-44.45
X122.428Y-50.546
X122.936Y-50.038
X123.444Y-49.53
X124.176Y-91.44
X124.206Y-44.45
X124.714Y-54.864
X126.193Y-91.44
X126.238Y-75.438
X126.238Y-79.756
X128.21Y-91.44
X130.048Y-76.454
X130.227Y-91.44
X133.096Y-45.212
X133.096Y-47.931
X133.096Y-50.651
X133.096Y-53.37
X133.096Y-56.089
X133.096Y-58.808
X133.096Y-61.528
X133.096Y-64.247
X133.096Y-66.966
X133.096Y-69.686
X133.096Y-72.405
X133.096Y-75.124
X133.096Y-77.844
X133.096Y-80.563
X133.096Y-83.282
X133.096Y-86.001
X133.096Y-88.721
X133.096Y-91.44
T2
X97.16Y-88.9
X99.7Y-88.9
T3
X89.535Y-88.265
X129.032Y-80.518
T4
X90.08Y-49.53
X97.88Y-49.53
X128.905Y-47.535
X128.905Y-55.335
X128.905Y-64.59
X128.905Y-72.39
T5
X97.155Y-77.47
X121.92Y-59.055
M30
