%TF.GenerationSoftware,KiCad,Pcbnew,8.0.2*%
%TF.CreationDate,2024-05-28T03:04:17+03:00*%
%TF.ProjectId,ups,7570732e-6b69-4636-9164-5f7063625858,rev?*%
%TF.SameCoordinates,Original*%
%TF.FileFunction,Legend,Top*%
%TF.FilePolarity,Positive*%
%FSLAX46Y46*%
G04 Gerber Fmt 4.6, Leading zero omitted, Abs format (unit mm)*
G04 Created by KiCad (PCBNEW 8.0.2) date 2024-05-28 03:04:17*
%MOMM*%
%LPD*%
G01*
G04 APERTURE LIST*
G04 Aperture macros list*
%AMRoundRect*
0 Rectangle with rounded corners*
0 $1 Rounding radius*
0 $2 $3 $4 $5 $6 $7 $8 $9 X,Y pos of 4 corners*
0 Add a 4 corners polygon primitive as box body*
4,1,4,$2,$3,$4,$5,$6,$7,$8,$9,$2,$3,0*
0 Add four circle primitives for the rounded corners*
1,1,$1+$1,$2,$3*
1,1,$1+$1,$4,$5*
1,1,$1+$1,$6,$7*
1,1,$1+$1,$8,$9*
0 Add four rect primitives between the rounded corners*
20,1,$1+$1,$2,$3,$4,$5,0*
20,1,$1+$1,$4,$5,$6,$7,0*
20,1,$1+$1,$6,$7,$8,$9,0*
20,1,$1+$1,$8,$9,$2,$3,0*%
%AMFreePoly0*
4,1,19,0.500000,-0.750000,0.000000,-0.750000,0.000000,-0.744911,-0.071157,-0.744911,-0.207708,-0.704816,-0.327430,-0.627875,-0.420627,-0.520320,-0.479746,-0.390866,-0.500000,-0.250000,-0.500000,0.250000,-0.479746,0.390866,-0.420627,0.520320,-0.327430,0.627875,-0.207708,0.704816,-0.071157,0.744911,0.000000,0.744911,0.000000,0.750000,0.500000,0.750000,0.500000,-0.750000,0.500000,-0.750000,
$1*%
%AMFreePoly1*
4,1,19,0.000000,0.744911,0.071157,0.744911,0.207708,0.704816,0.327430,0.627875,0.420627,0.520320,0.479746,0.390866,0.500000,0.250000,0.500000,-0.250000,0.479746,-0.390866,0.420627,-0.520320,0.327430,-0.627875,0.207708,-0.704816,0.071157,-0.744911,0.000000,-0.744911,0.000000,-0.750000,-0.500000,-0.750000,-0.500000,0.750000,0.000000,0.750000,0.000000,0.744911,0.000000,0.744911,
$1*%
G04 Aperture macros list end*
%ADD10C,0.250000*%
%ADD11C,0.300000*%
%ADD12C,0.150000*%
%ADD13C,0.120000*%
%ADD14C,0.100000*%
%ADD15RoundRect,0.150000X0.150000X-0.825000X0.150000X0.825000X-0.150000X0.825000X-0.150000X-0.825000X0*%
%ADD16RoundRect,0.200000X-0.200000X-0.275000X0.200000X-0.275000X0.200000X0.275000X-0.200000X0.275000X0*%
%ADD17RoundRect,0.250000X-0.325000X-0.650000X0.325000X-0.650000X0.325000X0.650000X-0.325000X0.650000X0*%
%ADD18RoundRect,0.250000X0.450000X-0.350000X0.450000X0.350000X-0.450000X0.350000X-0.450000X-0.350000X0*%
%ADD19RoundRect,0.162500X-0.162500X0.837500X-0.162500X-0.837500X0.162500X-0.837500X0.162500X0.837500X0*%
%ADD20RoundRect,0.250000X0.350000X0.450000X-0.350000X0.450000X-0.350000X-0.450000X0.350000X-0.450000X0*%
%ADD21RoundRect,0.250000X-0.650000X0.325000X-0.650000X-0.325000X0.650000X-0.325000X0.650000X0.325000X0*%
%ADD22RoundRect,0.250000X0.325000X0.650000X-0.325000X0.650000X-0.325000X-0.650000X0.325000X-0.650000X0*%
%ADD23RoundRect,0.250000X0.650000X-0.325000X0.650000X0.325000X-0.650000X0.325000X-0.650000X-0.325000X0*%
%ADD24RoundRect,0.250000X-0.625000X0.312500X-0.625000X-0.312500X0.625000X-0.312500X0.625000X0.312500X0*%
%ADD25RoundRect,0.225000X-0.250000X0.225000X-0.250000X-0.225000X0.250000X-0.225000X0.250000X0.225000X0*%
%ADD26RoundRect,0.225000X-0.225000X-0.250000X0.225000X-0.250000X0.225000X0.250000X-0.225000X0.250000X0*%
%ADD27C,5.600000*%
%ADD28RoundRect,0.200000X0.275000X-0.200000X0.275000X0.200000X-0.275000X0.200000X-0.275000X-0.200000X0*%
%ADD29RoundRect,0.243750X0.243750X0.456250X-0.243750X0.456250X-0.243750X-0.456250X0.243750X-0.456250X0*%
%ADD30RoundRect,0.250000X0.250000X0.475000X-0.250000X0.475000X-0.250000X-0.475000X0.250000X-0.475000X0*%
%ADD31RoundRect,0.225000X0.250000X-0.225000X0.250000X0.225000X-0.250000X0.225000X-0.250000X-0.225000X0*%
%ADD32RoundRect,0.235000X-0.940000X-1.465000X0.940000X-1.465000X0.940000X1.465000X-0.940000X1.465000X0*%
%ADD33RoundRect,0.225000X0.225000X0.250000X-0.225000X0.250000X-0.225000X-0.250000X0.225000X-0.250000X0*%
%ADD34RoundRect,0.200000X-0.275000X0.200000X-0.275000X-0.200000X0.275000X-0.200000X0.275000X0.200000X0*%
%ADD35RoundRect,0.250000X-0.250000X-0.475000X0.250000X-0.475000X0.250000X0.475000X-0.250000X0.475000X0*%
%ADD36RoundRect,0.125000X-0.125000X-0.125000X0.125000X-0.125000X0.125000X0.125000X-0.125000X0.125000X0*%
%ADD37RoundRect,0.250002X-1.499998X-1.499998X1.499998X-1.499998X1.499998X1.499998X-1.499998X1.499998X0*%
%ADD38RoundRect,0.250002X-1.699998X-1.699998X1.699998X-1.699998X1.699998X1.699998X-1.699998X1.699998X0*%
%ADD39C,3.900000*%
%ADD40RoundRect,0.102000X-1.225000X-1.225000X1.225000X-1.225000X1.225000X1.225000X-1.225000X1.225000X0*%
%ADD41RoundRect,0.011350X-0.215650X0.390650X-0.215650X-0.390650X0.215650X-0.390650X0.215650X0.390650X0*%
%ADD42RoundRect,0.011350X0.390650X0.215650X-0.390650X0.215650X-0.390650X-0.215650X0.390650X-0.215650X0*%
%ADD43RoundRect,0.011350X0.215650X-0.390650X0.215650X0.390650X-0.215650X0.390650X-0.215650X-0.390650X0*%
%ADD44RoundRect,0.011350X-0.390650X-0.215650X0.390650X-0.215650X0.390650X0.215650X-0.390650X0.215650X0*%
%ADD45RoundRect,0.250002X1.499998X1.499998X-1.499998X1.499998X-1.499998X-1.499998X1.499998X-1.499998X0*%
%ADD46RoundRect,0.250002X-1.699998X1.699998X-1.699998X-1.699998X1.699998X-1.699998X1.699998X1.699998X0*%
%ADD47RoundRect,0.150000X-0.587500X-0.150000X0.587500X-0.150000X0.587500X0.150000X-0.587500X0.150000X0*%
%ADD48RoundRect,0.250002X1.699998X-1.699998X1.699998X1.699998X-1.699998X1.699998X-1.699998X-1.699998X0*%
%ADD49RoundRect,0.250000X-0.450000X0.350000X-0.450000X-0.350000X0.450000X-0.350000X0.450000X0.350000X0*%
%ADD50RoundRect,0.250000X0.312500X0.625000X-0.312500X0.625000X-0.312500X-0.625000X0.312500X-0.625000X0*%
%ADD51RoundRect,0.250000X0.475000X-0.250000X0.475000X0.250000X-0.475000X0.250000X-0.475000X-0.250000X0*%
%ADD52RoundRect,0.327333X-1.059917X0.409167X-1.059917X-0.409167X1.059917X-0.409167X1.059917X0.409167X0*%
%ADD53RoundRect,0.327333X-1.030667X0.409167X-1.030667X-0.409167X1.030667X-0.409167X1.030667X0.409167X0*%
%ADD54R,1.700000X1.700000*%
%ADD55O,1.700000X1.700000*%
%ADD56RoundRect,0.250000X-0.312500X-0.625000X0.312500X-0.625000X0.312500X0.625000X-0.312500X0.625000X0*%
%ADD57FreePoly0,90.000000*%
%ADD58FreePoly1,90.000000*%
%ADD59RoundRect,0.150000X-0.825000X-0.150000X0.825000X-0.150000X0.825000X0.150000X-0.825000X0.150000X0*%
G04 APERTURE END LIST*
D10*
X85446809Y-80036098D02*
X85446809Y-80369431D01*
X85970619Y-80369431D02*
X84970619Y-80369431D01*
X84970619Y-80369431D02*
X84970619Y-79893241D01*
X84970619Y-79512288D02*
X85780142Y-79512288D01*
X85780142Y-79512288D02*
X85875380Y-79464669D01*
X85875380Y-79464669D02*
X85923000Y-79417050D01*
X85923000Y-79417050D02*
X85970619Y-79321812D01*
X85970619Y-79321812D02*
X85970619Y-79131336D01*
X85970619Y-79131336D02*
X85923000Y-79036098D01*
X85923000Y-79036098D02*
X85875380Y-78988479D01*
X85875380Y-78988479D02*
X85780142Y-78940860D01*
X85780142Y-78940860D02*
X84970619Y-78940860D01*
X85970619Y-77988479D02*
X85970619Y-78464669D01*
X85970619Y-78464669D02*
X84970619Y-78464669D01*
X85970619Y-77178955D02*
X85970619Y-77655145D01*
X85970619Y-77655145D02*
X84970619Y-77655145D01*
X86571996Y-83843380D02*
X86524377Y-83891000D01*
X86524377Y-83891000D02*
X86381520Y-83938619D01*
X86381520Y-83938619D02*
X86286282Y-83938619D01*
X86286282Y-83938619D02*
X86143425Y-83891000D01*
X86143425Y-83891000D02*
X86048187Y-83795761D01*
X86048187Y-83795761D02*
X86000568Y-83700523D01*
X86000568Y-83700523D02*
X85952949Y-83510047D01*
X85952949Y-83510047D02*
X85952949Y-83367190D01*
X85952949Y-83367190D02*
X86000568Y-83176714D01*
X86000568Y-83176714D02*
X86048187Y-83081476D01*
X86048187Y-83081476D02*
X86143425Y-82986238D01*
X86143425Y-82986238D02*
X86286282Y-82938619D01*
X86286282Y-82938619D02*
X86381520Y-82938619D01*
X86381520Y-82938619D02*
X86524377Y-82986238D01*
X86524377Y-82986238D02*
X86571996Y-83033857D01*
X87000568Y-83938619D02*
X87000568Y-82938619D01*
X87000568Y-83414809D02*
X87571996Y-83414809D01*
X87571996Y-83938619D02*
X87571996Y-82938619D01*
X88619615Y-83938619D02*
X88286282Y-83462428D01*
X88048187Y-83938619D02*
X88048187Y-82938619D01*
X88048187Y-82938619D02*
X88429139Y-82938619D01*
X88429139Y-82938619D02*
X88524377Y-82986238D01*
X88524377Y-82986238D02*
X88571996Y-83033857D01*
X88571996Y-83033857D02*
X88619615Y-83129095D01*
X88619615Y-83129095D02*
X88619615Y-83271952D01*
X88619615Y-83271952D02*
X88571996Y-83367190D01*
X88571996Y-83367190D02*
X88524377Y-83414809D01*
X88524377Y-83414809D02*
X88429139Y-83462428D01*
X88429139Y-83462428D02*
X88048187Y-83462428D01*
X89571996Y-82986238D02*
X89476758Y-82938619D01*
X89476758Y-82938619D02*
X89333901Y-82938619D01*
X89333901Y-82938619D02*
X89191044Y-82986238D01*
X89191044Y-82986238D02*
X89095806Y-83081476D01*
X89095806Y-83081476D02*
X89048187Y-83176714D01*
X89048187Y-83176714D02*
X89000568Y-83367190D01*
X89000568Y-83367190D02*
X89000568Y-83510047D01*
X89000568Y-83510047D02*
X89048187Y-83700523D01*
X89048187Y-83700523D02*
X89095806Y-83795761D01*
X89095806Y-83795761D02*
X89191044Y-83891000D01*
X89191044Y-83891000D02*
X89333901Y-83938619D01*
X89333901Y-83938619D02*
X89429139Y-83938619D01*
X89429139Y-83938619D02*
X89571996Y-83891000D01*
X89571996Y-83891000D02*
X89619615Y-83843380D01*
X89619615Y-83843380D02*
X89619615Y-83510047D01*
X89619615Y-83510047D02*
X89429139Y-83510047D01*
X86254568Y-74540619D02*
X86254568Y-73540619D01*
X86254568Y-73540619D02*
X86635520Y-73540619D01*
X86635520Y-73540619D02*
X86730758Y-73588238D01*
X86730758Y-73588238D02*
X86778377Y-73635857D01*
X86778377Y-73635857D02*
X86825996Y-73731095D01*
X86825996Y-73731095D02*
X86825996Y-73873952D01*
X86825996Y-73873952D02*
X86778377Y-73969190D01*
X86778377Y-73969190D02*
X86730758Y-74016809D01*
X86730758Y-74016809D02*
X86635520Y-74064428D01*
X86635520Y-74064428D02*
X86254568Y-74064428D01*
X87778377Y-73588238D02*
X87683139Y-73540619D01*
X87683139Y-73540619D02*
X87540282Y-73540619D01*
X87540282Y-73540619D02*
X87397425Y-73588238D01*
X87397425Y-73588238D02*
X87302187Y-73683476D01*
X87302187Y-73683476D02*
X87254568Y-73778714D01*
X87254568Y-73778714D02*
X87206949Y-73969190D01*
X87206949Y-73969190D02*
X87206949Y-74112047D01*
X87206949Y-74112047D02*
X87254568Y-74302523D01*
X87254568Y-74302523D02*
X87302187Y-74397761D01*
X87302187Y-74397761D02*
X87397425Y-74493000D01*
X87397425Y-74493000D02*
X87540282Y-74540619D01*
X87540282Y-74540619D02*
X87635520Y-74540619D01*
X87635520Y-74540619D02*
X87778377Y-74493000D01*
X87778377Y-74493000D02*
X87825996Y-74445380D01*
X87825996Y-74445380D02*
X87825996Y-74112047D01*
X87825996Y-74112047D02*
X87635520Y-74112047D01*
X96922568Y-91812619D02*
X96922568Y-90812619D01*
X96922568Y-90812619D02*
X97493996Y-91812619D01*
X97493996Y-91812619D02*
X97493996Y-90812619D01*
X97827330Y-90812619D02*
X98398758Y-90812619D01*
X98113044Y-91812619D02*
X98113044Y-90812619D01*
X99303520Y-91717380D02*
X99255901Y-91765000D01*
X99255901Y-91765000D02*
X99113044Y-91812619D01*
X99113044Y-91812619D02*
X99017806Y-91812619D01*
X99017806Y-91812619D02*
X98874949Y-91765000D01*
X98874949Y-91765000D02*
X98779711Y-91669761D01*
X98779711Y-91669761D02*
X98732092Y-91574523D01*
X98732092Y-91574523D02*
X98684473Y-91384047D01*
X98684473Y-91384047D02*
X98684473Y-91241190D01*
X98684473Y-91241190D02*
X98732092Y-91050714D01*
X98732092Y-91050714D02*
X98779711Y-90955476D01*
X98779711Y-90955476D02*
X98874949Y-90860238D01*
X98874949Y-90860238D02*
X99017806Y-90812619D01*
X99017806Y-90812619D02*
X99113044Y-90812619D01*
X99113044Y-90812619D02*
X99255901Y-90860238D01*
X99255901Y-90860238D02*
X99303520Y-90907857D01*
X130529901Y-68428809D02*
X130672758Y-68476428D01*
X130672758Y-68476428D02*
X130720377Y-68524047D01*
X130720377Y-68524047D02*
X130767996Y-68619285D01*
X130767996Y-68619285D02*
X130767996Y-68762142D01*
X130767996Y-68762142D02*
X130720377Y-68857380D01*
X130720377Y-68857380D02*
X130672758Y-68905000D01*
X130672758Y-68905000D02*
X130577520Y-68952619D01*
X130577520Y-68952619D02*
X130196568Y-68952619D01*
X130196568Y-68952619D02*
X130196568Y-67952619D01*
X130196568Y-67952619D02*
X130529901Y-67952619D01*
X130529901Y-67952619D02*
X130625139Y-68000238D01*
X130625139Y-68000238D02*
X130672758Y-68047857D01*
X130672758Y-68047857D02*
X130720377Y-68143095D01*
X130720377Y-68143095D02*
X130720377Y-68238333D01*
X130720377Y-68238333D02*
X130672758Y-68333571D01*
X130672758Y-68333571D02*
X130625139Y-68381190D01*
X130625139Y-68381190D02*
X130529901Y-68428809D01*
X130529901Y-68428809D02*
X130196568Y-68428809D01*
X131148949Y-68666904D02*
X131625139Y-68666904D01*
X131053711Y-68952619D02*
X131387044Y-67952619D01*
X131387044Y-67952619D02*
X131720377Y-68952619D01*
X131910854Y-67952619D02*
X132482282Y-67952619D01*
X132196568Y-68952619D02*
X132196568Y-67952619D01*
X132672759Y-67952619D02*
X133244187Y-67952619D01*
X132958473Y-68952619D02*
X132958473Y-67952619D01*
X130053711Y-50934619D02*
X130387044Y-51934619D01*
X130387044Y-51934619D02*
X130720377Y-50934619D01*
X131244187Y-50934619D02*
X131434663Y-50934619D01*
X131434663Y-50934619D02*
X131529901Y-50982238D01*
X131529901Y-50982238D02*
X131625139Y-51077476D01*
X131625139Y-51077476D02*
X131672758Y-51267952D01*
X131672758Y-51267952D02*
X131672758Y-51601285D01*
X131672758Y-51601285D02*
X131625139Y-51791761D01*
X131625139Y-51791761D02*
X131529901Y-51887000D01*
X131529901Y-51887000D02*
X131434663Y-51934619D01*
X131434663Y-51934619D02*
X131244187Y-51934619D01*
X131244187Y-51934619D02*
X131148949Y-51887000D01*
X131148949Y-51887000D02*
X131053711Y-51791761D01*
X131053711Y-51791761D02*
X131006092Y-51601285D01*
X131006092Y-51601285D02*
X131006092Y-51267952D01*
X131006092Y-51267952D02*
X131053711Y-51077476D01*
X131053711Y-51077476D02*
X131148949Y-50982238D01*
X131148949Y-50982238D02*
X131244187Y-50934619D01*
X132101330Y-50934619D02*
X132101330Y-51744142D01*
X132101330Y-51744142D02*
X132148949Y-51839380D01*
X132148949Y-51839380D02*
X132196568Y-51887000D01*
X132196568Y-51887000D02*
X132291806Y-51934619D01*
X132291806Y-51934619D02*
X132482282Y-51934619D01*
X132482282Y-51934619D02*
X132577520Y-51887000D01*
X132577520Y-51887000D02*
X132625139Y-51839380D01*
X132625139Y-51839380D02*
X132672758Y-51744142D01*
X132672758Y-51744142D02*
X132672758Y-50934619D01*
X133006092Y-50934619D02*
X133577520Y-50934619D01*
X133291806Y-51934619D02*
X133291806Y-50934619D01*
X90381996Y-85621380D02*
X90334377Y-85669000D01*
X90334377Y-85669000D02*
X90191520Y-85716619D01*
X90191520Y-85716619D02*
X90096282Y-85716619D01*
X90096282Y-85716619D02*
X89953425Y-85669000D01*
X89953425Y-85669000D02*
X89858187Y-85573761D01*
X89858187Y-85573761D02*
X89810568Y-85478523D01*
X89810568Y-85478523D02*
X89762949Y-85288047D01*
X89762949Y-85288047D02*
X89762949Y-85145190D01*
X89762949Y-85145190D02*
X89810568Y-84954714D01*
X89810568Y-84954714D02*
X89858187Y-84859476D01*
X89858187Y-84859476D02*
X89953425Y-84764238D01*
X89953425Y-84764238D02*
X90096282Y-84716619D01*
X90096282Y-84716619D02*
X90191520Y-84716619D01*
X90191520Y-84716619D02*
X90334377Y-84764238D01*
X90334377Y-84764238D02*
X90381996Y-84811857D01*
X90810568Y-85192809D02*
X91143901Y-85192809D01*
X91286758Y-85716619D02*
X90810568Y-85716619D01*
X90810568Y-85716619D02*
X90810568Y-84716619D01*
X90810568Y-84716619D02*
X91286758Y-84716619D01*
X126592949Y-82779857D02*
X126640568Y-82732238D01*
X126640568Y-82732238D02*
X126735806Y-82684619D01*
X126735806Y-82684619D02*
X126973901Y-82684619D01*
X126973901Y-82684619D02*
X127069139Y-82732238D01*
X127069139Y-82732238D02*
X127116758Y-82779857D01*
X127116758Y-82779857D02*
X127164377Y-82875095D01*
X127164377Y-82875095D02*
X127164377Y-82970333D01*
X127164377Y-82970333D02*
X127116758Y-83113190D01*
X127116758Y-83113190D02*
X126545330Y-83684619D01*
X126545330Y-83684619D02*
X127164377Y-83684619D01*
X127545330Y-83637000D02*
X127688187Y-83684619D01*
X127688187Y-83684619D02*
X127926282Y-83684619D01*
X127926282Y-83684619D02*
X128021520Y-83637000D01*
X128021520Y-83637000D02*
X128069139Y-83589380D01*
X128069139Y-83589380D02*
X128116758Y-83494142D01*
X128116758Y-83494142D02*
X128116758Y-83398904D01*
X128116758Y-83398904D02*
X128069139Y-83303666D01*
X128069139Y-83303666D02*
X128021520Y-83256047D01*
X128021520Y-83256047D02*
X127926282Y-83208428D01*
X127926282Y-83208428D02*
X127735806Y-83160809D01*
X127735806Y-83160809D02*
X127640568Y-83113190D01*
X127640568Y-83113190D02*
X127592949Y-83065571D01*
X127592949Y-83065571D02*
X127545330Y-82970333D01*
X127545330Y-82970333D02*
X127545330Y-82875095D01*
X127545330Y-82875095D02*
X127592949Y-82779857D01*
X127592949Y-82779857D02*
X127640568Y-82732238D01*
X127640568Y-82732238D02*
X127735806Y-82684619D01*
X127735806Y-82684619D02*
X127973901Y-82684619D01*
X127973901Y-82684619D02*
X128116758Y-82732238D01*
X128307235Y-83779857D02*
X129069139Y-83779857D01*
X129640568Y-83160809D02*
X129783425Y-83208428D01*
X129783425Y-83208428D02*
X129831044Y-83256047D01*
X129831044Y-83256047D02*
X129878663Y-83351285D01*
X129878663Y-83351285D02*
X129878663Y-83494142D01*
X129878663Y-83494142D02*
X129831044Y-83589380D01*
X129831044Y-83589380D02*
X129783425Y-83637000D01*
X129783425Y-83637000D02*
X129688187Y-83684619D01*
X129688187Y-83684619D02*
X129307235Y-83684619D01*
X129307235Y-83684619D02*
X129307235Y-82684619D01*
X129307235Y-82684619D02*
X129640568Y-82684619D01*
X129640568Y-82684619D02*
X129735806Y-82732238D01*
X129735806Y-82732238D02*
X129783425Y-82779857D01*
X129783425Y-82779857D02*
X129831044Y-82875095D01*
X129831044Y-82875095D02*
X129831044Y-82970333D01*
X129831044Y-82970333D02*
X129783425Y-83065571D01*
X129783425Y-83065571D02*
X129735806Y-83113190D01*
X129735806Y-83113190D02*
X129640568Y-83160809D01*
X129640568Y-83160809D02*
X129307235Y-83160809D01*
X130259616Y-83398904D02*
X130735806Y-83398904D01*
X130164378Y-83684619D02*
X130497711Y-82684619D01*
X130497711Y-82684619D02*
X130831044Y-83684619D01*
X131640568Y-83684619D02*
X131164378Y-83684619D01*
X131164378Y-83684619D02*
X131164378Y-82684619D01*
D11*
X131737558Y-72129733D02*
X133261368Y-72129733D01*
X132499463Y-72891638D02*
X132499463Y-71367828D01*
X131737558Y-64763733D02*
X133261368Y-64763733D01*
X124625558Y-73907733D02*
X126149368Y-73907733D01*
X125387463Y-74669638D02*
X125387463Y-73145828D01*
X124625558Y-63239733D02*
X126149368Y-63239733D01*
X131737558Y-55365733D02*
X133261368Y-55365733D01*
X131737558Y-47491733D02*
X133261368Y-47491733D01*
X132499463Y-48253638D02*
X132499463Y-46729828D01*
X97193558Y-45967733D02*
X98717368Y-45967733D01*
X89319558Y-45967733D02*
X90843368Y-45967733D01*
X90081463Y-46729638D02*
X90081463Y-45205828D01*
D12*
X88590057Y-63595238D02*
X88542438Y-63690476D01*
X88542438Y-63690476D02*
X88447200Y-63785714D01*
X88447200Y-63785714D02*
X88304342Y-63928571D01*
X88304342Y-63928571D02*
X88256723Y-64023809D01*
X88256723Y-64023809D02*
X88256723Y-64119047D01*
X88494819Y-64071428D02*
X88447200Y-64166666D01*
X88447200Y-64166666D02*
X88351961Y-64261904D01*
X88351961Y-64261904D02*
X88161485Y-64309523D01*
X88161485Y-64309523D02*
X87828152Y-64309523D01*
X87828152Y-64309523D02*
X87637676Y-64261904D01*
X87637676Y-64261904D02*
X87542438Y-64166666D01*
X87542438Y-64166666D02*
X87494819Y-64071428D01*
X87494819Y-64071428D02*
X87494819Y-63880952D01*
X87494819Y-63880952D02*
X87542438Y-63785714D01*
X87542438Y-63785714D02*
X87637676Y-63690476D01*
X87637676Y-63690476D02*
X87828152Y-63642857D01*
X87828152Y-63642857D02*
X88161485Y-63642857D01*
X88161485Y-63642857D02*
X88351961Y-63690476D01*
X88351961Y-63690476D02*
X88447200Y-63785714D01*
X88447200Y-63785714D02*
X88494819Y-63880952D01*
X88494819Y-63880952D02*
X88494819Y-64071428D01*
X88494819Y-62690476D02*
X88494819Y-63261904D01*
X88494819Y-62976190D02*
X87494819Y-62976190D01*
X87494819Y-62976190D02*
X87637676Y-63071428D01*
X87637676Y-63071428D02*
X87732914Y-63166666D01*
X87732914Y-63166666D02*
X87780533Y-63261904D01*
X90797142Y-74719819D02*
X90463809Y-74243628D01*
X90225714Y-74719819D02*
X90225714Y-73719819D01*
X90225714Y-73719819D02*
X90606666Y-73719819D01*
X90606666Y-73719819D02*
X90701904Y-73767438D01*
X90701904Y-73767438D02*
X90749523Y-73815057D01*
X90749523Y-73815057D02*
X90797142Y-73910295D01*
X90797142Y-73910295D02*
X90797142Y-74053152D01*
X90797142Y-74053152D02*
X90749523Y-74148390D01*
X90749523Y-74148390D02*
X90701904Y-74196009D01*
X90701904Y-74196009D02*
X90606666Y-74243628D01*
X90606666Y-74243628D02*
X90225714Y-74243628D01*
X91749523Y-74719819D02*
X91178095Y-74719819D01*
X91463809Y-74719819D02*
X91463809Y-73719819D01*
X91463809Y-73719819D02*
X91368571Y-73862676D01*
X91368571Y-73862676D02*
X91273333Y-73957914D01*
X91273333Y-73957914D02*
X91178095Y-74005533D01*
X92654285Y-73719819D02*
X92178095Y-73719819D01*
X92178095Y-73719819D02*
X92130476Y-74196009D01*
X92130476Y-74196009D02*
X92178095Y-74148390D01*
X92178095Y-74148390D02*
X92273333Y-74100771D01*
X92273333Y-74100771D02*
X92511428Y-74100771D01*
X92511428Y-74100771D02*
X92606666Y-74148390D01*
X92606666Y-74148390D02*
X92654285Y-74196009D01*
X92654285Y-74196009D02*
X92701904Y-74291247D01*
X92701904Y-74291247D02*
X92701904Y-74529342D01*
X92701904Y-74529342D02*
X92654285Y-74624580D01*
X92654285Y-74624580D02*
X92606666Y-74672200D01*
X92606666Y-74672200D02*
X92511428Y-74719819D01*
X92511428Y-74719819D02*
X92273333Y-74719819D01*
X92273333Y-74719819D02*
X92178095Y-74672200D01*
X92178095Y-74672200D02*
X92130476Y-74624580D01*
X97147142Y-84114819D02*
X96813809Y-83638628D01*
X96575714Y-84114819D02*
X96575714Y-83114819D01*
X96575714Y-83114819D02*
X96956666Y-83114819D01*
X96956666Y-83114819D02*
X97051904Y-83162438D01*
X97051904Y-83162438D02*
X97099523Y-83210057D01*
X97099523Y-83210057D02*
X97147142Y-83305295D01*
X97147142Y-83305295D02*
X97147142Y-83448152D01*
X97147142Y-83448152D02*
X97099523Y-83543390D01*
X97099523Y-83543390D02*
X97051904Y-83591009D01*
X97051904Y-83591009D02*
X96956666Y-83638628D01*
X96956666Y-83638628D02*
X96575714Y-83638628D01*
X97528095Y-83210057D02*
X97575714Y-83162438D01*
X97575714Y-83162438D02*
X97670952Y-83114819D01*
X97670952Y-83114819D02*
X97909047Y-83114819D01*
X97909047Y-83114819D02*
X98004285Y-83162438D01*
X98004285Y-83162438D02*
X98051904Y-83210057D01*
X98051904Y-83210057D02*
X98099523Y-83305295D01*
X98099523Y-83305295D02*
X98099523Y-83400533D01*
X98099523Y-83400533D02*
X98051904Y-83543390D01*
X98051904Y-83543390D02*
X97480476Y-84114819D01*
X97480476Y-84114819D02*
X98099523Y-84114819D01*
X98432857Y-83114819D02*
X99051904Y-83114819D01*
X99051904Y-83114819D02*
X98718571Y-83495771D01*
X98718571Y-83495771D02*
X98861428Y-83495771D01*
X98861428Y-83495771D02*
X98956666Y-83543390D01*
X98956666Y-83543390D02*
X99004285Y-83591009D01*
X99004285Y-83591009D02*
X99051904Y-83686247D01*
X99051904Y-83686247D02*
X99051904Y-83924342D01*
X99051904Y-83924342D02*
X99004285Y-84019580D01*
X99004285Y-84019580D02*
X98956666Y-84067200D01*
X98956666Y-84067200D02*
X98861428Y-84114819D01*
X98861428Y-84114819D02*
X98575714Y-84114819D01*
X98575714Y-84114819D02*
X98480476Y-84067200D01*
X98480476Y-84067200D02*
X98432857Y-84019580D01*
X122293142Y-69955580D02*
X122245523Y-70003200D01*
X122245523Y-70003200D02*
X122102666Y-70050819D01*
X122102666Y-70050819D02*
X122007428Y-70050819D01*
X122007428Y-70050819D02*
X121864571Y-70003200D01*
X121864571Y-70003200D02*
X121769333Y-69907961D01*
X121769333Y-69907961D02*
X121721714Y-69812723D01*
X121721714Y-69812723D02*
X121674095Y-69622247D01*
X121674095Y-69622247D02*
X121674095Y-69479390D01*
X121674095Y-69479390D02*
X121721714Y-69288914D01*
X121721714Y-69288914D02*
X121769333Y-69193676D01*
X121769333Y-69193676D02*
X121864571Y-69098438D01*
X121864571Y-69098438D02*
X122007428Y-69050819D01*
X122007428Y-69050819D02*
X122102666Y-69050819D01*
X122102666Y-69050819D02*
X122245523Y-69098438D01*
X122245523Y-69098438D02*
X122293142Y-69146057D01*
X123245523Y-70050819D02*
X122674095Y-70050819D01*
X122959809Y-70050819D02*
X122959809Y-69050819D01*
X122959809Y-69050819D02*
X122864571Y-69193676D01*
X122864571Y-69193676D02*
X122769333Y-69288914D01*
X122769333Y-69288914D02*
X122674095Y-69336533D01*
X123864571Y-69050819D02*
X123959809Y-69050819D01*
X123959809Y-69050819D02*
X124055047Y-69098438D01*
X124055047Y-69098438D02*
X124102666Y-69146057D01*
X124102666Y-69146057D02*
X124150285Y-69241295D01*
X124150285Y-69241295D02*
X124197904Y-69431771D01*
X124197904Y-69431771D02*
X124197904Y-69669866D01*
X124197904Y-69669866D02*
X124150285Y-69860342D01*
X124150285Y-69860342D02*
X124102666Y-69955580D01*
X124102666Y-69955580D02*
X124055047Y-70003200D01*
X124055047Y-70003200D02*
X123959809Y-70050819D01*
X123959809Y-70050819D02*
X123864571Y-70050819D01*
X123864571Y-70050819D02*
X123769333Y-70003200D01*
X123769333Y-70003200D02*
X123721714Y-69955580D01*
X123721714Y-69955580D02*
X123674095Y-69860342D01*
X123674095Y-69860342D02*
X123626476Y-69669866D01*
X123626476Y-69669866D02*
X123626476Y-69431771D01*
X123626476Y-69431771D02*
X123674095Y-69241295D01*
X123674095Y-69241295D02*
X123721714Y-69146057D01*
X123721714Y-69146057D02*
X123769333Y-69098438D01*
X123769333Y-69098438D02*
X123864571Y-69050819D01*
X104340819Y-89542857D02*
X103864628Y-89876190D01*
X104340819Y-90114285D02*
X103340819Y-90114285D01*
X103340819Y-90114285D02*
X103340819Y-89733333D01*
X103340819Y-89733333D02*
X103388438Y-89638095D01*
X103388438Y-89638095D02*
X103436057Y-89590476D01*
X103436057Y-89590476D02*
X103531295Y-89542857D01*
X103531295Y-89542857D02*
X103674152Y-89542857D01*
X103674152Y-89542857D02*
X103769390Y-89590476D01*
X103769390Y-89590476D02*
X103817009Y-89638095D01*
X103817009Y-89638095D02*
X103864628Y-89733333D01*
X103864628Y-89733333D02*
X103864628Y-90114285D01*
X104340819Y-88590476D02*
X104340819Y-89161904D01*
X104340819Y-88876190D02*
X103340819Y-88876190D01*
X103340819Y-88876190D02*
X103483676Y-88971428D01*
X103483676Y-88971428D02*
X103578914Y-89066666D01*
X103578914Y-89066666D02*
X103626533Y-89161904D01*
X103340819Y-87971428D02*
X103340819Y-87876190D01*
X103340819Y-87876190D02*
X103388438Y-87780952D01*
X103388438Y-87780952D02*
X103436057Y-87733333D01*
X103436057Y-87733333D02*
X103531295Y-87685714D01*
X103531295Y-87685714D02*
X103721771Y-87638095D01*
X103721771Y-87638095D02*
X103959866Y-87638095D01*
X103959866Y-87638095D02*
X104150342Y-87685714D01*
X104150342Y-87685714D02*
X104245580Y-87733333D01*
X104245580Y-87733333D02*
X104293200Y-87780952D01*
X104293200Y-87780952D02*
X104340819Y-87876190D01*
X104340819Y-87876190D02*
X104340819Y-87971428D01*
X104340819Y-87971428D02*
X104293200Y-88066666D01*
X104293200Y-88066666D02*
X104245580Y-88114285D01*
X104245580Y-88114285D02*
X104150342Y-88161904D01*
X104150342Y-88161904D02*
X103959866Y-88209523D01*
X103959866Y-88209523D02*
X103721771Y-88209523D01*
X103721771Y-88209523D02*
X103531295Y-88161904D01*
X103531295Y-88161904D02*
X103436057Y-88114285D01*
X103436057Y-88114285D02*
X103388438Y-88066666D01*
X103388438Y-88066666D02*
X103340819Y-87971428D01*
X120866819Y-89915904D02*
X121676342Y-89915904D01*
X121676342Y-89915904D02*
X121771580Y-89868285D01*
X121771580Y-89868285D02*
X121819200Y-89820666D01*
X121819200Y-89820666D02*
X121866819Y-89725428D01*
X121866819Y-89725428D02*
X121866819Y-89534952D01*
X121866819Y-89534952D02*
X121819200Y-89439714D01*
X121819200Y-89439714D02*
X121771580Y-89392095D01*
X121771580Y-89392095D02*
X121676342Y-89344476D01*
X121676342Y-89344476D02*
X120866819Y-89344476D01*
X120962057Y-88915904D02*
X120914438Y-88868285D01*
X120914438Y-88868285D02*
X120866819Y-88773047D01*
X120866819Y-88773047D02*
X120866819Y-88534952D01*
X120866819Y-88534952D02*
X120914438Y-88439714D01*
X120914438Y-88439714D02*
X120962057Y-88392095D01*
X120962057Y-88392095D02*
X121057295Y-88344476D01*
X121057295Y-88344476D02*
X121152533Y-88344476D01*
X121152533Y-88344476D02*
X121295390Y-88392095D01*
X121295390Y-88392095D02*
X121866819Y-88963523D01*
X121866819Y-88963523D02*
X121866819Y-88344476D01*
X122547142Y-77669819D02*
X122213809Y-77193628D01*
X121975714Y-77669819D02*
X121975714Y-76669819D01*
X121975714Y-76669819D02*
X122356666Y-76669819D01*
X122356666Y-76669819D02*
X122451904Y-76717438D01*
X122451904Y-76717438D02*
X122499523Y-76765057D01*
X122499523Y-76765057D02*
X122547142Y-76860295D01*
X122547142Y-76860295D02*
X122547142Y-77003152D01*
X122547142Y-77003152D02*
X122499523Y-77098390D01*
X122499523Y-77098390D02*
X122451904Y-77146009D01*
X122451904Y-77146009D02*
X122356666Y-77193628D01*
X122356666Y-77193628D02*
X121975714Y-77193628D01*
X123499523Y-77669819D02*
X122928095Y-77669819D01*
X123213809Y-77669819D02*
X123213809Y-76669819D01*
X123213809Y-76669819D02*
X123118571Y-76812676D01*
X123118571Y-76812676D02*
X123023333Y-76907914D01*
X123023333Y-76907914D02*
X122928095Y-76955533D01*
X123975714Y-77669819D02*
X124166190Y-77669819D01*
X124166190Y-77669819D02*
X124261428Y-77622200D01*
X124261428Y-77622200D02*
X124309047Y-77574580D01*
X124309047Y-77574580D02*
X124404285Y-77431723D01*
X124404285Y-77431723D02*
X124451904Y-77241247D01*
X124451904Y-77241247D02*
X124451904Y-76860295D01*
X124451904Y-76860295D02*
X124404285Y-76765057D01*
X124404285Y-76765057D02*
X124356666Y-76717438D01*
X124356666Y-76717438D02*
X124261428Y-76669819D01*
X124261428Y-76669819D02*
X124070952Y-76669819D01*
X124070952Y-76669819D02*
X123975714Y-76717438D01*
X123975714Y-76717438D02*
X123928095Y-76765057D01*
X123928095Y-76765057D02*
X123880476Y-76860295D01*
X123880476Y-76860295D02*
X123880476Y-77098390D01*
X123880476Y-77098390D02*
X123928095Y-77193628D01*
X123928095Y-77193628D02*
X123975714Y-77241247D01*
X123975714Y-77241247D02*
X124070952Y-77288866D01*
X124070952Y-77288866D02*
X124261428Y-77288866D01*
X124261428Y-77288866D02*
X124356666Y-77241247D01*
X124356666Y-77241247D02*
X124404285Y-77193628D01*
X124404285Y-77193628D02*
X124451904Y-77098390D01*
X126851580Y-52744666D02*
X126899200Y-52792285D01*
X126899200Y-52792285D02*
X126946819Y-52935142D01*
X126946819Y-52935142D02*
X126946819Y-53030380D01*
X126946819Y-53030380D02*
X126899200Y-53173237D01*
X126899200Y-53173237D02*
X126803961Y-53268475D01*
X126803961Y-53268475D02*
X126708723Y-53316094D01*
X126708723Y-53316094D02*
X126518247Y-53363713D01*
X126518247Y-53363713D02*
X126375390Y-53363713D01*
X126375390Y-53363713D02*
X126184914Y-53316094D01*
X126184914Y-53316094D02*
X126089676Y-53268475D01*
X126089676Y-53268475D02*
X125994438Y-53173237D01*
X125994438Y-53173237D02*
X125946819Y-53030380D01*
X125946819Y-53030380D02*
X125946819Y-52935142D01*
X125946819Y-52935142D02*
X125994438Y-52792285D01*
X125994438Y-52792285D02*
X126042057Y-52744666D01*
X126946819Y-51792285D02*
X126946819Y-52363713D01*
X126946819Y-52077999D02*
X125946819Y-52077999D01*
X125946819Y-52077999D02*
X126089676Y-52173237D01*
X126089676Y-52173237D02*
X126184914Y-52268475D01*
X126184914Y-52268475D02*
X126232533Y-52363713D01*
X114119819Y-85097857D02*
X113643628Y-85431190D01*
X114119819Y-85669285D02*
X113119819Y-85669285D01*
X113119819Y-85669285D02*
X113119819Y-85288333D01*
X113119819Y-85288333D02*
X113167438Y-85193095D01*
X113167438Y-85193095D02*
X113215057Y-85145476D01*
X113215057Y-85145476D02*
X113310295Y-85097857D01*
X113310295Y-85097857D02*
X113453152Y-85097857D01*
X113453152Y-85097857D02*
X113548390Y-85145476D01*
X113548390Y-85145476D02*
X113596009Y-85193095D01*
X113596009Y-85193095D02*
X113643628Y-85288333D01*
X113643628Y-85288333D02*
X113643628Y-85669285D01*
X114119819Y-84145476D02*
X114119819Y-84716904D01*
X114119819Y-84431190D02*
X113119819Y-84431190D01*
X113119819Y-84431190D02*
X113262676Y-84526428D01*
X113262676Y-84526428D02*
X113357914Y-84621666D01*
X113357914Y-84621666D02*
X113405533Y-84716904D01*
X113548390Y-83574047D02*
X113500771Y-83669285D01*
X113500771Y-83669285D02*
X113453152Y-83716904D01*
X113453152Y-83716904D02*
X113357914Y-83764523D01*
X113357914Y-83764523D02*
X113310295Y-83764523D01*
X113310295Y-83764523D02*
X113215057Y-83716904D01*
X113215057Y-83716904D02*
X113167438Y-83669285D01*
X113167438Y-83669285D02*
X113119819Y-83574047D01*
X113119819Y-83574047D02*
X113119819Y-83383571D01*
X113119819Y-83383571D02*
X113167438Y-83288333D01*
X113167438Y-83288333D02*
X113215057Y-83240714D01*
X113215057Y-83240714D02*
X113310295Y-83193095D01*
X113310295Y-83193095D02*
X113357914Y-83193095D01*
X113357914Y-83193095D02*
X113453152Y-83240714D01*
X113453152Y-83240714D02*
X113500771Y-83288333D01*
X113500771Y-83288333D02*
X113548390Y-83383571D01*
X113548390Y-83383571D02*
X113548390Y-83574047D01*
X113548390Y-83574047D02*
X113596009Y-83669285D01*
X113596009Y-83669285D02*
X113643628Y-83716904D01*
X113643628Y-83716904D02*
X113738866Y-83764523D01*
X113738866Y-83764523D02*
X113929342Y-83764523D01*
X113929342Y-83764523D02*
X114024580Y-83716904D01*
X114024580Y-83716904D02*
X114072200Y-83669285D01*
X114072200Y-83669285D02*
X114119819Y-83574047D01*
X114119819Y-83574047D02*
X114119819Y-83383571D01*
X114119819Y-83383571D02*
X114072200Y-83288333D01*
X114072200Y-83288333D02*
X114024580Y-83240714D01*
X114024580Y-83240714D02*
X113929342Y-83193095D01*
X113929342Y-83193095D02*
X113738866Y-83193095D01*
X113738866Y-83193095D02*
X113643628Y-83240714D01*
X113643628Y-83240714D02*
X113596009Y-83288333D01*
X113596009Y-83288333D02*
X113548390Y-83383571D01*
X103211333Y-59946580D02*
X103163714Y-59994200D01*
X103163714Y-59994200D02*
X103020857Y-60041819D01*
X103020857Y-60041819D02*
X102925619Y-60041819D01*
X102925619Y-60041819D02*
X102782762Y-59994200D01*
X102782762Y-59994200D02*
X102687524Y-59898961D01*
X102687524Y-59898961D02*
X102639905Y-59803723D01*
X102639905Y-59803723D02*
X102592286Y-59613247D01*
X102592286Y-59613247D02*
X102592286Y-59470390D01*
X102592286Y-59470390D02*
X102639905Y-59279914D01*
X102639905Y-59279914D02*
X102687524Y-59184676D01*
X102687524Y-59184676D02*
X102782762Y-59089438D01*
X102782762Y-59089438D02*
X102925619Y-59041819D01*
X102925619Y-59041819D02*
X103020857Y-59041819D01*
X103020857Y-59041819D02*
X103163714Y-59089438D01*
X103163714Y-59089438D02*
X103211333Y-59137057D01*
X103544667Y-59041819D02*
X104163714Y-59041819D01*
X104163714Y-59041819D02*
X103830381Y-59422771D01*
X103830381Y-59422771D02*
X103973238Y-59422771D01*
X103973238Y-59422771D02*
X104068476Y-59470390D01*
X104068476Y-59470390D02*
X104116095Y-59518009D01*
X104116095Y-59518009D02*
X104163714Y-59613247D01*
X104163714Y-59613247D02*
X104163714Y-59851342D01*
X104163714Y-59851342D02*
X104116095Y-59946580D01*
X104116095Y-59946580D02*
X104068476Y-59994200D01*
X104068476Y-59994200D02*
X103973238Y-60041819D01*
X103973238Y-60041819D02*
X103687524Y-60041819D01*
X103687524Y-60041819D02*
X103592286Y-59994200D01*
X103592286Y-59994200D02*
X103544667Y-59946580D01*
X118905580Y-86680857D02*
X118953200Y-86728476D01*
X118953200Y-86728476D02*
X119000819Y-86871333D01*
X119000819Y-86871333D02*
X119000819Y-86966571D01*
X119000819Y-86966571D02*
X118953200Y-87109428D01*
X118953200Y-87109428D02*
X118857961Y-87204666D01*
X118857961Y-87204666D02*
X118762723Y-87252285D01*
X118762723Y-87252285D02*
X118572247Y-87299904D01*
X118572247Y-87299904D02*
X118429390Y-87299904D01*
X118429390Y-87299904D02*
X118238914Y-87252285D01*
X118238914Y-87252285D02*
X118143676Y-87204666D01*
X118143676Y-87204666D02*
X118048438Y-87109428D01*
X118048438Y-87109428D02*
X118000819Y-86966571D01*
X118000819Y-86966571D02*
X118000819Y-86871333D01*
X118000819Y-86871333D02*
X118048438Y-86728476D01*
X118048438Y-86728476D02*
X118096057Y-86680857D01*
X118096057Y-86299904D02*
X118048438Y-86252285D01*
X118048438Y-86252285D02*
X118000819Y-86157047D01*
X118000819Y-86157047D02*
X118000819Y-85918952D01*
X118000819Y-85918952D02*
X118048438Y-85823714D01*
X118048438Y-85823714D02*
X118096057Y-85776095D01*
X118096057Y-85776095D02*
X118191295Y-85728476D01*
X118191295Y-85728476D02*
X118286533Y-85728476D01*
X118286533Y-85728476D02*
X118429390Y-85776095D01*
X118429390Y-85776095D02*
X119000819Y-86347523D01*
X119000819Y-86347523D02*
X119000819Y-85728476D01*
X118000819Y-85109428D02*
X118000819Y-85014190D01*
X118000819Y-85014190D02*
X118048438Y-84918952D01*
X118048438Y-84918952D02*
X118096057Y-84871333D01*
X118096057Y-84871333D02*
X118191295Y-84823714D01*
X118191295Y-84823714D02*
X118381771Y-84776095D01*
X118381771Y-84776095D02*
X118619866Y-84776095D01*
X118619866Y-84776095D02*
X118810342Y-84823714D01*
X118810342Y-84823714D02*
X118905580Y-84871333D01*
X118905580Y-84871333D02*
X118953200Y-84918952D01*
X118953200Y-84918952D02*
X119000819Y-85014190D01*
X119000819Y-85014190D02*
X119000819Y-85109428D01*
X119000819Y-85109428D02*
X118953200Y-85204666D01*
X118953200Y-85204666D02*
X118905580Y-85252285D01*
X118905580Y-85252285D02*
X118810342Y-85299904D01*
X118810342Y-85299904D02*
X118619866Y-85347523D01*
X118619866Y-85347523D02*
X118381771Y-85347523D01*
X118381771Y-85347523D02*
X118191295Y-85299904D01*
X118191295Y-85299904D02*
X118096057Y-85252285D01*
X118096057Y-85252285D02*
X118048438Y-85204666D01*
X118048438Y-85204666D02*
X118000819Y-85109428D01*
X96974819Y-60364666D02*
X96498628Y-60697999D01*
X96974819Y-60936094D02*
X95974819Y-60936094D01*
X95974819Y-60936094D02*
X95974819Y-60555142D01*
X95974819Y-60555142D02*
X96022438Y-60459904D01*
X96022438Y-60459904D02*
X96070057Y-60412285D01*
X96070057Y-60412285D02*
X96165295Y-60364666D01*
X96165295Y-60364666D02*
X96308152Y-60364666D01*
X96308152Y-60364666D02*
X96403390Y-60412285D01*
X96403390Y-60412285D02*
X96451009Y-60459904D01*
X96451009Y-60459904D02*
X96498628Y-60555142D01*
X96498628Y-60555142D02*
X96498628Y-60936094D01*
X96070057Y-59983713D02*
X96022438Y-59936094D01*
X96022438Y-59936094D02*
X95974819Y-59840856D01*
X95974819Y-59840856D02*
X95974819Y-59602761D01*
X95974819Y-59602761D02*
X96022438Y-59507523D01*
X96022438Y-59507523D02*
X96070057Y-59459904D01*
X96070057Y-59459904D02*
X96165295Y-59412285D01*
X96165295Y-59412285D02*
X96260533Y-59412285D01*
X96260533Y-59412285D02*
X96403390Y-59459904D01*
X96403390Y-59459904D02*
X96974819Y-60031332D01*
X96974819Y-60031332D02*
X96974819Y-59412285D01*
X110374580Y-80017857D02*
X110422200Y-80065476D01*
X110422200Y-80065476D02*
X110469819Y-80208333D01*
X110469819Y-80208333D02*
X110469819Y-80303571D01*
X110469819Y-80303571D02*
X110422200Y-80446428D01*
X110422200Y-80446428D02*
X110326961Y-80541666D01*
X110326961Y-80541666D02*
X110231723Y-80589285D01*
X110231723Y-80589285D02*
X110041247Y-80636904D01*
X110041247Y-80636904D02*
X109898390Y-80636904D01*
X109898390Y-80636904D02*
X109707914Y-80589285D01*
X109707914Y-80589285D02*
X109612676Y-80541666D01*
X109612676Y-80541666D02*
X109517438Y-80446428D01*
X109517438Y-80446428D02*
X109469819Y-80303571D01*
X109469819Y-80303571D02*
X109469819Y-80208333D01*
X109469819Y-80208333D02*
X109517438Y-80065476D01*
X109517438Y-80065476D02*
X109565057Y-80017857D01*
X110469819Y-79065476D02*
X110469819Y-79636904D01*
X110469819Y-79351190D02*
X109469819Y-79351190D01*
X109469819Y-79351190D02*
X109612676Y-79446428D01*
X109612676Y-79446428D02*
X109707914Y-79541666D01*
X109707914Y-79541666D02*
X109755533Y-79636904D01*
X109469819Y-78732142D02*
X109469819Y-78065476D01*
X109469819Y-78065476D02*
X110469819Y-78494047D01*
X114133333Y-47919819D02*
X113800000Y-47443628D01*
X113561905Y-47919819D02*
X113561905Y-46919819D01*
X113561905Y-46919819D02*
X113942857Y-46919819D01*
X113942857Y-46919819D02*
X114038095Y-46967438D01*
X114038095Y-46967438D02*
X114085714Y-47015057D01*
X114085714Y-47015057D02*
X114133333Y-47110295D01*
X114133333Y-47110295D02*
X114133333Y-47253152D01*
X114133333Y-47253152D02*
X114085714Y-47348390D01*
X114085714Y-47348390D02*
X114038095Y-47396009D01*
X114038095Y-47396009D02*
X113942857Y-47443628D01*
X113942857Y-47443628D02*
X113561905Y-47443628D01*
X114704762Y-47348390D02*
X114609524Y-47300771D01*
X114609524Y-47300771D02*
X114561905Y-47253152D01*
X114561905Y-47253152D02*
X114514286Y-47157914D01*
X114514286Y-47157914D02*
X114514286Y-47110295D01*
X114514286Y-47110295D02*
X114561905Y-47015057D01*
X114561905Y-47015057D02*
X114609524Y-46967438D01*
X114609524Y-46967438D02*
X114704762Y-46919819D01*
X114704762Y-46919819D02*
X114895238Y-46919819D01*
X114895238Y-46919819D02*
X114990476Y-46967438D01*
X114990476Y-46967438D02*
X115038095Y-47015057D01*
X115038095Y-47015057D02*
X115085714Y-47110295D01*
X115085714Y-47110295D02*
X115085714Y-47157914D01*
X115085714Y-47157914D02*
X115038095Y-47253152D01*
X115038095Y-47253152D02*
X114990476Y-47300771D01*
X114990476Y-47300771D02*
X114895238Y-47348390D01*
X114895238Y-47348390D02*
X114704762Y-47348390D01*
X114704762Y-47348390D02*
X114609524Y-47396009D01*
X114609524Y-47396009D02*
X114561905Y-47443628D01*
X114561905Y-47443628D02*
X114514286Y-47538866D01*
X114514286Y-47538866D02*
X114514286Y-47729342D01*
X114514286Y-47729342D02*
X114561905Y-47824580D01*
X114561905Y-47824580D02*
X114609524Y-47872200D01*
X114609524Y-47872200D02*
X114704762Y-47919819D01*
X114704762Y-47919819D02*
X114895238Y-47919819D01*
X114895238Y-47919819D02*
X114990476Y-47872200D01*
X114990476Y-47872200D02*
X115038095Y-47824580D01*
X115038095Y-47824580D02*
X115085714Y-47729342D01*
X115085714Y-47729342D02*
X115085714Y-47538866D01*
X115085714Y-47538866D02*
X115038095Y-47443628D01*
X115038095Y-47443628D02*
X114990476Y-47396009D01*
X114990476Y-47396009D02*
X114895238Y-47348390D01*
X123055142Y-80229580D02*
X123007523Y-80277200D01*
X123007523Y-80277200D02*
X122864666Y-80324819D01*
X122864666Y-80324819D02*
X122769428Y-80324819D01*
X122769428Y-80324819D02*
X122626571Y-80277200D01*
X122626571Y-80277200D02*
X122531333Y-80181961D01*
X122531333Y-80181961D02*
X122483714Y-80086723D01*
X122483714Y-80086723D02*
X122436095Y-79896247D01*
X122436095Y-79896247D02*
X122436095Y-79753390D01*
X122436095Y-79753390D02*
X122483714Y-79562914D01*
X122483714Y-79562914D02*
X122531333Y-79467676D01*
X122531333Y-79467676D02*
X122626571Y-79372438D01*
X122626571Y-79372438D02*
X122769428Y-79324819D01*
X122769428Y-79324819D02*
X122864666Y-79324819D01*
X122864666Y-79324819D02*
X123007523Y-79372438D01*
X123007523Y-79372438D02*
X123055142Y-79420057D01*
X124007523Y-80324819D02*
X123436095Y-80324819D01*
X123721809Y-80324819D02*
X123721809Y-79324819D01*
X123721809Y-79324819D02*
X123626571Y-79467676D01*
X123626571Y-79467676D02*
X123531333Y-79562914D01*
X123531333Y-79562914D02*
X123436095Y-79610533D01*
X124483714Y-80324819D02*
X124674190Y-80324819D01*
X124674190Y-80324819D02*
X124769428Y-80277200D01*
X124769428Y-80277200D02*
X124817047Y-80229580D01*
X124817047Y-80229580D02*
X124912285Y-80086723D01*
X124912285Y-80086723D02*
X124959904Y-79896247D01*
X124959904Y-79896247D02*
X124959904Y-79515295D01*
X124959904Y-79515295D02*
X124912285Y-79420057D01*
X124912285Y-79420057D02*
X124864666Y-79372438D01*
X124864666Y-79372438D02*
X124769428Y-79324819D01*
X124769428Y-79324819D02*
X124578952Y-79324819D01*
X124578952Y-79324819D02*
X124483714Y-79372438D01*
X124483714Y-79372438D02*
X124436095Y-79420057D01*
X124436095Y-79420057D02*
X124388476Y-79515295D01*
X124388476Y-79515295D02*
X124388476Y-79753390D01*
X124388476Y-79753390D02*
X124436095Y-79848628D01*
X124436095Y-79848628D02*
X124483714Y-79896247D01*
X124483714Y-79896247D02*
X124578952Y-79943866D01*
X124578952Y-79943866D02*
X124769428Y-79943866D01*
X124769428Y-79943866D02*
X124864666Y-79896247D01*
X124864666Y-79896247D02*
X124912285Y-79848628D01*
X124912285Y-79848628D02*
X124959904Y-79753390D01*
X111593333Y-68144580D02*
X111545714Y-68192200D01*
X111545714Y-68192200D02*
X111402857Y-68239819D01*
X111402857Y-68239819D02*
X111307619Y-68239819D01*
X111307619Y-68239819D02*
X111164762Y-68192200D01*
X111164762Y-68192200D02*
X111069524Y-68096961D01*
X111069524Y-68096961D02*
X111021905Y-68001723D01*
X111021905Y-68001723D02*
X110974286Y-67811247D01*
X110974286Y-67811247D02*
X110974286Y-67668390D01*
X110974286Y-67668390D02*
X111021905Y-67477914D01*
X111021905Y-67477914D02*
X111069524Y-67382676D01*
X111069524Y-67382676D02*
X111164762Y-67287438D01*
X111164762Y-67287438D02*
X111307619Y-67239819D01*
X111307619Y-67239819D02*
X111402857Y-67239819D01*
X111402857Y-67239819D02*
X111545714Y-67287438D01*
X111545714Y-67287438D02*
X111593333Y-67335057D01*
X112069524Y-68239819D02*
X112260000Y-68239819D01*
X112260000Y-68239819D02*
X112355238Y-68192200D01*
X112355238Y-68192200D02*
X112402857Y-68144580D01*
X112402857Y-68144580D02*
X112498095Y-68001723D01*
X112498095Y-68001723D02*
X112545714Y-67811247D01*
X112545714Y-67811247D02*
X112545714Y-67430295D01*
X112545714Y-67430295D02*
X112498095Y-67335057D01*
X112498095Y-67335057D02*
X112450476Y-67287438D01*
X112450476Y-67287438D02*
X112355238Y-67239819D01*
X112355238Y-67239819D02*
X112164762Y-67239819D01*
X112164762Y-67239819D02*
X112069524Y-67287438D01*
X112069524Y-67287438D02*
X112021905Y-67335057D01*
X112021905Y-67335057D02*
X111974286Y-67430295D01*
X111974286Y-67430295D02*
X111974286Y-67668390D01*
X111974286Y-67668390D02*
X112021905Y-67763628D01*
X112021905Y-67763628D02*
X112069524Y-67811247D01*
X112069524Y-67811247D02*
X112164762Y-67858866D01*
X112164762Y-67858866D02*
X112355238Y-67858866D01*
X112355238Y-67858866D02*
X112450476Y-67811247D01*
X112450476Y-67811247D02*
X112498095Y-67763628D01*
X112498095Y-67763628D02*
X112545714Y-67668390D01*
X121158095Y-55709819D02*
X121158095Y-54709819D01*
X121158095Y-55186009D02*
X121729523Y-55186009D01*
X121729523Y-55709819D02*
X121729523Y-54709819D01*
X122158095Y-54805057D02*
X122205714Y-54757438D01*
X122205714Y-54757438D02*
X122300952Y-54709819D01*
X122300952Y-54709819D02*
X122539047Y-54709819D01*
X122539047Y-54709819D02*
X122634285Y-54757438D01*
X122634285Y-54757438D02*
X122681904Y-54805057D01*
X122681904Y-54805057D02*
X122729523Y-54900295D01*
X122729523Y-54900295D02*
X122729523Y-54995533D01*
X122729523Y-54995533D02*
X122681904Y-55138390D01*
X122681904Y-55138390D02*
X122110476Y-55709819D01*
X122110476Y-55709819D02*
X122729523Y-55709819D01*
X100849580Y-63666666D02*
X100897200Y-63714285D01*
X100897200Y-63714285D02*
X100944819Y-63857142D01*
X100944819Y-63857142D02*
X100944819Y-63952380D01*
X100944819Y-63952380D02*
X100897200Y-64095237D01*
X100897200Y-64095237D02*
X100801961Y-64190475D01*
X100801961Y-64190475D02*
X100706723Y-64238094D01*
X100706723Y-64238094D02*
X100516247Y-64285713D01*
X100516247Y-64285713D02*
X100373390Y-64285713D01*
X100373390Y-64285713D02*
X100182914Y-64238094D01*
X100182914Y-64238094D02*
X100087676Y-64190475D01*
X100087676Y-64190475D02*
X99992438Y-64095237D01*
X99992438Y-64095237D02*
X99944819Y-63952380D01*
X99944819Y-63952380D02*
X99944819Y-63857142D01*
X99944819Y-63857142D02*
X99992438Y-63714285D01*
X99992438Y-63714285D02*
X100040057Y-63666666D01*
X100278152Y-62809523D02*
X100944819Y-62809523D01*
X99897200Y-63047618D02*
X100611485Y-63285713D01*
X100611485Y-63285713D02*
X100611485Y-62666666D01*
X95544819Y-68111666D02*
X95068628Y-68444999D01*
X95544819Y-68683094D02*
X94544819Y-68683094D01*
X94544819Y-68683094D02*
X94544819Y-68302142D01*
X94544819Y-68302142D02*
X94592438Y-68206904D01*
X94592438Y-68206904D02*
X94640057Y-68159285D01*
X94640057Y-68159285D02*
X94735295Y-68111666D01*
X94735295Y-68111666D02*
X94878152Y-68111666D01*
X94878152Y-68111666D02*
X94973390Y-68159285D01*
X94973390Y-68159285D02*
X95021009Y-68206904D01*
X95021009Y-68206904D02*
X95068628Y-68302142D01*
X95068628Y-68302142D02*
X95068628Y-68683094D01*
X94544819Y-67254523D02*
X94544819Y-67444999D01*
X94544819Y-67444999D02*
X94592438Y-67540237D01*
X94592438Y-67540237D02*
X94640057Y-67587856D01*
X94640057Y-67587856D02*
X94782914Y-67683094D01*
X94782914Y-67683094D02*
X94973390Y-67730713D01*
X94973390Y-67730713D02*
X95354342Y-67730713D01*
X95354342Y-67730713D02*
X95449580Y-67683094D01*
X95449580Y-67683094D02*
X95497200Y-67635475D01*
X95497200Y-67635475D02*
X95544819Y-67540237D01*
X95544819Y-67540237D02*
X95544819Y-67349761D01*
X95544819Y-67349761D02*
X95497200Y-67254523D01*
X95497200Y-67254523D02*
X95449580Y-67206904D01*
X95449580Y-67206904D02*
X95354342Y-67159285D01*
X95354342Y-67159285D02*
X95116247Y-67159285D01*
X95116247Y-67159285D02*
X95021009Y-67206904D01*
X95021009Y-67206904D02*
X94973390Y-67254523D01*
X94973390Y-67254523D02*
X94925771Y-67349761D01*
X94925771Y-67349761D02*
X94925771Y-67540237D01*
X94925771Y-67540237D02*
X94973390Y-67635475D01*
X94973390Y-67635475D02*
X95021009Y-67683094D01*
X95021009Y-67683094D02*
X95116247Y-67730713D01*
X105751333Y-74937580D02*
X105703714Y-74985200D01*
X105703714Y-74985200D02*
X105560857Y-75032819D01*
X105560857Y-75032819D02*
X105465619Y-75032819D01*
X105465619Y-75032819D02*
X105322762Y-74985200D01*
X105322762Y-74985200D02*
X105227524Y-74889961D01*
X105227524Y-74889961D02*
X105179905Y-74794723D01*
X105179905Y-74794723D02*
X105132286Y-74604247D01*
X105132286Y-74604247D02*
X105132286Y-74461390D01*
X105132286Y-74461390D02*
X105179905Y-74270914D01*
X105179905Y-74270914D02*
X105227524Y-74175676D01*
X105227524Y-74175676D02*
X105322762Y-74080438D01*
X105322762Y-74080438D02*
X105465619Y-74032819D01*
X105465619Y-74032819D02*
X105560857Y-74032819D01*
X105560857Y-74032819D02*
X105703714Y-74080438D01*
X105703714Y-74080438D02*
X105751333Y-74128057D01*
X106322762Y-74461390D02*
X106227524Y-74413771D01*
X106227524Y-74413771D02*
X106179905Y-74366152D01*
X106179905Y-74366152D02*
X106132286Y-74270914D01*
X106132286Y-74270914D02*
X106132286Y-74223295D01*
X106132286Y-74223295D02*
X106179905Y-74128057D01*
X106179905Y-74128057D02*
X106227524Y-74080438D01*
X106227524Y-74080438D02*
X106322762Y-74032819D01*
X106322762Y-74032819D02*
X106513238Y-74032819D01*
X106513238Y-74032819D02*
X106608476Y-74080438D01*
X106608476Y-74080438D02*
X106656095Y-74128057D01*
X106656095Y-74128057D02*
X106703714Y-74223295D01*
X106703714Y-74223295D02*
X106703714Y-74270914D01*
X106703714Y-74270914D02*
X106656095Y-74366152D01*
X106656095Y-74366152D02*
X106608476Y-74413771D01*
X106608476Y-74413771D02*
X106513238Y-74461390D01*
X106513238Y-74461390D02*
X106322762Y-74461390D01*
X106322762Y-74461390D02*
X106227524Y-74509009D01*
X106227524Y-74509009D02*
X106179905Y-74556628D01*
X106179905Y-74556628D02*
X106132286Y-74651866D01*
X106132286Y-74651866D02*
X106132286Y-74842342D01*
X106132286Y-74842342D02*
X106179905Y-74937580D01*
X106179905Y-74937580D02*
X106227524Y-74985200D01*
X106227524Y-74985200D02*
X106322762Y-75032819D01*
X106322762Y-75032819D02*
X106513238Y-75032819D01*
X106513238Y-75032819D02*
X106608476Y-74985200D01*
X106608476Y-74985200D02*
X106656095Y-74937580D01*
X106656095Y-74937580D02*
X106703714Y-74842342D01*
X106703714Y-74842342D02*
X106703714Y-74651866D01*
X106703714Y-74651866D02*
X106656095Y-74556628D01*
X106656095Y-74556628D02*
X106608476Y-74509009D01*
X106608476Y-74509009D02*
X106513238Y-74461390D01*
X129391580Y-86494857D02*
X129439200Y-86542476D01*
X129439200Y-86542476D02*
X129486819Y-86685333D01*
X129486819Y-86685333D02*
X129486819Y-86780571D01*
X129486819Y-86780571D02*
X129439200Y-86923428D01*
X129439200Y-86923428D02*
X129343961Y-87018666D01*
X129343961Y-87018666D02*
X129248723Y-87066285D01*
X129248723Y-87066285D02*
X129058247Y-87113904D01*
X129058247Y-87113904D02*
X128915390Y-87113904D01*
X128915390Y-87113904D02*
X128724914Y-87066285D01*
X128724914Y-87066285D02*
X128629676Y-87018666D01*
X128629676Y-87018666D02*
X128534438Y-86923428D01*
X128534438Y-86923428D02*
X128486819Y-86780571D01*
X128486819Y-86780571D02*
X128486819Y-86685333D01*
X128486819Y-86685333D02*
X128534438Y-86542476D01*
X128534438Y-86542476D02*
X128582057Y-86494857D01*
X129486819Y-85542476D02*
X129486819Y-86113904D01*
X129486819Y-85828190D02*
X128486819Y-85828190D01*
X128486819Y-85828190D02*
X128629676Y-85923428D01*
X128629676Y-85923428D02*
X128724914Y-86018666D01*
X128724914Y-86018666D02*
X128772533Y-86113904D01*
X128486819Y-84637714D02*
X128486819Y-85113904D01*
X128486819Y-85113904D02*
X128963009Y-85161523D01*
X128963009Y-85161523D02*
X128915390Y-85113904D01*
X128915390Y-85113904D02*
X128867771Y-85018666D01*
X128867771Y-85018666D02*
X128867771Y-84780571D01*
X128867771Y-84780571D02*
X128915390Y-84685333D01*
X128915390Y-84685333D02*
X128963009Y-84637714D01*
X128963009Y-84637714D02*
X129058247Y-84590095D01*
X129058247Y-84590095D02*
X129296342Y-84590095D01*
X129296342Y-84590095D02*
X129391580Y-84637714D01*
X129391580Y-84637714D02*
X129439200Y-84685333D01*
X129439200Y-84685333D02*
X129486819Y-84780571D01*
X129486819Y-84780571D02*
X129486819Y-85018666D01*
X129486819Y-85018666D02*
X129439200Y-85113904D01*
X129439200Y-85113904D02*
X129391580Y-85161523D01*
X122293142Y-63787580D02*
X122245523Y-63835200D01*
X122245523Y-63835200D02*
X122102666Y-63882819D01*
X122102666Y-63882819D02*
X122007428Y-63882819D01*
X122007428Y-63882819D02*
X121864571Y-63835200D01*
X121864571Y-63835200D02*
X121769333Y-63739961D01*
X121769333Y-63739961D02*
X121721714Y-63644723D01*
X121721714Y-63644723D02*
X121674095Y-63454247D01*
X121674095Y-63454247D02*
X121674095Y-63311390D01*
X121674095Y-63311390D02*
X121721714Y-63120914D01*
X121721714Y-63120914D02*
X121769333Y-63025676D01*
X121769333Y-63025676D02*
X121864571Y-62930438D01*
X121864571Y-62930438D02*
X122007428Y-62882819D01*
X122007428Y-62882819D02*
X122102666Y-62882819D01*
X122102666Y-62882819D02*
X122245523Y-62930438D01*
X122245523Y-62930438D02*
X122293142Y-62978057D01*
X123245523Y-63882819D02*
X122674095Y-63882819D01*
X122959809Y-63882819D02*
X122959809Y-62882819D01*
X122959809Y-62882819D02*
X122864571Y-63025676D01*
X122864571Y-63025676D02*
X122769333Y-63120914D01*
X122769333Y-63120914D02*
X122674095Y-63168533D01*
X124197904Y-63882819D02*
X123626476Y-63882819D01*
X123912190Y-63882819D02*
X123912190Y-62882819D01*
X123912190Y-62882819D02*
X123816952Y-63025676D01*
X123816952Y-63025676D02*
X123721714Y-63120914D01*
X123721714Y-63120914D02*
X123626476Y-63168533D01*
X103323580Y-76334857D02*
X103371200Y-76382476D01*
X103371200Y-76382476D02*
X103418819Y-76525333D01*
X103418819Y-76525333D02*
X103418819Y-76620571D01*
X103418819Y-76620571D02*
X103371200Y-76763428D01*
X103371200Y-76763428D02*
X103275961Y-76858666D01*
X103275961Y-76858666D02*
X103180723Y-76906285D01*
X103180723Y-76906285D02*
X102990247Y-76953904D01*
X102990247Y-76953904D02*
X102847390Y-76953904D01*
X102847390Y-76953904D02*
X102656914Y-76906285D01*
X102656914Y-76906285D02*
X102561676Y-76858666D01*
X102561676Y-76858666D02*
X102466438Y-76763428D01*
X102466438Y-76763428D02*
X102418819Y-76620571D01*
X102418819Y-76620571D02*
X102418819Y-76525333D01*
X102418819Y-76525333D02*
X102466438Y-76382476D01*
X102466438Y-76382476D02*
X102514057Y-76334857D01*
X103418819Y-75382476D02*
X103418819Y-75953904D01*
X103418819Y-75668190D02*
X102418819Y-75668190D01*
X102418819Y-75668190D02*
X102561676Y-75763428D01*
X102561676Y-75763428D02*
X102656914Y-75858666D01*
X102656914Y-75858666D02*
X102704533Y-75953904D01*
X102418819Y-75049142D02*
X102418819Y-74430095D01*
X102418819Y-74430095D02*
X102799771Y-74763428D01*
X102799771Y-74763428D02*
X102799771Y-74620571D01*
X102799771Y-74620571D02*
X102847390Y-74525333D01*
X102847390Y-74525333D02*
X102895009Y-74477714D01*
X102895009Y-74477714D02*
X102990247Y-74430095D01*
X102990247Y-74430095D02*
X103228342Y-74430095D01*
X103228342Y-74430095D02*
X103323580Y-74477714D01*
X103323580Y-74477714D02*
X103371200Y-74525333D01*
X103371200Y-74525333D02*
X103418819Y-74620571D01*
X103418819Y-74620571D02*
X103418819Y-74906285D01*
X103418819Y-74906285D02*
X103371200Y-75001523D01*
X103371200Y-75001523D02*
X103323580Y-75049142D01*
X110958333Y-57164819D02*
X110482143Y-57164819D01*
X110482143Y-57164819D02*
X110482143Y-56164819D01*
X111815476Y-57164819D02*
X111244048Y-57164819D01*
X111529762Y-57164819D02*
X111529762Y-56164819D01*
X111529762Y-56164819D02*
X111434524Y-56307676D01*
X111434524Y-56307676D02*
X111339286Y-56402914D01*
X111339286Y-56402914D02*
X111244048Y-56450533D01*
X122293142Y-74433580D02*
X122245523Y-74481200D01*
X122245523Y-74481200D02*
X122102666Y-74528819D01*
X122102666Y-74528819D02*
X122007428Y-74528819D01*
X122007428Y-74528819D02*
X121864571Y-74481200D01*
X121864571Y-74481200D02*
X121769333Y-74385961D01*
X121769333Y-74385961D02*
X121721714Y-74290723D01*
X121721714Y-74290723D02*
X121674095Y-74100247D01*
X121674095Y-74100247D02*
X121674095Y-73957390D01*
X121674095Y-73957390D02*
X121721714Y-73766914D01*
X121721714Y-73766914D02*
X121769333Y-73671676D01*
X121769333Y-73671676D02*
X121864571Y-73576438D01*
X121864571Y-73576438D02*
X122007428Y-73528819D01*
X122007428Y-73528819D02*
X122102666Y-73528819D01*
X122102666Y-73528819D02*
X122245523Y-73576438D01*
X122245523Y-73576438D02*
X122293142Y-73624057D01*
X123245523Y-74528819D02*
X122674095Y-74528819D01*
X122959809Y-74528819D02*
X122959809Y-73528819D01*
X122959809Y-73528819D02*
X122864571Y-73671676D01*
X122864571Y-73671676D02*
X122769333Y-73766914D01*
X122769333Y-73766914D02*
X122674095Y-73814533D01*
X124102666Y-73862152D02*
X124102666Y-74528819D01*
X123864571Y-73481200D02*
X123626476Y-74195485D01*
X123626476Y-74195485D02*
X124245523Y-74195485D01*
X87971333Y-71574819D02*
X87638000Y-71098628D01*
X87399905Y-71574819D02*
X87399905Y-70574819D01*
X87399905Y-70574819D02*
X87780857Y-70574819D01*
X87780857Y-70574819D02*
X87876095Y-70622438D01*
X87876095Y-70622438D02*
X87923714Y-70670057D01*
X87923714Y-70670057D02*
X87971333Y-70765295D01*
X87971333Y-70765295D02*
X87971333Y-70908152D01*
X87971333Y-70908152D02*
X87923714Y-71003390D01*
X87923714Y-71003390D02*
X87876095Y-71051009D01*
X87876095Y-71051009D02*
X87780857Y-71098628D01*
X87780857Y-71098628D02*
X87399905Y-71098628D01*
X88304667Y-70574819D02*
X88923714Y-70574819D01*
X88923714Y-70574819D02*
X88590381Y-70955771D01*
X88590381Y-70955771D02*
X88733238Y-70955771D01*
X88733238Y-70955771D02*
X88828476Y-71003390D01*
X88828476Y-71003390D02*
X88876095Y-71051009D01*
X88876095Y-71051009D02*
X88923714Y-71146247D01*
X88923714Y-71146247D02*
X88923714Y-71384342D01*
X88923714Y-71384342D02*
X88876095Y-71479580D01*
X88876095Y-71479580D02*
X88828476Y-71527200D01*
X88828476Y-71527200D02*
X88733238Y-71574819D01*
X88733238Y-71574819D02*
X88447524Y-71574819D01*
X88447524Y-71574819D02*
X88352286Y-71527200D01*
X88352286Y-71527200D02*
X88304667Y-71479580D01*
X102214819Y-85097857D02*
X101738628Y-85431190D01*
X102214819Y-85669285D02*
X101214819Y-85669285D01*
X101214819Y-85669285D02*
X101214819Y-85288333D01*
X101214819Y-85288333D02*
X101262438Y-85193095D01*
X101262438Y-85193095D02*
X101310057Y-85145476D01*
X101310057Y-85145476D02*
X101405295Y-85097857D01*
X101405295Y-85097857D02*
X101548152Y-85097857D01*
X101548152Y-85097857D02*
X101643390Y-85145476D01*
X101643390Y-85145476D02*
X101691009Y-85193095D01*
X101691009Y-85193095D02*
X101738628Y-85288333D01*
X101738628Y-85288333D02*
X101738628Y-85669285D01*
X101310057Y-84716904D02*
X101262438Y-84669285D01*
X101262438Y-84669285D02*
X101214819Y-84574047D01*
X101214819Y-84574047D02*
X101214819Y-84335952D01*
X101214819Y-84335952D02*
X101262438Y-84240714D01*
X101262438Y-84240714D02*
X101310057Y-84193095D01*
X101310057Y-84193095D02*
X101405295Y-84145476D01*
X101405295Y-84145476D02*
X101500533Y-84145476D01*
X101500533Y-84145476D02*
X101643390Y-84193095D01*
X101643390Y-84193095D02*
X102214819Y-84764523D01*
X102214819Y-84764523D02*
X102214819Y-84145476D01*
X101310057Y-83764523D02*
X101262438Y-83716904D01*
X101262438Y-83716904D02*
X101214819Y-83621666D01*
X101214819Y-83621666D02*
X101214819Y-83383571D01*
X101214819Y-83383571D02*
X101262438Y-83288333D01*
X101262438Y-83288333D02*
X101310057Y-83240714D01*
X101310057Y-83240714D02*
X101405295Y-83193095D01*
X101405295Y-83193095D02*
X101500533Y-83193095D01*
X101500533Y-83193095D02*
X101643390Y-83240714D01*
X101643390Y-83240714D02*
X102214819Y-83812142D01*
X102214819Y-83812142D02*
X102214819Y-83193095D01*
X114927142Y-71704580D02*
X114879523Y-71752200D01*
X114879523Y-71752200D02*
X114736666Y-71799819D01*
X114736666Y-71799819D02*
X114641428Y-71799819D01*
X114641428Y-71799819D02*
X114498571Y-71752200D01*
X114498571Y-71752200D02*
X114403333Y-71656961D01*
X114403333Y-71656961D02*
X114355714Y-71561723D01*
X114355714Y-71561723D02*
X114308095Y-71371247D01*
X114308095Y-71371247D02*
X114308095Y-71228390D01*
X114308095Y-71228390D02*
X114355714Y-71037914D01*
X114355714Y-71037914D02*
X114403333Y-70942676D01*
X114403333Y-70942676D02*
X114498571Y-70847438D01*
X114498571Y-70847438D02*
X114641428Y-70799819D01*
X114641428Y-70799819D02*
X114736666Y-70799819D01*
X114736666Y-70799819D02*
X114879523Y-70847438D01*
X114879523Y-70847438D02*
X114927142Y-70895057D01*
X115879523Y-71799819D02*
X115308095Y-71799819D01*
X115593809Y-71799819D02*
X115593809Y-70799819D01*
X115593809Y-70799819D02*
X115498571Y-70942676D01*
X115498571Y-70942676D02*
X115403333Y-71037914D01*
X115403333Y-71037914D02*
X115308095Y-71085533D01*
X116450952Y-71228390D02*
X116355714Y-71180771D01*
X116355714Y-71180771D02*
X116308095Y-71133152D01*
X116308095Y-71133152D02*
X116260476Y-71037914D01*
X116260476Y-71037914D02*
X116260476Y-70990295D01*
X116260476Y-70990295D02*
X116308095Y-70895057D01*
X116308095Y-70895057D02*
X116355714Y-70847438D01*
X116355714Y-70847438D02*
X116450952Y-70799819D01*
X116450952Y-70799819D02*
X116641428Y-70799819D01*
X116641428Y-70799819D02*
X116736666Y-70847438D01*
X116736666Y-70847438D02*
X116784285Y-70895057D01*
X116784285Y-70895057D02*
X116831904Y-70990295D01*
X116831904Y-70990295D02*
X116831904Y-71037914D01*
X116831904Y-71037914D02*
X116784285Y-71133152D01*
X116784285Y-71133152D02*
X116736666Y-71180771D01*
X116736666Y-71180771D02*
X116641428Y-71228390D01*
X116641428Y-71228390D02*
X116450952Y-71228390D01*
X116450952Y-71228390D02*
X116355714Y-71276009D01*
X116355714Y-71276009D02*
X116308095Y-71323628D01*
X116308095Y-71323628D02*
X116260476Y-71418866D01*
X116260476Y-71418866D02*
X116260476Y-71609342D01*
X116260476Y-71609342D02*
X116308095Y-71704580D01*
X116308095Y-71704580D02*
X116355714Y-71752200D01*
X116355714Y-71752200D02*
X116450952Y-71799819D01*
X116450952Y-71799819D02*
X116641428Y-71799819D01*
X116641428Y-71799819D02*
X116736666Y-71752200D01*
X116736666Y-71752200D02*
X116784285Y-71704580D01*
X116784285Y-71704580D02*
X116831904Y-71609342D01*
X116831904Y-71609342D02*
X116831904Y-71418866D01*
X116831904Y-71418866D02*
X116784285Y-71323628D01*
X116784285Y-71323628D02*
X116736666Y-71276009D01*
X116736666Y-71276009D02*
X116641428Y-71228390D01*
X114151580Y-69857857D02*
X114199200Y-69905476D01*
X114199200Y-69905476D02*
X114246819Y-70048333D01*
X114246819Y-70048333D02*
X114246819Y-70143571D01*
X114246819Y-70143571D02*
X114199200Y-70286428D01*
X114199200Y-70286428D02*
X114103961Y-70381666D01*
X114103961Y-70381666D02*
X114008723Y-70429285D01*
X114008723Y-70429285D02*
X113818247Y-70476904D01*
X113818247Y-70476904D02*
X113675390Y-70476904D01*
X113675390Y-70476904D02*
X113484914Y-70429285D01*
X113484914Y-70429285D02*
X113389676Y-70381666D01*
X113389676Y-70381666D02*
X113294438Y-70286428D01*
X113294438Y-70286428D02*
X113246819Y-70143571D01*
X113246819Y-70143571D02*
X113246819Y-70048333D01*
X113246819Y-70048333D02*
X113294438Y-69905476D01*
X113294438Y-69905476D02*
X113342057Y-69857857D01*
X114246819Y-68905476D02*
X114246819Y-69476904D01*
X114246819Y-69191190D02*
X113246819Y-69191190D01*
X113246819Y-69191190D02*
X113389676Y-69286428D01*
X113389676Y-69286428D02*
X113484914Y-69381666D01*
X113484914Y-69381666D02*
X113532533Y-69476904D01*
X113246819Y-68048333D02*
X113246819Y-68238809D01*
X113246819Y-68238809D02*
X113294438Y-68334047D01*
X113294438Y-68334047D02*
X113342057Y-68381666D01*
X113342057Y-68381666D02*
X113484914Y-68476904D01*
X113484914Y-68476904D02*
X113675390Y-68524523D01*
X113675390Y-68524523D02*
X114056342Y-68524523D01*
X114056342Y-68524523D02*
X114151580Y-68476904D01*
X114151580Y-68476904D02*
X114199200Y-68429285D01*
X114199200Y-68429285D02*
X114246819Y-68334047D01*
X114246819Y-68334047D02*
X114246819Y-68143571D01*
X114246819Y-68143571D02*
X114199200Y-68048333D01*
X114199200Y-68048333D02*
X114151580Y-68000714D01*
X114151580Y-68000714D02*
X114056342Y-67953095D01*
X114056342Y-67953095D02*
X113818247Y-67953095D01*
X113818247Y-67953095D02*
X113723009Y-68000714D01*
X113723009Y-68000714D02*
X113675390Y-68048333D01*
X113675390Y-68048333D02*
X113627771Y-68143571D01*
X113627771Y-68143571D02*
X113627771Y-68334047D01*
X113627771Y-68334047D02*
X113675390Y-68429285D01*
X113675390Y-68429285D02*
X113723009Y-68476904D01*
X113723009Y-68476904D02*
X113818247Y-68524523D01*
X106513333Y-47919819D02*
X106180000Y-47443628D01*
X105941905Y-47919819D02*
X105941905Y-46919819D01*
X105941905Y-46919819D02*
X106322857Y-46919819D01*
X106322857Y-46919819D02*
X106418095Y-46967438D01*
X106418095Y-46967438D02*
X106465714Y-47015057D01*
X106465714Y-47015057D02*
X106513333Y-47110295D01*
X106513333Y-47110295D02*
X106513333Y-47253152D01*
X106513333Y-47253152D02*
X106465714Y-47348390D01*
X106465714Y-47348390D02*
X106418095Y-47396009D01*
X106418095Y-47396009D02*
X106322857Y-47443628D01*
X106322857Y-47443628D02*
X105941905Y-47443628D01*
X107418095Y-46919819D02*
X106941905Y-46919819D01*
X106941905Y-46919819D02*
X106894286Y-47396009D01*
X106894286Y-47396009D02*
X106941905Y-47348390D01*
X106941905Y-47348390D02*
X107037143Y-47300771D01*
X107037143Y-47300771D02*
X107275238Y-47300771D01*
X107275238Y-47300771D02*
X107370476Y-47348390D01*
X107370476Y-47348390D02*
X107418095Y-47396009D01*
X107418095Y-47396009D02*
X107465714Y-47491247D01*
X107465714Y-47491247D02*
X107465714Y-47729342D01*
X107465714Y-47729342D02*
X107418095Y-47824580D01*
X107418095Y-47824580D02*
X107370476Y-47872200D01*
X107370476Y-47872200D02*
X107275238Y-47919819D01*
X107275238Y-47919819D02*
X107037143Y-47919819D01*
X107037143Y-47919819D02*
X106941905Y-47872200D01*
X106941905Y-47872200D02*
X106894286Y-47824580D01*
X108735905Y-69724819D02*
X108735905Y-68724819D01*
X108735905Y-68724819D02*
X108974000Y-68724819D01*
X108974000Y-68724819D02*
X109116857Y-68772438D01*
X109116857Y-68772438D02*
X109212095Y-68867676D01*
X109212095Y-68867676D02*
X109259714Y-68962914D01*
X109259714Y-68962914D02*
X109307333Y-69153390D01*
X109307333Y-69153390D02*
X109307333Y-69296247D01*
X109307333Y-69296247D02*
X109259714Y-69486723D01*
X109259714Y-69486723D02*
X109212095Y-69581961D01*
X109212095Y-69581961D02*
X109116857Y-69677200D01*
X109116857Y-69677200D02*
X108974000Y-69724819D01*
X108974000Y-69724819D02*
X108735905Y-69724819D01*
X110259714Y-69724819D02*
X109688286Y-69724819D01*
X109974000Y-69724819D02*
X109974000Y-68724819D01*
X109974000Y-68724819D02*
X109878762Y-68867676D01*
X109878762Y-68867676D02*
X109783524Y-68962914D01*
X109783524Y-68962914D02*
X109688286Y-69010533D01*
X109420819Y-49188666D02*
X108944628Y-49521999D01*
X109420819Y-49760094D02*
X108420819Y-49760094D01*
X108420819Y-49760094D02*
X108420819Y-49379142D01*
X108420819Y-49379142D02*
X108468438Y-49283904D01*
X108468438Y-49283904D02*
X108516057Y-49236285D01*
X108516057Y-49236285D02*
X108611295Y-49188666D01*
X108611295Y-49188666D02*
X108754152Y-49188666D01*
X108754152Y-49188666D02*
X108849390Y-49236285D01*
X108849390Y-49236285D02*
X108897009Y-49283904D01*
X108897009Y-49283904D02*
X108944628Y-49379142D01*
X108944628Y-49379142D02*
X108944628Y-49760094D01*
X108754152Y-48331523D02*
X109420819Y-48331523D01*
X108373200Y-48569618D02*
X109087485Y-48807713D01*
X109087485Y-48807713D02*
X109087485Y-48188666D01*
X128698666Y-77022819D02*
X128698666Y-77737104D01*
X128698666Y-77737104D02*
X128651047Y-77879961D01*
X128651047Y-77879961D02*
X128555809Y-77975200D01*
X128555809Y-77975200D02*
X128412952Y-78022819D01*
X128412952Y-78022819D02*
X128317714Y-78022819D01*
X129603428Y-77022819D02*
X129412952Y-77022819D01*
X129412952Y-77022819D02*
X129317714Y-77070438D01*
X129317714Y-77070438D02*
X129270095Y-77118057D01*
X129270095Y-77118057D02*
X129174857Y-77260914D01*
X129174857Y-77260914D02*
X129127238Y-77451390D01*
X129127238Y-77451390D02*
X129127238Y-77832342D01*
X129127238Y-77832342D02*
X129174857Y-77927580D01*
X129174857Y-77927580D02*
X129222476Y-77975200D01*
X129222476Y-77975200D02*
X129317714Y-78022819D01*
X129317714Y-78022819D02*
X129508190Y-78022819D01*
X129508190Y-78022819D02*
X129603428Y-77975200D01*
X129603428Y-77975200D02*
X129651047Y-77927580D01*
X129651047Y-77927580D02*
X129698666Y-77832342D01*
X129698666Y-77832342D02*
X129698666Y-77594247D01*
X129698666Y-77594247D02*
X129651047Y-77499009D01*
X129651047Y-77499009D02*
X129603428Y-77451390D01*
X129603428Y-77451390D02*
X129508190Y-77403771D01*
X129508190Y-77403771D02*
X129317714Y-77403771D01*
X129317714Y-77403771D02*
X129222476Y-77451390D01*
X129222476Y-77451390D02*
X129174857Y-77499009D01*
X129174857Y-77499009D02*
X129127238Y-77594247D01*
X90638333Y-68144580D02*
X90590714Y-68192200D01*
X90590714Y-68192200D02*
X90447857Y-68239819D01*
X90447857Y-68239819D02*
X90352619Y-68239819D01*
X90352619Y-68239819D02*
X90209762Y-68192200D01*
X90209762Y-68192200D02*
X90114524Y-68096961D01*
X90114524Y-68096961D02*
X90066905Y-68001723D01*
X90066905Y-68001723D02*
X90019286Y-67811247D01*
X90019286Y-67811247D02*
X90019286Y-67668390D01*
X90019286Y-67668390D02*
X90066905Y-67477914D01*
X90066905Y-67477914D02*
X90114524Y-67382676D01*
X90114524Y-67382676D02*
X90209762Y-67287438D01*
X90209762Y-67287438D02*
X90352619Y-67239819D01*
X90352619Y-67239819D02*
X90447857Y-67239819D01*
X90447857Y-67239819D02*
X90590714Y-67287438D01*
X90590714Y-67287438D02*
X90638333Y-67335057D01*
X91543095Y-67239819D02*
X91066905Y-67239819D01*
X91066905Y-67239819D02*
X91019286Y-67716009D01*
X91019286Y-67716009D02*
X91066905Y-67668390D01*
X91066905Y-67668390D02*
X91162143Y-67620771D01*
X91162143Y-67620771D02*
X91400238Y-67620771D01*
X91400238Y-67620771D02*
X91495476Y-67668390D01*
X91495476Y-67668390D02*
X91543095Y-67716009D01*
X91543095Y-67716009D02*
X91590714Y-67811247D01*
X91590714Y-67811247D02*
X91590714Y-68049342D01*
X91590714Y-68049342D02*
X91543095Y-68144580D01*
X91543095Y-68144580D02*
X91495476Y-68192200D01*
X91495476Y-68192200D02*
X91400238Y-68239819D01*
X91400238Y-68239819D02*
X91162143Y-68239819D01*
X91162143Y-68239819D02*
X91066905Y-68192200D01*
X91066905Y-68192200D02*
X91019286Y-68144580D01*
X93646666Y-48984819D02*
X93646666Y-49699104D01*
X93646666Y-49699104D02*
X93599047Y-49841961D01*
X93599047Y-49841961D02*
X93503809Y-49937200D01*
X93503809Y-49937200D02*
X93360952Y-49984819D01*
X93360952Y-49984819D02*
X93265714Y-49984819D01*
X94646666Y-49984819D02*
X94075238Y-49984819D01*
X94360952Y-49984819D02*
X94360952Y-48984819D01*
X94360952Y-48984819D02*
X94265714Y-49127676D01*
X94265714Y-49127676D02*
X94170476Y-49222914D01*
X94170476Y-49222914D02*
X94075238Y-49270533D01*
X109294819Y-89542857D02*
X108818628Y-89876190D01*
X109294819Y-90114285D02*
X108294819Y-90114285D01*
X108294819Y-90114285D02*
X108294819Y-89733333D01*
X108294819Y-89733333D02*
X108342438Y-89638095D01*
X108342438Y-89638095D02*
X108390057Y-89590476D01*
X108390057Y-89590476D02*
X108485295Y-89542857D01*
X108485295Y-89542857D02*
X108628152Y-89542857D01*
X108628152Y-89542857D02*
X108723390Y-89590476D01*
X108723390Y-89590476D02*
X108771009Y-89638095D01*
X108771009Y-89638095D02*
X108818628Y-89733333D01*
X108818628Y-89733333D02*
X108818628Y-90114285D01*
X109294819Y-88590476D02*
X109294819Y-89161904D01*
X109294819Y-88876190D02*
X108294819Y-88876190D01*
X108294819Y-88876190D02*
X108437676Y-88971428D01*
X108437676Y-88971428D02*
X108532914Y-89066666D01*
X108532914Y-89066666D02*
X108580533Y-89161904D01*
X109294819Y-87638095D02*
X109294819Y-88209523D01*
X109294819Y-87923809D02*
X108294819Y-87923809D01*
X108294819Y-87923809D02*
X108437676Y-88019047D01*
X108437676Y-88019047D02*
X108532914Y-88114285D01*
X108532914Y-88114285D02*
X108580533Y-88209523D01*
X103211333Y-63296580D02*
X103163714Y-63344200D01*
X103163714Y-63344200D02*
X103020857Y-63391819D01*
X103020857Y-63391819D02*
X102925619Y-63391819D01*
X102925619Y-63391819D02*
X102782762Y-63344200D01*
X102782762Y-63344200D02*
X102687524Y-63248961D01*
X102687524Y-63248961D02*
X102639905Y-63153723D01*
X102639905Y-63153723D02*
X102592286Y-62963247D01*
X102592286Y-62963247D02*
X102592286Y-62820390D01*
X102592286Y-62820390D02*
X102639905Y-62629914D01*
X102639905Y-62629914D02*
X102687524Y-62534676D01*
X102687524Y-62534676D02*
X102782762Y-62439438D01*
X102782762Y-62439438D02*
X102925619Y-62391819D01*
X102925619Y-62391819D02*
X103020857Y-62391819D01*
X103020857Y-62391819D02*
X103163714Y-62439438D01*
X103163714Y-62439438D02*
X103211333Y-62487057D01*
X103592286Y-62487057D02*
X103639905Y-62439438D01*
X103639905Y-62439438D02*
X103735143Y-62391819D01*
X103735143Y-62391819D02*
X103973238Y-62391819D01*
X103973238Y-62391819D02*
X104068476Y-62439438D01*
X104068476Y-62439438D02*
X104116095Y-62487057D01*
X104116095Y-62487057D02*
X104163714Y-62582295D01*
X104163714Y-62582295D02*
X104163714Y-62677533D01*
X104163714Y-62677533D02*
X104116095Y-62820390D01*
X104116095Y-62820390D02*
X103544667Y-63391819D01*
X103544667Y-63391819D02*
X104163714Y-63391819D01*
X104340819Y-85097857D02*
X103864628Y-85431190D01*
X104340819Y-85669285D02*
X103340819Y-85669285D01*
X103340819Y-85669285D02*
X103340819Y-85288333D01*
X103340819Y-85288333D02*
X103388438Y-85193095D01*
X103388438Y-85193095D02*
X103436057Y-85145476D01*
X103436057Y-85145476D02*
X103531295Y-85097857D01*
X103531295Y-85097857D02*
X103674152Y-85097857D01*
X103674152Y-85097857D02*
X103769390Y-85145476D01*
X103769390Y-85145476D02*
X103817009Y-85193095D01*
X103817009Y-85193095D02*
X103864628Y-85288333D01*
X103864628Y-85288333D02*
X103864628Y-85669285D01*
X104340819Y-84145476D02*
X104340819Y-84716904D01*
X104340819Y-84431190D02*
X103340819Y-84431190D01*
X103340819Y-84431190D02*
X103483676Y-84526428D01*
X103483676Y-84526428D02*
X103578914Y-84621666D01*
X103578914Y-84621666D02*
X103626533Y-84716904D01*
X103340819Y-83288333D02*
X103340819Y-83478809D01*
X103340819Y-83478809D02*
X103388438Y-83574047D01*
X103388438Y-83574047D02*
X103436057Y-83621666D01*
X103436057Y-83621666D02*
X103578914Y-83716904D01*
X103578914Y-83716904D02*
X103769390Y-83764523D01*
X103769390Y-83764523D02*
X104150342Y-83764523D01*
X104150342Y-83764523D02*
X104245580Y-83716904D01*
X104245580Y-83716904D02*
X104293200Y-83669285D01*
X104293200Y-83669285D02*
X104340819Y-83574047D01*
X104340819Y-83574047D02*
X104340819Y-83383571D01*
X104340819Y-83383571D02*
X104293200Y-83288333D01*
X104293200Y-83288333D02*
X104245580Y-83240714D01*
X104245580Y-83240714D02*
X104150342Y-83193095D01*
X104150342Y-83193095D02*
X103912247Y-83193095D01*
X103912247Y-83193095D02*
X103817009Y-83240714D01*
X103817009Y-83240714D02*
X103769390Y-83288333D01*
X103769390Y-83288333D02*
X103721771Y-83383571D01*
X103721771Y-83383571D02*
X103721771Y-83574047D01*
X103721771Y-83574047D02*
X103769390Y-83669285D01*
X103769390Y-83669285D02*
X103817009Y-83716904D01*
X103817009Y-83716904D02*
X103912247Y-83764523D01*
X104974580Y-51601666D02*
X105022200Y-51649285D01*
X105022200Y-51649285D02*
X105069819Y-51792142D01*
X105069819Y-51792142D02*
X105069819Y-51887380D01*
X105069819Y-51887380D02*
X105022200Y-52030237D01*
X105022200Y-52030237D02*
X104926961Y-52125475D01*
X104926961Y-52125475D02*
X104831723Y-52173094D01*
X104831723Y-52173094D02*
X104641247Y-52220713D01*
X104641247Y-52220713D02*
X104498390Y-52220713D01*
X104498390Y-52220713D02*
X104307914Y-52173094D01*
X104307914Y-52173094D02*
X104212676Y-52125475D01*
X104212676Y-52125475D02*
X104117438Y-52030237D01*
X104117438Y-52030237D02*
X104069819Y-51887380D01*
X104069819Y-51887380D02*
X104069819Y-51792142D01*
X104069819Y-51792142D02*
X104117438Y-51649285D01*
X104117438Y-51649285D02*
X104165057Y-51601666D01*
X104069819Y-51268332D02*
X104069819Y-50601666D01*
X104069819Y-50601666D02*
X105069819Y-51030237D01*
X114374819Y-89542857D02*
X113898628Y-89876190D01*
X114374819Y-90114285D02*
X113374819Y-90114285D01*
X113374819Y-90114285D02*
X113374819Y-89733333D01*
X113374819Y-89733333D02*
X113422438Y-89638095D01*
X113422438Y-89638095D02*
X113470057Y-89590476D01*
X113470057Y-89590476D02*
X113565295Y-89542857D01*
X113565295Y-89542857D02*
X113708152Y-89542857D01*
X113708152Y-89542857D02*
X113803390Y-89590476D01*
X113803390Y-89590476D02*
X113851009Y-89638095D01*
X113851009Y-89638095D02*
X113898628Y-89733333D01*
X113898628Y-89733333D02*
X113898628Y-90114285D01*
X114374819Y-88590476D02*
X114374819Y-89161904D01*
X114374819Y-88876190D02*
X113374819Y-88876190D01*
X113374819Y-88876190D02*
X113517676Y-88971428D01*
X113517676Y-88971428D02*
X113612914Y-89066666D01*
X113612914Y-89066666D02*
X113660533Y-89161904D01*
X113470057Y-88209523D02*
X113422438Y-88161904D01*
X113422438Y-88161904D02*
X113374819Y-88066666D01*
X113374819Y-88066666D02*
X113374819Y-87828571D01*
X113374819Y-87828571D02*
X113422438Y-87733333D01*
X113422438Y-87733333D02*
X113470057Y-87685714D01*
X113470057Y-87685714D02*
X113565295Y-87638095D01*
X113565295Y-87638095D02*
X113660533Y-87638095D01*
X113660533Y-87638095D02*
X113803390Y-87685714D01*
X113803390Y-87685714D02*
X114374819Y-88257142D01*
X114374819Y-88257142D02*
X114374819Y-87638095D01*
X113284095Y-75146819D02*
X113284095Y-75956342D01*
X113284095Y-75956342D02*
X113331714Y-76051580D01*
X113331714Y-76051580D02*
X113379333Y-76099200D01*
X113379333Y-76099200D02*
X113474571Y-76146819D01*
X113474571Y-76146819D02*
X113665047Y-76146819D01*
X113665047Y-76146819D02*
X113760285Y-76099200D01*
X113760285Y-76099200D02*
X113807904Y-76051580D01*
X113807904Y-76051580D02*
X113855523Y-75956342D01*
X113855523Y-75956342D02*
X113855523Y-75146819D01*
X114855523Y-76146819D02*
X114284095Y-76146819D01*
X114569809Y-76146819D02*
X114569809Y-75146819D01*
X114569809Y-75146819D02*
X114474571Y-75289676D01*
X114474571Y-75289676D02*
X114379333Y-75384914D01*
X114379333Y-75384914D02*
X114284095Y-75432533D01*
X96393095Y-74124819D02*
X96393095Y-73124819D01*
X96393095Y-73601009D02*
X96964523Y-73601009D01*
X96964523Y-74124819D02*
X96964523Y-73124819D01*
X97964523Y-74124819D02*
X97393095Y-74124819D01*
X97678809Y-74124819D02*
X97678809Y-73124819D01*
X97678809Y-73124819D02*
X97583571Y-73267676D01*
X97583571Y-73267676D02*
X97488333Y-73362914D01*
X97488333Y-73362914D02*
X97393095Y-73410533D01*
X87804666Y-84798819D02*
X87804666Y-85513104D01*
X87804666Y-85513104D02*
X87757047Y-85655961D01*
X87757047Y-85655961D02*
X87661809Y-85751200D01*
X87661809Y-85751200D02*
X87518952Y-85798819D01*
X87518952Y-85798819D02*
X87423714Y-85798819D01*
X88709428Y-85132152D02*
X88709428Y-85798819D01*
X88471333Y-84751200D02*
X88233238Y-85465485D01*
X88233238Y-85465485D02*
X88852285Y-85465485D01*
X127936666Y-51016819D02*
X127936666Y-51731104D01*
X127936666Y-51731104D02*
X127889047Y-51873961D01*
X127889047Y-51873961D02*
X127793809Y-51969200D01*
X127793809Y-51969200D02*
X127650952Y-52016819D01*
X127650952Y-52016819D02*
X127555714Y-52016819D01*
X128365238Y-51112057D02*
X128412857Y-51064438D01*
X128412857Y-51064438D02*
X128508095Y-51016819D01*
X128508095Y-51016819D02*
X128746190Y-51016819D01*
X128746190Y-51016819D02*
X128841428Y-51064438D01*
X128841428Y-51064438D02*
X128889047Y-51112057D01*
X128889047Y-51112057D02*
X128936666Y-51207295D01*
X128936666Y-51207295D02*
X128936666Y-51302533D01*
X128936666Y-51302533D02*
X128889047Y-51445390D01*
X128889047Y-51445390D02*
X128317619Y-52016819D01*
X128317619Y-52016819D02*
X128936666Y-52016819D01*
X109294819Y-85097857D02*
X108818628Y-85431190D01*
X109294819Y-85669285D02*
X108294819Y-85669285D01*
X108294819Y-85669285D02*
X108294819Y-85288333D01*
X108294819Y-85288333D02*
X108342438Y-85193095D01*
X108342438Y-85193095D02*
X108390057Y-85145476D01*
X108390057Y-85145476D02*
X108485295Y-85097857D01*
X108485295Y-85097857D02*
X108628152Y-85097857D01*
X108628152Y-85097857D02*
X108723390Y-85145476D01*
X108723390Y-85145476D02*
X108771009Y-85193095D01*
X108771009Y-85193095D02*
X108818628Y-85288333D01*
X108818628Y-85288333D02*
X108818628Y-85669285D01*
X109294819Y-84145476D02*
X109294819Y-84716904D01*
X109294819Y-84431190D02*
X108294819Y-84431190D01*
X108294819Y-84431190D02*
X108437676Y-84526428D01*
X108437676Y-84526428D02*
X108532914Y-84621666D01*
X108532914Y-84621666D02*
X108580533Y-84716904D01*
X108294819Y-83812142D02*
X108294819Y-83145476D01*
X108294819Y-83145476D02*
X109294819Y-83574047D01*
X117379761Y-49585057D02*
X117284523Y-49537438D01*
X117284523Y-49537438D02*
X117189285Y-49442200D01*
X117189285Y-49442200D02*
X117046428Y-49299342D01*
X117046428Y-49299342D02*
X116951190Y-49251723D01*
X116951190Y-49251723D02*
X116855952Y-49251723D01*
X116903571Y-49489819D02*
X116808333Y-49442200D01*
X116808333Y-49442200D02*
X116713095Y-49346961D01*
X116713095Y-49346961D02*
X116665476Y-49156485D01*
X116665476Y-49156485D02*
X116665476Y-48823152D01*
X116665476Y-48823152D02*
X116713095Y-48632676D01*
X116713095Y-48632676D02*
X116808333Y-48537438D01*
X116808333Y-48537438D02*
X116903571Y-48489819D01*
X116903571Y-48489819D02*
X117094047Y-48489819D01*
X117094047Y-48489819D02*
X117189285Y-48537438D01*
X117189285Y-48537438D02*
X117284523Y-48632676D01*
X117284523Y-48632676D02*
X117332142Y-48823152D01*
X117332142Y-48823152D02*
X117332142Y-49156485D01*
X117332142Y-49156485D02*
X117284523Y-49346961D01*
X117284523Y-49346961D02*
X117189285Y-49442200D01*
X117189285Y-49442200D02*
X117094047Y-49489819D01*
X117094047Y-49489819D02*
X116903571Y-49489819D01*
X117665476Y-48489819D02*
X118284523Y-48489819D01*
X118284523Y-48489819D02*
X117951190Y-48870771D01*
X117951190Y-48870771D02*
X118094047Y-48870771D01*
X118094047Y-48870771D02*
X118189285Y-48918390D01*
X118189285Y-48918390D02*
X118236904Y-48966009D01*
X118236904Y-48966009D02*
X118284523Y-49061247D01*
X118284523Y-49061247D02*
X118284523Y-49299342D01*
X118284523Y-49299342D02*
X118236904Y-49394580D01*
X118236904Y-49394580D02*
X118189285Y-49442200D01*
X118189285Y-49442200D02*
X118094047Y-49489819D01*
X118094047Y-49489819D02*
X117808333Y-49489819D01*
X117808333Y-49489819D02*
X117713095Y-49442200D01*
X117713095Y-49442200D02*
X117665476Y-49394580D01*
X98131333Y-69796819D02*
X97798000Y-69320628D01*
X97559905Y-69796819D02*
X97559905Y-68796819D01*
X97559905Y-68796819D02*
X97940857Y-68796819D01*
X97940857Y-68796819D02*
X98036095Y-68844438D01*
X98036095Y-68844438D02*
X98083714Y-68892057D01*
X98083714Y-68892057D02*
X98131333Y-68987295D01*
X98131333Y-68987295D02*
X98131333Y-69130152D01*
X98131333Y-69130152D02*
X98083714Y-69225390D01*
X98083714Y-69225390D02*
X98036095Y-69273009D01*
X98036095Y-69273009D02*
X97940857Y-69320628D01*
X97940857Y-69320628D02*
X97559905Y-69320628D01*
X99083714Y-69796819D02*
X98512286Y-69796819D01*
X98798000Y-69796819D02*
X98798000Y-68796819D01*
X98798000Y-68796819D02*
X98702762Y-68939676D01*
X98702762Y-68939676D02*
X98607524Y-69034914D01*
X98607524Y-69034914D02*
X98512286Y-69082533D01*
X127428666Y-67944819D02*
X127428666Y-68659104D01*
X127428666Y-68659104D02*
X127381047Y-68801961D01*
X127381047Y-68801961D02*
X127285809Y-68897200D01*
X127285809Y-68897200D02*
X127142952Y-68944819D01*
X127142952Y-68944819D02*
X127047714Y-68944819D01*
X127809619Y-67944819D02*
X128428666Y-67944819D01*
X128428666Y-67944819D02*
X128095333Y-68325771D01*
X128095333Y-68325771D02*
X128238190Y-68325771D01*
X128238190Y-68325771D02*
X128333428Y-68373390D01*
X128333428Y-68373390D02*
X128381047Y-68421009D01*
X128381047Y-68421009D02*
X128428666Y-68516247D01*
X128428666Y-68516247D02*
X128428666Y-68754342D01*
X128428666Y-68754342D02*
X128381047Y-68849580D01*
X128381047Y-68849580D02*
X128333428Y-68897200D01*
X128333428Y-68897200D02*
X128238190Y-68944819D01*
X128238190Y-68944819D02*
X127952476Y-68944819D01*
X127952476Y-68944819D02*
X127857238Y-68897200D01*
X127857238Y-68897200D02*
X127809619Y-68849580D01*
X120849819Y-78747857D02*
X120373628Y-79081190D01*
X120849819Y-79319285D02*
X119849819Y-79319285D01*
X119849819Y-79319285D02*
X119849819Y-78938333D01*
X119849819Y-78938333D02*
X119897438Y-78843095D01*
X119897438Y-78843095D02*
X119945057Y-78795476D01*
X119945057Y-78795476D02*
X120040295Y-78747857D01*
X120040295Y-78747857D02*
X120183152Y-78747857D01*
X120183152Y-78747857D02*
X120278390Y-78795476D01*
X120278390Y-78795476D02*
X120326009Y-78843095D01*
X120326009Y-78843095D02*
X120373628Y-78938333D01*
X120373628Y-78938333D02*
X120373628Y-79319285D01*
X119945057Y-78366904D02*
X119897438Y-78319285D01*
X119897438Y-78319285D02*
X119849819Y-78224047D01*
X119849819Y-78224047D02*
X119849819Y-77985952D01*
X119849819Y-77985952D02*
X119897438Y-77890714D01*
X119897438Y-77890714D02*
X119945057Y-77843095D01*
X119945057Y-77843095D02*
X120040295Y-77795476D01*
X120040295Y-77795476D02*
X120135533Y-77795476D01*
X120135533Y-77795476D02*
X120278390Y-77843095D01*
X120278390Y-77843095D02*
X120849819Y-78414523D01*
X120849819Y-78414523D02*
X120849819Y-77795476D01*
X119849819Y-77176428D02*
X119849819Y-77081190D01*
X119849819Y-77081190D02*
X119897438Y-76985952D01*
X119897438Y-76985952D02*
X119945057Y-76938333D01*
X119945057Y-76938333D02*
X120040295Y-76890714D01*
X120040295Y-76890714D02*
X120230771Y-76843095D01*
X120230771Y-76843095D02*
X120468866Y-76843095D01*
X120468866Y-76843095D02*
X120659342Y-76890714D01*
X120659342Y-76890714D02*
X120754580Y-76938333D01*
X120754580Y-76938333D02*
X120802200Y-76985952D01*
X120802200Y-76985952D02*
X120849819Y-77081190D01*
X120849819Y-77081190D02*
X120849819Y-77176428D01*
X120849819Y-77176428D02*
X120802200Y-77271666D01*
X120802200Y-77271666D02*
X120754580Y-77319285D01*
X120754580Y-77319285D02*
X120659342Y-77366904D01*
X120659342Y-77366904D02*
X120468866Y-77414523D01*
X120468866Y-77414523D02*
X120230771Y-77414523D01*
X120230771Y-77414523D02*
X120040295Y-77366904D01*
X120040295Y-77366904D02*
X119945057Y-77319285D01*
X119945057Y-77319285D02*
X119897438Y-77271666D01*
X119897438Y-77271666D02*
X119849819Y-77176428D01*
X112914580Y-80017857D02*
X112962200Y-80065476D01*
X112962200Y-80065476D02*
X113009819Y-80208333D01*
X113009819Y-80208333D02*
X113009819Y-80303571D01*
X113009819Y-80303571D02*
X112962200Y-80446428D01*
X112962200Y-80446428D02*
X112866961Y-80541666D01*
X112866961Y-80541666D02*
X112771723Y-80589285D01*
X112771723Y-80589285D02*
X112581247Y-80636904D01*
X112581247Y-80636904D02*
X112438390Y-80636904D01*
X112438390Y-80636904D02*
X112247914Y-80589285D01*
X112247914Y-80589285D02*
X112152676Y-80541666D01*
X112152676Y-80541666D02*
X112057438Y-80446428D01*
X112057438Y-80446428D02*
X112009819Y-80303571D01*
X112009819Y-80303571D02*
X112009819Y-80208333D01*
X112009819Y-80208333D02*
X112057438Y-80065476D01*
X112057438Y-80065476D02*
X112105057Y-80017857D01*
X112105057Y-79636904D02*
X112057438Y-79589285D01*
X112057438Y-79589285D02*
X112009819Y-79494047D01*
X112009819Y-79494047D02*
X112009819Y-79255952D01*
X112009819Y-79255952D02*
X112057438Y-79160714D01*
X112057438Y-79160714D02*
X112105057Y-79113095D01*
X112105057Y-79113095D02*
X112200295Y-79065476D01*
X112200295Y-79065476D02*
X112295533Y-79065476D01*
X112295533Y-79065476D02*
X112438390Y-79113095D01*
X112438390Y-79113095D02*
X113009819Y-79684523D01*
X113009819Y-79684523D02*
X113009819Y-79065476D01*
X113009819Y-78113095D02*
X113009819Y-78684523D01*
X113009819Y-78398809D02*
X112009819Y-78398809D01*
X112009819Y-78398809D02*
X112152676Y-78494047D01*
X112152676Y-78494047D02*
X112247914Y-78589285D01*
X112247914Y-78589285D02*
X112295533Y-78684523D01*
X115943142Y-76400819D02*
X115609809Y-75924628D01*
X115371714Y-76400819D02*
X115371714Y-75400819D01*
X115371714Y-75400819D02*
X115752666Y-75400819D01*
X115752666Y-75400819D02*
X115847904Y-75448438D01*
X115847904Y-75448438D02*
X115895523Y-75496057D01*
X115895523Y-75496057D02*
X115943142Y-75591295D01*
X115943142Y-75591295D02*
X115943142Y-75734152D01*
X115943142Y-75734152D02*
X115895523Y-75829390D01*
X115895523Y-75829390D02*
X115847904Y-75877009D01*
X115847904Y-75877009D02*
X115752666Y-75924628D01*
X115752666Y-75924628D02*
X115371714Y-75924628D01*
X116324095Y-75496057D02*
X116371714Y-75448438D01*
X116371714Y-75448438D02*
X116466952Y-75400819D01*
X116466952Y-75400819D02*
X116705047Y-75400819D01*
X116705047Y-75400819D02*
X116800285Y-75448438D01*
X116800285Y-75448438D02*
X116847904Y-75496057D01*
X116847904Y-75496057D02*
X116895523Y-75591295D01*
X116895523Y-75591295D02*
X116895523Y-75686533D01*
X116895523Y-75686533D02*
X116847904Y-75829390D01*
X116847904Y-75829390D02*
X116276476Y-76400819D01*
X116276476Y-76400819D02*
X116895523Y-76400819D01*
X117847904Y-76400819D02*
X117276476Y-76400819D01*
X117562190Y-76400819D02*
X117562190Y-75400819D01*
X117562190Y-75400819D02*
X117466952Y-75543676D01*
X117466952Y-75543676D02*
X117371714Y-75638914D01*
X117371714Y-75638914D02*
X117276476Y-75686533D01*
X97623333Y-56884819D02*
X97290000Y-56408628D01*
X97051905Y-56884819D02*
X97051905Y-55884819D01*
X97051905Y-55884819D02*
X97432857Y-55884819D01*
X97432857Y-55884819D02*
X97528095Y-55932438D01*
X97528095Y-55932438D02*
X97575714Y-55980057D01*
X97575714Y-55980057D02*
X97623333Y-56075295D01*
X97623333Y-56075295D02*
X97623333Y-56218152D01*
X97623333Y-56218152D02*
X97575714Y-56313390D01*
X97575714Y-56313390D02*
X97528095Y-56361009D01*
X97528095Y-56361009D02*
X97432857Y-56408628D01*
X97432857Y-56408628D02*
X97051905Y-56408628D01*
X97956667Y-55884819D02*
X98623333Y-55884819D01*
X98623333Y-55884819D02*
X98194762Y-56884819D01*
X94339580Y-52490666D02*
X94387200Y-52538285D01*
X94387200Y-52538285D02*
X94434819Y-52681142D01*
X94434819Y-52681142D02*
X94434819Y-52776380D01*
X94434819Y-52776380D02*
X94387200Y-52919237D01*
X94387200Y-52919237D02*
X94291961Y-53014475D01*
X94291961Y-53014475D02*
X94196723Y-53062094D01*
X94196723Y-53062094D02*
X94006247Y-53109713D01*
X94006247Y-53109713D02*
X93863390Y-53109713D01*
X93863390Y-53109713D02*
X93672914Y-53062094D01*
X93672914Y-53062094D02*
X93577676Y-53014475D01*
X93577676Y-53014475D02*
X93482438Y-52919237D01*
X93482438Y-52919237D02*
X93434819Y-52776380D01*
X93434819Y-52776380D02*
X93434819Y-52681142D01*
X93434819Y-52681142D02*
X93482438Y-52538285D01*
X93482438Y-52538285D02*
X93530057Y-52490666D01*
X93434819Y-51633523D02*
X93434819Y-51823999D01*
X93434819Y-51823999D02*
X93482438Y-51919237D01*
X93482438Y-51919237D02*
X93530057Y-51966856D01*
X93530057Y-51966856D02*
X93672914Y-52062094D01*
X93672914Y-52062094D02*
X93863390Y-52109713D01*
X93863390Y-52109713D02*
X94244342Y-52109713D01*
X94244342Y-52109713D02*
X94339580Y-52062094D01*
X94339580Y-52062094D02*
X94387200Y-52014475D01*
X94387200Y-52014475D02*
X94434819Y-51919237D01*
X94434819Y-51919237D02*
X94434819Y-51728761D01*
X94434819Y-51728761D02*
X94387200Y-51633523D01*
X94387200Y-51633523D02*
X94339580Y-51585904D01*
X94339580Y-51585904D02*
X94244342Y-51538285D01*
X94244342Y-51538285D02*
X94006247Y-51538285D01*
X94006247Y-51538285D02*
X93911009Y-51585904D01*
X93911009Y-51585904D02*
X93863390Y-51633523D01*
X93863390Y-51633523D02*
X93815771Y-51728761D01*
X93815771Y-51728761D02*
X93815771Y-51919237D01*
X93815771Y-51919237D02*
X93863390Y-52014475D01*
X93863390Y-52014475D02*
X93911009Y-52062094D01*
X93911009Y-52062094D02*
X94006247Y-52109713D01*
X87561009Y-55959333D02*
X87561009Y-56292666D01*
X88084819Y-56292666D02*
X87084819Y-56292666D01*
X87084819Y-56292666D02*
X87084819Y-55816476D01*
X88084819Y-54911714D02*
X88084819Y-55483142D01*
X88084819Y-55197428D02*
X87084819Y-55197428D01*
X87084819Y-55197428D02*
X87227676Y-55292666D01*
X87227676Y-55292666D02*
X87322914Y-55387904D01*
X87322914Y-55387904D02*
X87370533Y-55483142D01*
X101484819Y-89233333D02*
X102199104Y-89233333D01*
X102199104Y-89233333D02*
X102341961Y-89280952D01*
X102341961Y-89280952D02*
X102437200Y-89376190D01*
X102437200Y-89376190D02*
X102484819Y-89519047D01*
X102484819Y-89519047D02*
X102484819Y-89614285D01*
X101484819Y-88280952D02*
X101484819Y-88757142D01*
X101484819Y-88757142D02*
X101961009Y-88804761D01*
X101961009Y-88804761D02*
X101913390Y-88757142D01*
X101913390Y-88757142D02*
X101865771Y-88661904D01*
X101865771Y-88661904D02*
X101865771Y-88423809D01*
X101865771Y-88423809D02*
X101913390Y-88328571D01*
X101913390Y-88328571D02*
X101961009Y-88280952D01*
X101961009Y-88280952D02*
X102056247Y-88233333D01*
X102056247Y-88233333D02*
X102294342Y-88233333D01*
X102294342Y-88233333D02*
X102389580Y-88280952D01*
X102389580Y-88280952D02*
X102437200Y-88328571D01*
X102437200Y-88328571D02*
X102484819Y-88423809D01*
X102484819Y-88423809D02*
X102484819Y-88661904D01*
X102484819Y-88661904D02*
X102437200Y-88757142D01*
X102437200Y-88757142D02*
X102389580Y-88804761D01*
X117943333Y-66579819D02*
X117610000Y-66103628D01*
X117371905Y-66579819D02*
X117371905Y-65579819D01*
X117371905Y-65579819D02*
X117752857Y-65579819D01*
X117752857Y-65579819D02*
X117848095Y-65627438D01*
X117848095Y-65627438D02*
X117895714Y-65675057D01*
X117895714Y-65675057D02*
X117943333Y-65770295D01*
X117943333Y-65770295D02*
X117943333Y-65913152D01*
X117943333Y-65913152D02*
X117895714Y-66008390D01*
X117895714Y-66008390D02*
X117848095Y-66056009D01*
X117848095Y-66056009D02*
X117752857Y-66103628D01*
X117752857Y-66103628D02*
X117371905Y-66103628D01*
X118419524Y-66579819D02*
X118610000Y-66579819D01*
X118610000Y-66579819D02*
X118705238Y-66532200D01*
X118705238Y-66532200D02*
X118752857Y-66484580D01*
X118752857Y-66484580D02*
X118848095Y-66341723D01*
X118848095Y-66341723D02*
X118895714Y-66151247D01*
X118895714Y-66151247D02*
X118895714Y-65770295D01*
X118895714Y-65770295D02*
X118848095Y-65675057D01*
X118848095Y-65675057D02*
X118800476Y-65627438D01*
X118800476Y-65627438D02*
X118705238Y-65579819D01*
X118705238Y-65579819D02*
X118514762Y-65579819D01*
X118514762Y-65579819D02*
X118419524Y-65627438D01*
X118419524Y-65627438D02*
X118371905Y-65675057D01*
X118371905Y-65675057D02*
X118324286Y-65770295D01*
X118324286Y-65770295D02*
X118324286Y-66008390D01*
X118324286Y-66008390D02*
X118371905Y-66103628D01*
X118371905Y-66103628D02*
X118419524Y-66151247D01*
X118419524Y-66151247D02*
X118514762Y-66198866D01*
X118514762Y-66198866D02*
X118705238Y-66198866D01*
X118705238Y-66198866D02*
X118800476Y-66151247D01*
X118800476Y-66151247D02*
X118848095Y-66103628D01*
X118848095Y-66103628D02*
X118895714Y-66008390D01*
X118229142Y-71479580D02*
X118181523Y-71527200D01*
X118181523Y-71527200D02*
X118038666Y-71574819D01*
X118038666Y-71574819D02*
X117943428Y-71574819D01*
X117943428Y-71574819D02*
X117800571Y-71527200D01*
X117800571Y-71527200D02*
X117705333Y-71431961D01*
X117705333Y-71431961D02*
X117657714Y-71336723D01*
X117657714Y-71336723D02*
X117610095Y-71146247D01*
X117610095Y-71146247D02*
X117610095Y-71003390D01*
X117610095Y-71003390D02*
X117657714Y-70812914D01*
X117657714Y-70812914D02*
X117705333Y-70717676D01*
X117705333Y-70717676D02*
X117800571Y-70622438D01*
X117800571Y-70622438D02*
X117943428Y-70574819D01*
X117943428Y-70574819D02*
X118038666Y-70574819D01*
X118038666Y-70574819D02*
X118181523Y-70622438D01*
X118181523Y-70622438D02*
X118229142Y-70670057D01*
X119181523Y-71574819D02*
X118610095Y-71574819D01*
X118895809Y-71574819D02*
X118895809Y-70574819D01*
X118895809Y-70574819D02*
X118800571Y-70717676D01*
X118800571Y-70717676D02*
X118705333Y-70812914D01*
X118705333Y-70812914D02*
X118610095Y-70860533D01*
X119562476Y-70670057D02*
X119610095Y-70622438D01*
X119610095Y-70622438D02*
X119705333Y-70574819D01*
X119705333Y-70574819D02*
X119943428Y-70574819D01*
X119943428Y-70574819D02*
X120038666Y-70622438D01*
X120038666Y-70622438D02*
X120086285Y-70670057D01*
X120086285Y-70670057D02*
X120133904Y-70765295D01*
X120133904Y-70765295D02*
X120133904Y-70860533D01*
X120133904Y-70860533D02*
X120086285Y-71003390D01*
X120086285Y-71003390D02*
X119514857Y-71574819D01*
X119514857Y-71574819D02*
X120133904Y-71574819D01*
X102302819Y-79827333D02*
X103017104Y-79827333D01*
X103017104Y-79827333D02*
X103159961Y-79874952D01*
X103159961Y-79874952D02*
X103255200Y-79970190D01*
X103255200Y-79970190D02*
X103302819Y-80113047D01*
X103302819Y-80113047D02*
X103302819Y-80208285D01*
X103302819Y-79351142D02*
X102302819Y-79351142D01*
X102302819Y-79351142D02*
X102302819Y-78970190D01*
X102302819Y-78970190D02*
X102350438Y-78874952D01*
X102350438Y-78874952D02*
X102398057Y-78827333D01*
X102398057Y-78827333D02*
X102493295Y-78779714D01*
X102493295Y-78779714D02*
X102636152Y-78779714D01*
X102636152Y-78779714D02*
X102731390Y-78827333D01*
X102731390Y-78827333D02*
X102779009Y-78874952D01*
X102779009Y-78874952D02*
X102826628Y-78970190D01*
X102826628Y-78970190D02*
X102826628Y-79351142D01*
X103302819Y-77827333D02*
X103302819Y-78398761D01*
X103302819Y-78113047D02*
X102302819Y-78113047D01*
X102302819Y-78113047D02*
X102445676Y-78208285D01*
X102445676Y-78208285D02*
X102540914Y-78303523D01*
X102540914Y-78303523D02*
X102588533Y-78398761D01*
X105314761Y-64558057D02*
X105219523Y-64510438D01*
X105219523Y-64510438D02*
X105124285Y-64415200D01*
X105124285Y-64415200D02*
X104981428Y-64272342D01*
X104981428Y-64272342D02*
X104886190Y-64224723D01*
X104886190Y-64224723D02*
X104790952Y-64224723D01*
X104838571Y-64462819D02*
X104743333Y-64415200D01*
X104743333Y-64415200D02*
X104648095Y-64319961D01*
X104648095Y-64319961D02*
X104600476Y-64129485D01*
X104600476Y-64129485D02*
X104600476Y-63796152D01*
X104600476Y-63796152D02*
X104648095Y-63605676D01*
X104648095Y-63605676D02*
X104743333Y-63510438D01*
X104743333Y-63510438D02*
X104838571Y-63462819D01*
X104838571Y-63462819D02*
X105029047Y-63462819D01*
X105029047Y-63462819D02*
X105124285Y-63510438D01*
X105124285Y-63510438D02*
X105219523Y-63605676D01*
X105219523Y-63605676D02*
X105267142Y-63796152D01*
X105267142Y-63796152D02*
X105267142Y-64129485D01*
X105267142Y-64129485D02*
X105219523Y-64319961D01*
X105219523Y-64319961D02*
X105124285Y-64415200D01*
X105124285Y-64415200D02*
X105029047Y-64462819D01*
X105029047Y-64462819D02*
X104838571Y-64462819D01*
X106124285Y-63796152D02*
X106124285Y-64462819D01*
X105886190Y-63415200D02*
X105648095Y-64129485D01*
X105648095Y-64129485D02*
X106267142Y-64129485D01*
X90797142Y-77894819D02*
X90463809Y-77418628D01*
X90225714Y-77894819D02*
X90225714Y-76894819D01*
X90225714Y-76894819D02*
X90606666Y-76894819D01*
X90606666Y-76894819D02*
X90701904Y-76942438D01*
X90701904Y-76942438D02*
X90749523Y-76990057D01*
X90749523Y-76990057D02*
X90797142Y-77085295D01*
X90797142Y-77085295D02*
X90797142Y-77228152D01*
X90797142Y-77228152D02*
X90749523Y-77323390D01*
X90749523Y-77323390D02*
X90701904Y-77371009D01*
X90701904Y-77371009D02*
X90606666Y-77418628D01*
X90606666Y-77418628D02*
X90225714Y-77418628D01*
X91749523Y-77894819D02*
X91178095Y-77894819D01*
X91463809Y-77894819D02*
X91463809Y-76894819D01*
X91463809Y-76894819D02*
X91368571Y-77037676D01*
X91368571Y-77037676D02*
X91273333Y-77132914D01*
X91273333Y-77132914D02*
X91178095Y-77180533D01*
X92606666Y-77228152D02*
X92606666Y-77894819D01*
X92368571Y-76847200D02*
X92130476Y-77561485D01*
X92130476Y-77561485D02*
X92749523Y-77561485D01*
X93591142Y-81226819D02*
X93257809Y-80750628D01*
X93019714Y-81226819D02*
X93019714Y-80226819D01*
X93019714Y-80226819D02*
X93400666Y-80226819D01*
X93400666Y-80226819D02*
X93495904Y-80274438D01*
X93495904Y-80274438D02*
X93543523Y-80322057D01*
X93543523Y-80322057D02*
X93591142Y-80417295D01*
X93591142Y-80417295D02*
X93591142Y-80560152D01*
X93591142Y-80560152D02*
X93543523Y-80655390D01*
X93543523Y-80655390D02*
X93495904Y-80703009D01*
X93495904Y-80703009D02*
X93400666Y-80750628D01*
X93400666Y-80750628D02*
X93019714Y-80750628D01*
X94543523Y-81226819D02*
X93972095Y-81226819D01*
X94257809Y-81226819D02*
X94257809Y-80226819D01*
X94257809Y-80226819D02*
X94162571Y-80369676D01*
X94162571Y-80369676D02*
X94067333Y-80464914D01*
X94067333Y-80464914D02*
X93972095Y-80512533D01*
X94876857Y-80226819D02*
X95495904Y-80226819D01*
X95495904Y-80226819D02*
X95162571Y-80607771D01*
X95162571Y-80607771D02*
X95305428Y-80607771D01*
X95305428Y-80607771D02*
X95400666Y-80655390D01*
X95400666Y-80655390D02*
X95448285Y-80703009D01*
X95448285Y-80703009D02*
X95495904Y-80798247D01*
X95495904Y-80798247D02*
X95495904Y-81036342D01*
X95495904Y-81036342D02*
X95448285Y-81131580D01*
X95448285Y-81131580D02*
X95400666Y-81179200D01*
X95400666Y-81179200D02*
X95305428Y-81226819D01*
X95305428Y-81226819D02*
X95019714Y-81226819D01*
X95019714Y-81226819D02*
X94924476Y-81179200D01*
X94924476Y-81179200D02*
X94876857Y-81131580D01*
X111029761Y-49585057D02*
X110934523Y-49537438D01*
X110934523Y-49537438D02*
X110839285Y-49442200D01*
X110839285Y-49442200D02*
X110696428Y-49299342D01*
X110696428Y-49299342D02*
X110601190Y-49251723D01*
X110601190Y-49251723D02*
X110505952Y-49251723D01*
X110553571Y-49489819D02*
X110458333Y-49442200D01*
X110458333Y-49442200D02*
X110363095Y-49346961D01*
X110363095Y-49346961D02*
X110315476Y-49156485D01*
X110315476Y-49156485D02*
X110315476Y-48823152D01*
X110315476Y-48823152D02*
X110363095Y-48632676D01*
X110363095Y-48632676D02*
X110458333Y-48537438D01*
X110458333Y-48537438D02*
X110553571Y-48489819D01*
X110553571Y-48489819D02*
X110744047Y-48489819D01*
X110744047Y-48489819D02*
X110839285Y-48537438D01*
X110839285Y-48537438D02*
X110934523Y-48632676D01*
X110934523Y-48632676D02*
X110982142Y-48823152D01*
X110982142Y-48823152D02*
X110982142Y-49156485D01*
X110982142Y-49156485D02*
X110934523Y-49346961D01*
X110934523Y-49346961D02*
X110839285Y-49442200D01*
X110839285Y-49442200D02*
X110744047Y-49489819D01*
X110744047Y-49489819D02*
X110553571Y-49489819D01*
X111363095Y-48585057D02*
X111410714Y-48537438D01*
X111410714Y-48537438D02*
X111505952Y-48489819D01*
X111505952Y-48489819D02*
X111744047Y-48489819D01*
X111744047Y-48489819D02*
X111839285Y-48537438D01*
X111839285Y-48537438D02*
X111886904Y-48585057D01*
X111886904Y-48585057D02*
X111934523Y-48680295D01*
X111934523Y-48680295D02*
X111934523Y-48775533D01*
X111934523Y-48775533D02*
X111886904Y-48918390D01*
X111886904Y-48918390D02*
X111315476Y-49489819D01*
X111315476Y-49489819D02*
X111934523Y-49489819D01*
D13*
%TO.C,Q1*%
X88880000Y-63500000D02*
X88880000Y-61550000D01*
X88880000Y-63500000D02*
X88880000Y-65450000D01*
X94000000Y-63500000D02*
X94000000Y-61550000D01*
X94000000Y-63500000D02*
X94000000Y-65450000D01*
X88975000Y-66200000D02*
X88645000Y-66440000D01*
X88645000Y-65960000D01*
X88975000Y-66200000D01*
G36*
X88975000Y-66200000D02*
G01*
X88645000Y-66440000D01*
X88645000Y-65960000D01*
X88975000Y-66200000D01*
G37*
%TO.C,R15*%
X91202742Y-75172500D02*
X91677258Y-75172500D01*
X91202742Y-76217500D02*
X91677258Y-76217500D01*
%TO.C,R23*%
X97552742Y-84567500D02*
X98027258Y-84567500D01*
X97552742Y-85612500D02*
X98027258Y-85612500D01*
%TO.C,C10*%
X122224748Y-66908000D02*
X123647252Y-66908000D01*
X122224748Y-68728000D02*
X123647252Y-68728000D01*
%TO.C,R10*%
X104675000Y-89127064D02*
X104675000Y-88672936D01*
X106145000Y-89127064D02*
X106145000Y-88672936D01*
%TO.C,U2*%
X125208000Y-86880000D02*
X125208000Y-87680000D01*
X125208000Y-86880000D02*
X125208000Y-86080000D01*
X122138000Y-85920000D02*
X122138000Y-87680000D01*
X125488000Y-85820000D02*
X125158000Y-85580000D01*
X125488000Y-85340000D01*
X125488000Y-85820000D01*
G36*
X125488000Y-85820000D02*
G01*
X125158000Y-85580000D01*
X125488000Y-85340000D01*
X125488000Y-85820000D01*
G37*
%TO.C,R19*%
X123417064Y-74830000D02*
X122962936Y-74830000D01*
X123417064Y-76300000D02*
X122962936Y-76300000D01*
%TO.C,C1*%
X123804000Y-51612748D02*
X123804000Y-53035252D01*
X125624000Y-51612748D02*
X125624000Y-53035252D01*
%TO.C,R18*%
X114835000Y-84682064D02*
X114835000Y-84227936D01*
X116305000Y-84682064D02*
X116305000Y-84227936D01*
%TO.C,C3*%
X104089252Y-56827000D02*
X102666748Y-56827000D01*
X104089252Y-58647000D02*
X102666748Y-58647000D01*
%TO.C,C20*%
X121306000Y-86749252D02*
X121306000Y-85326748D01*
X119486000Y-86749252D02*
X119486000Y-85326748D01*
%TO.C,R2*%
X95610000Y-62772936D02*
X95610000Y-64227064D01*
X97430000Y-62772936D02*
X97430000Y-64227064D01*
%TO.C,C17*%
X108075000Y-79234420D02*
X108075000Y-79515580D01*
X109095000Y-79234420D02*
X109095000Y-79515580D01*
%TO.C,R8*%
X114062742Y-48372500D02*
X114537258Y-48372500D01*
X114062742Y-49417500D02*
X114537258Y-49417500D01*
%TO.C,C19*%
X122986748Y-80810000D02*
X124409252Y-80810000D01*
X122986748Y-82630000D02*
X124409252Y-82630000D01*
%TO.C,C9*%
X111619420Y-68705000D02*
X111900580Y-68705000D01*
X111619420Y-69725000D02*
X111900580Y-69725000D01*
%TO.C,C4*%
X98550000Y-63359420D02*
X98550000Y-63640580D01*
X99570000Y-63359420D02*
X99570000Y-63640580D01*
%TO.C,R6*%
X95997500Y-68182258D02*
X95997500Y-67707742D01*
X97042500Y-68182258D02*
X97042500Y-67707742D01*
%TO.C,D2*%
X86630000Y-82740000D02*
X89315000Y-82740000D01*
X89315000Y-80820000D02*
X86630000Y-80820000D01*
X89315000Y-82740000D02*
X89315000Y-80820000D01*
%TO.C,C8*%
X105671252Y-72163000D02*
X105148748Y-72163000D01*
X105671252Y-73633000D02*
X105148748Y-73633000D01*
%TO.C,C15*%
X126344000Y-86749252D02*
X126344000Y-85326748D01*
X128164000Y-86749252D02*
X128164000Y-85326748D01*
%TO.C,C11*%
X122224748Y-64368000D02*
X123647252Y-64368000D01*
X122224748Y-66188000D02*
X123647252Y-66188000D01*
%TO.C,C13*%
X103884000Y-75832580D02*
X103884000Y-75551420D01*
X104904000Y-75832580D02*
X104904000Y-75551420D01*
%TO.C,L1*%
X107425000Y-57560000D02*
X107425000Y-59060000D01*
X107425000Y-64360000D02*
X107425000Y-62860000D01*
X107425000Y-64360000D02*
X114825000Y-64360000D01*
X114825000Y-57560000D02*
X107425000Y-57560000D01*
X114825000Y-57560000D02*
X114825000Y-59060000D01*
X114825000Y-64360000D02*
X114825000Y-62860000D01*
%TO.C,C14*%
X123076580Y-72134000D02*
X122795420Y-72134000D01*
X123076580Y-73154000D02*
X122795420Y-73154000D01*
%TO.C,R3*%
X90567742Y-70597500D02*
X91042258Y-70597500D01*
X90567742Y-71642500D02*
X91042258Y-71642500D01*
%TO.C,R22*%
X99807500Y-84217742D02*
X99807500Y-84692258D01*
X100852500Y-84217742D02*
X100852500Y-84692258D01*
%TO.C,C18*%
X115308748Y-72290000D02*
X115831252Y-72290000D01*
X115308748Y-73760000D02*
X115831252Y-73760000D01*
%TO.C,C16*%
X114425000Y-69355580D02*
X114425000Y-69074420D01*
X115445000Y-69355580D02*
X115445000Y-69074420D01*
%TO.C,R5*%
X106442742Y-48372500D02*
X106917258Y-48372500D01*
X106442742Y-49417500D02*
X106917258Y-49417500D01*
%TO.C,D1*%
X110150000Y-70270000D02*
X110150000Y-71970000D01*
X110150000Y-70270000D02*
X112810000Y-70270000D01*
X110150000Y-71970000D02*
X112810000Y-71970000D01*
%TO.C,R4*%
X107427500Y-51672258D02*
X107427500Y-51197742D01*
X108472500Y-51672258D02*
X108472500Y-51197742D01*
%TO.C,C5*%
X90664420Y-68705000D02*
X90945580Y-68705000D01*
X90664420Y-69725000D02*
X90945580Y-69725000D01*
%TO.C,R11*%
X109755000Y-89127064D02*
X109755000Y-88672936D01*
X111225000Y-89127064D02*
X111225000Y-88672936D01*
%TO.C,C2*%
X104089252Y-60177000D02*
X102666748Y-60177000D01*
X104089252Y-61997000D02*
X102666748Y-61997000D01*
%TO.C,R16*%
X104675000Y-84682064D02*
X104675000Y-84227936D01*
X106145000Y-84682064D02*
X106145000Y-84227936D01*
%TO.C,C7*%
X105535000Y-51575580D02*
X105535000Y-51294420D01*
X106555000Y-51575580D02*
X106555000Y-51294420D01*
%TO.C,R12*%
X114835000Y-89127064D02*
X114835000Y-88672936D01*
X116305000Y-89127064D02*
X116305000Y-88672936D01*
D14*
%TO.C,U1*%
X107913606Y-72130000D02*
G75*
G02*
X107466394Y-72130000I-223606J0D01*
G01*
X107466394Y-72130000D02*
G75*
G02*
X107913606Y-72130000I223606J0D01*
G01*
X112990000Y-77430000D02*
X112990000Y-72430000D01*
X112990000Y-72430000D02*
X107990000Y-72430000D01*
X107990000Y-77430000D02*
X112990000Y-77430000D01*
X107990000Y-72430000D02*
X107990000Y-77430000D01*
D13*
%TO.C,R17*%
X109755000Y-84682064D02*
X109755000Y-84227936D01*
X111225000Y-84682064D02*
X111225000Y-84227936D01*
%TO.C,Q3*%
X117475000Y-49875000D02*
X116825000Y-49875000D01*
X117475000Y-49875000D02*
X118125000Y-49875000D01*
X117475000Y-52995000D02*
X116825000Y-52995000D01*
X117475000Y-52995000D02*
X118125000Y-52995000D01*
X116312500Y-49925000D02*
X116072500Y-49595000D01*
X116552500Y-49595000D01*
X116312500Y-49925000D01*
G36*
X116312500Y-49925000D02*
G01*
X116072500Y-49595000D01*
X116552500Y-49595000D01*
X116312500Y-49925000D01*
G37*
%TO.C,D4*%
X86630000Y-76660000D02*
X89315000Y-76660000D01*
X89315000Y-74740000D02*
X86630000Y-74740000D01*
X89315000Y-76660000D02*
X89315000Y-74740000D01*
%TO.C,R1*%
X96282742Y-70089500D02*
X96757258Y-70089500D01*
X96282742Y-71134500D02*
X96757258Y-71134500D01*
%TO.C,R20*%
X118010000Y-77877936D02*
X118010000Y-78332064D01*
X119480000Y-77877936D02*
X119480000Y-78332064D01*
%TO.C,C21*%
X110615000Y-79234420D02*
X110615000Y-79515580D01*
X111635000Y-79234420D02*
X111635000Y-79515580D01*
%TO.C,R21*%
X115470000Y-77877936D02*
X115470000Y-78332064D01*
X116940000Y-77877936D02*
X116940000Y-78332064D01*
%TO.C,R7*%
X98517064Y-53700000D02*
X97062936Y-53700000D01*
X98517064Y-55520000D02*
X97062936Y-55520000D01*
%TO.C,C6*%
X93245000Y-55506252D02*
X93245000Y-54983748D01*
X94715000Y-55506252D02*
X94715000Y-54983748D01*
%TO.C,F1*%
X88460000Y-54493748D02*
X88460000Y-57266252D01*
X91880000Y-54493748D02*
X91880000Y-57266252D01*
%TO.C,J5*%
X95830000Y-87570000D02*
X95830000Y-90230000D01*
X98430000Y-87570000D02*
X95830000Y-87570000D01*
X98430000Y-87570000D02*
X98430000Y-90230000D01*
X98430000Y-90230000D02*
X95830000Y-90230000D01*
X99700000Y-87570000D02*
X101030000Y-87570000D01*
X101030000Y-87570000D02*
X101030000Y-88900000D01*
%TO.C,D3*%
X86630000Y-79700000D02*
X89315000Y-79700000D01*
X89315000Y-77780000D02*
X86630000Y-77780000D01*
X89315000Y-79700000D02*
X89315000Y-77780000D01*
%TO.C,R9*%
X117382936Y-67035000D02*
X118837064Y-67035000D01*
X117382936Y-68855000D02*
X118837064Y-68855000D01*
%TO.C,C12*%
X117969420Y-69340000D02*
X118250580Y-69340000D01*
X117969420Y-70360000D02*
X118250580Y-70360000D01*
%TO.C,JP1*%
X104348000Y-77594000D02*
X104948000Y-77594000D01*
X105648000Y-78294000D02*
X105648000Y-79694000D01*
X103648000Y-79694000D02*
X103648000Y-78294000D01*
X104948000Y-80394000D02*
X104348000Y-80394000D01*
X104948000Y-77594000D02*
G75*
G02*
X105648000Y-78294000I0J-700000D01*
G01*
X103648000Y-78294000D02*
G75*
G02*
X104348000Y-77594000I700000J0D01*
G01*
X105648000Y-79694000D02*
G75*
G02*
X104948000Y-80394000I-699999J-1D01*
G01*
X104348000Y-80394000D02*
G75*
G02*
X103648000Y-79694000I-1J699999D01*
G01*
%TO.C,Q4*%
X104775000Y-64750000D02*
X102825000Y-64750000D01*
X104775000Y-64750000D02*
X106725000Y-64750000D01*
X104775000Y-69870000D02*
X102825000Y-69870000D01*
X104775000Y-69870000D02*
X106725000Y-69870000D01*
X102075000Y-64845000D02*
X101835000Y-64515000D01*
X102315000Y-64515000D01*
X102075000Y-64845000D01*
G36*
X102075000Y-64845000D02*
G01*
X101835000Y-64515000D01*
X102315000Y-64515000D01*
X102075000Y-64845000D01*
G37*
%TO.C,R14*%
X91202742Y-78347500D02*
X91677258Y-78347500D01*
X91202742Y-79392500D02*
X91677258Y-79392500D01*
%TO.C,R13*%
X91202742Y-80887500D02*
X91677258Y-80887500D01*
X91202742Y-81932500D02*
X91677258Y-81932500D01*
%TO.C,Q2*%
X111125000Y-49875000D02*
X110475000Y-49875000D01*
X111125000Y-49875000D02*
X111775000Y-49875000D01*
X111125000Y-52995000D02*
X110475000Y-52995000D01*
X111125000Y-52995000D02*
X111775000Y-52995000D01*
X109962500Y-49925000D02*
X109722500Y-49595000D01*
X110202500Y-49595000D01*
X109962500Y-49925000D01*
G36*
X109962500Y-49925000D02*
G01*
X109722500Y-49595000D01*
X110202500Y-49595000D01*
X109962500Y-49925000D01*
G37*
%TD*%
%LPC*%
D15*
%TO.C,Q1*%
X89535000Y-65975000D03*
X90805000Y-65975000D03*
X92075000Y-65975000D03*
X93345000Y-65975000D03*
X93345000Y-61025000D03*
X92075000Y-61025000D03*
X90805000Y-61025000D03*
X89535000Y-61025000D03*
%TD*%
D16*
%TO.C,R15*%
X90615000Y-75695000D03*
X92265000Y-75695000D03*
%TD*%
%TO.C,R23*%
X96965000Y-85090000D03*
X98615000Y-85090000D03*
%TD*%
D17*
%TO.C,C10*%
X121461000Y-67818000D03*
X124411000Y-67818000D03*
%TD*%
D18*
%TO.C,R10*%
X105410000Y-89900000D03*
X105410000Y-87900000D03*
%TD*%
D19*
%TO.C,U2*%
X124648000Y-85090000D03*
X123698000Y-85090000D03*
X122748000Y-85090000D03*
X122748000Y-88510000D03*
X123698000Y-88510000D03*
X124648000Y-88510000D03*
%TD*%
D20*
%TO.C,R19*%
X124190000Y-75565000D03*
X122190000Y-75565000D03*
%TD*%
D21*
%TO.C,C1*%
X124714000Y-50849000D03*
X124714000Y-53799000D03*
%TD*%
D18*
%TO.C,R18*%
X115570000Y-85455000D03*
X115570000Y-83455000D03*
%TD*%
D22*
%TO.C,C3*%
X104853000Y-57737000D03*
X101903000Y-57737000D03*
%TD*%
D23*
%TO.C,C20*%
X120396000Y-87513000D03*
X120396000Y-84563000D03*
%TD*%
D24*
%TO.C,R2*%
X96520000Y-62037500D03*
X96520000Y-64962500D03*
%TD*%
D25*
%TO.C,C17*%
X108585000Y-78600000D03*
X108585000Y-80150000D03*
%TD*%
D16*
%TO.C,R8*%
X113475000Y-48895000D03*
X115125000Y-48895000D03*
%TD*%
D17*
%TO.C,C19*%
X122223000Y-81720000D03*
X125173000Y-81720000D03*
%TD*%
D26*
%TO.C,C9*%
X110985000Y-69215000D03*
X112535000Y-69215000D03*
%TD*%
D27*
%TO.C,H2*%
X121920000Y-59055000D03*
%TD*%
D25*
%TO.C,C4*%
X99060000Y-62725000D03*
X99060000Y-64275000D03*
%TD*%
D28*
%TO.C,R6*%
X96520000Y-68770000D03*
X96520000Y-67120000D03*
%TD*%
D29*
%TO.C,D2*%
X88567500Y-81780000D03*
X86692500Y-81780000D03*
%TD*%
D30*
%TO.C,C8*%
X106360000Y-72898000D03*
X104460000Y-72898000D03*
%TD*%
D23*
%TO.C,C15*%
X127254000Y-87513000D03*
X127254000Y-84563000D03*
%TD*%
D17*
%TO.C,C11*%
X121461000Y-65278000D03*
X124411000Y-65278000D03*
%TD*%
D31*
%TO.C,C13*%
X104394000Y-76467000D03*
X104394000Y-74917000D03*
%TD*%
D32*
%TO.C,L1*%
X108100000Y-60960000D03*
X114150000Y-60960000D03*
%TD*%
D33*
%TO.C,C14*%
X123711000Y-72644000D03*
X122161000Y-72644000D03*
%TD*%
D16*
%TO.C,R3*%
X89980000Y-71120000D03*
X91630000Y-71120000D03*
%TD*%
D34*
%TO.C,R22*%
X100330000Y-83630000D03*
X100330000Y-85280000D03*
%TD*%
D35*
%TO.C,C18*%
X114620000Y-73025000D03*
X116520000Y-73025000D03*
%TD*%
D31*
%TO.C,C16*%
X114935000Y-69990000D03*
X114935000Y-68440000D03*
%TD*%
D16*
%TO.C,R5*%
X105855000Y-48895000D03*
X107505000Y-48895000D03*
%TD*%
D36*
%TO.C,D1*%
X110660000Y-71120000D03*
X112860000Y-71120000D03*
%TD*%
D28*
%TO.C,R4*%
X107950000Y-52260000D03*
X107950000Y-50610000D03*
%TD*%
D37*
%TO.C,J6*%
X129032000Y-80518000D03*
%TD*%
D26*
%TO.C,C5*%
X90030000Y-69215000D03*
X91580000Y-69215000D03*
%TD*%
D38*
%TO.C,J1*%
X90080000Y-49530000D03*
D39*
X97880000Y-49530000D03*
%TD*%
D18*
%TO.C,R11*%
X110490000Y-89900000D03*
X110490000Y-87900000D03*
%TD*%
D22*
%TO.C,C2*%
X104853000Y-61087000D03*
X101903000Y-61087000D03*
%TD*%
D18*
%TO.C,R16*%
X105410000Y-85455000D03*
X105410000Y-83455000D03*
%TD*%
D31*
%TO.C,C7*%
X106045000Y-52210000D03*
X106045000Y-50660000D03*
%TD*%
D18*
%TO.C,R12*%
X115570000Y-89900000D03*
X115570000Y-87900000D03*
%TD*%
D40*
%TO.C,U1*%
X110490000Y-74930000D03*
D41*
X109240000Y-73030000D03*
X109740000Y-73030000D03*
X110240000Y-73030000D03*
X110740000Y-73030000D03*
X111240000Y-73030000D03*
X111740000Y-73030000D03*
D42*
X112390000Y-73680000D03*
X112390000Y-74180000D03*
X112390000Y-74680000D03*
X112390000Y-75180000D03*
X112390000Y-75680000D03*
X112390000Y-76180000D03*
D43*
X111740000Y-76830000D03*
X111240000Y-76830000D03*
X110740000Y-76830000D03*
X110240000Y-76830000D03*
X109740000Y-76830000D03*
X109240000Y-76830000D03*
D44*
X108590000Y-76180000D03*
X108590000Y-75680000D03*
X108590000Y-75180000D03*
X108590000Y-74680000D03*
X108590000Y-74180000D03*
X108590000Y-73680000D03*
%TD*%
D27*
%TO.C,H1*%
X97155000Y-77470000D03*
%TD*%
D45*
%TO.C,J4*%
X89535000Y-88265000D03*
%TD*%
D46*
%TO.C,J2*%
X128905000Y-47535000D03*
D39*
X128905000Y-55335000D03*
%TD*%
D18*
%TO.C,R17*%
X110490000Y-85455000D03*
X110490000Y-83455000D03*
%TD*%
D47*
%TO.C,Q3*%
X116537500Y-50485000D03*
X116537500Y-52385000D03*
X118412500Y-51435000D03*
%TD*%
D29*
%TO.C,D4*%
X88567500Y-75700000D03*
X86692500Y-75700000D03*
%TD*%
D16*
%TO.C,R1*%
X95695000Y-70612000D03*
X97345000Y-70612000D03*
%TD*%
D48*
%TO.C,J3*%
X128905000Y-72390000D03*
D39*
X128905000Y-64590000D03*
%TD*%
D49*
%TO.C,R20*%
X118745000Y-77105000D03*
X118745000Y-79105000D03*
%TD*%
D25*
%TO.C,C21*%
X111125000Y-78600000D03*
X111125000Y-80150000D03*
%TD*%
D49*
%TO.C,R21*%
X116205000Y-77105000D03*
X116205000Y-79105000D03*
%TD*%
D50*
%TO.C,R7*%
X99252500Y-54610000D03*
X96327500Y-54610000D03*
%TD*%
D51*
%TO.C,C6*%
X93980000Y-56195000D03*
X93980000Y-54295000D03*
%TD*%
D52*
%TO.C,F1*%
X90170000Y-53568500D03*
D53*
X90170000Y-58191500D03*
%TD*%
D54*
%TO.C,J5*%
X99700000Y-88900000D03*
D55*
X97160000Y-88900000D03*
%TD*%
D29*
%TO.C,D3*%
X88567500Y-78740000D03*
X86692500Y-78740000D03*
%TD*%
D56*
%TO.C,R9*%
X116647500Y-67945000D03*
X119572500Y-67945000D03*
%TD*%
D26*
%TO.C,C12*%
X117335000Y-69850000D03*
X118885000Y-69850000D03*
%TD*%
D57*
%TO.C,JP1*%
X104648000Y-79644000D03*
D58*
X104648000Y-78344000D03*
%TD*%
D59*
%TO.C,Q4*%
X102300000Y-65405000D03*
X102300000Y-66675000D03*
X102300000Y-67945000D03*
X102300000Y-69215000D03*
X107250000Y-69215000D03*
X107250000Y-67945000D03*
X107250000Y-66675000D03*
X107250000Y-65405000D03*
%TD*%
D16*
%TO.C,R14*%
X90615000Y-78870000D03*
X92265000Y-78870000D03*
%TD*%
%TO.C,R13*%
X90615000Y-81410000D03*
X92265000Y-81410000D03*
%TD*%
D47*
%TO.C,Q2*%
X110187500Y-50485000D03*
X110187500Y-52385000D03*
X112062500Y-51435000D03*
%TD*%
%LPD*%
M02*
