%TF.GenerationSoftware,KiCad,Pcbnew,8.0.2*%
%TF.CreationDate,2024-05-28T03:05:53+03:00*%
%TF.ProjectId,ups,7570732e-6b69-4636-9164-5f7063625858,rev?*%
%TF.SameCoordinates,Original*%
%TF.FileFunction,Drillmap*%
%TF.FilePolarity,Positive*%
%FSLAX45Y45*%
G04 Gerber Fmt 4.5, Leading zero omitted, Abs format (unit mm)*
G04 Created by KiCad (PCBNEW 8.0.2) date 2024-05-28 03:05:53*
%MOMM*%
%LPD*%
G01*
G04 APERTURE LIST*
%ADD10C,0.100000*%
%ADD11C,0.200000*%
%ADD12C,0.155000*%
%ADD13C,0.210000*%
%ADD14C,0.320000*%
G04 APERTURE END LIST*
D10*
X8462000Y-4318000D02*
X13462000Y-4318000D01*
X13462000Y-9318000D01*
X8462000Y-9318000D01*
X8462000Y-4318000D01*
D11*
D10*
X8595600Y-4582400D02*
X8625600Y-4612400D01*
X8625600Y-4582400D02*
X8595600Y-4612400D01*
X8595600Y-4734800D02*
X8625600Y-4764800D01*
X8625600Y-4734800D02*
X8595600Y-4764800D01*
X8595600Y-4887200D02*
X8625600Y-4917200D01*
X8625600Y-4887200D02*
X8595600Y-4917200D01*
X8595600Y-5039600D02*
X8625600Y-5069600D01*
X8625600Y-5039600D02*
X8595600Y-5069600D01*
X8595600Y-5192000D02*
X8625600Y-5222000D01*
X8625600Y-5192000D02*
X8595600Y-5222000D01*
X8595600Y-5344400D02*
X8625600Y-5374400D01*
X8625600Y-5344400D02*
X8595600Y-5374400D01*
X8595600Y-5496800D02*
X8625600Y-5526800D01*
X8625600Y-5496800D02*
X8595600Y-5526800D01*
X8595600Y-5649200D02*
X8625600Y-5679200D01*
X8625600Y-5649200D02*
X8595600Y-5679200D01*
X8595600Y-5801600D02*
X8625600Y-5831600D01*
X8625600Y-5801600D02*
X8595600Y-5831600D01*
X8595600Y-5954000D02*
X8625600Y-5984000D01*
X8625600Y-5954000D02*
X8595600Y-5984000D01*
X8595600Y-6106400D02*
X8625600Y-6136400D01*
X8625600Y-6106400D02*
X8595600Y-6136400D01*
X8595600Y-6258800D02*
X8625600Y-6288800D01*
X8625600Y-6258800D02*
X8595600Y-6288800D01*
X8595600Y-6411200D02*
X8625600Y-6441200D01*
X8625600Y-6411200D02*
X8595600Y-6441200D01*
X8595600Y-6563600D02*
X8625600Y-6593600D01*
X8625600Y-6563600D02*
X8595600Y-6593600D01*
X8595600Y-6716000D02*
X8625600Y-6746000D01*
X8625600Y-6716000D02*
X8595600Y-6746000D01*
X8595600Y-6868400D02*
X8625600Y-6898400D01*
X8625600Y-6868400D02*
X8595600Y-6898400D01*
X8595600Y-7020800D02*
X8625600Y-7050800D01*
X8625600Y-7020800D02*
X8595600Y-7050800D01*
X8595600Y-7173200D02*
X8625600Y-7203200D01*
X8625600Y-7173200D02*
X8595600Y-7203200D01*
X8646400Y-8341600D02*
X8676400Y-8371600D01*
X8676400Y-8341600D02*
X8646400Y-8371600D01*
X8646400Y-9129000D02*
X8676400Y-9159000D01*
X8676400Y-9129000D02*
X8646400Y-9159000D01*
X8781867Y-9129000D02*
X8811867Y-9159000D01*
X8811867Y-9129000D02*
X8781867Y-9159000D01*
X8917333Y-9129000D02*
X8947333Y-9159000D01*
X8947333Y-9129000D02*
X8917333Y-9159000D01*
X8976600Y-4430000D02*
X9006600Y-4460000D01*
X9006600Y-4430000D02*
X8976600Y-4460000D01*
X9052800Y-9129000D02*
X9082800Y-9159000D01*
X9082800Y-9129000D02*
X9052800Y-9159000D01*
X9178306Y-4430000D02*
X9208306Y-4460000D01*
X9208306Y-4430000D02*
X9178306Y-4460000D01*
X9188266Y-9129000D02*
X9218266Y-9159000D01*
X9218266Y-9129000D02*
X9188266Y-9159000D01*
X9205200Y-7655800D02*
X9235200Y-7685800D01*
X9235200Y-7655800D02*
X9205200Y-7685800D01*
X9205200Y-7960600D02*
X9235200Y-7990600D01*
X9235200Y-7960600D02*
X9205200Y-7990600D01*
X9306800Y-8240000D02*
X9336800Y-8270000D01*
X9336800Y-8240000D02*
X9306800Y-8270000D01*
X9323733Y-9129000D02*
X9353733Y-9159000D01*
X9353733Y-9129000D02*
X9323733Y-9159000D01*
X9380012Y-4430000D02*
X9410012Y-4460000D01*
X9410012Y-4430000D02*
X9380012Y-4460000D01*
X9459200Y-9129000D02*
X9489200Y-9159000D01*
X9489200Y-9129000D02*
X9459200Y-9159000D01*
X9560800Y-8341600D02*
X9590800Y-8371600D01*
X9590800Y-8341600D02*
X9560800Y-8371600D01*
X9561580Y-8145000D02*
X9591580Y-8175000D01*
X9591580Y-8145000D02*
X9561580Y-8175000D01*
X9581717Y-4430000D02*
X9611717Y-4460000D01*
X9611717Y-4430000D02*
X9581717Y-4460000D01*
X9611600Y-5852400D02*
X9641600Y-5882400D01*
X9641600Y-5852400D02*
X9611600Y-5882400D01*
X9611600Y-5979400D02*
X9641600Y-6009400D01*
X9641600Y-5979400D02*
X9611600Y-6009400D01*
X9764000Y-5852400D02*
X9794000Y-5882400D01*
X9794000Y-5852400D02*
X9764000Y-5882400D01*
X9764000Y-5979400D02*
X9794000Y-6009400D01*
X9794000Y-5979400D02*
X9764000Y-6009400D01*
X9783423Y-4430000D02*
X9813423Y-4460000D01*
X9813423Y-4430000D02*
X9783423Y-4460000D01*
X9941800Y-8007200D02*
X9971800Y-8037200D01*
X9971800Y-8007200D02*
X9941800Y-8037200D01*
X9967200Y-8214600D02*
X9997200Y-8244600D01*
X9997200Y-8214600D02*
X9967200Y-8244600D01*
X9979900Y-6507500D02*
X10009900Y-6537500D01*
X10009900Y-6507500D02*
X9979900Y-6537500D01*
X9985129Y-4430000D02*
X10015129Y-4460000D01*
X10015129Y-4430000D02*
X9985129Y-4460000D01*
X10043400Y-6563600D02*
X10073400Y-6593600D01*
X10073400Y-6563600D02*
X10043400Y-6593600D01*
X10043400Y-6639800D02*
X10073400Y-6669800D01*
X10073400Y-6639800D02*
X10043400Y-6669800D01*
X10068800Y-5293600D02*
X10098800Y-5323600D01*
X10098800Y-5293600D02*
X10068800Y-5323600D01*
X10068800Y-5420600D02*
X10098800Y-5450600D01*
X10098800Y-5420600D02*
X10068800Y-5450600D01*
X10068800Y-5547600D02*
X10098800Y-5577600D01*
X10098800Y-5547600D02*
X10068800Y-5577600D01*
X10068800Y-6055600D02*
X10098800Y-6085600D01*
X10098800Y-6055600D02*
X10068800Y-6085600D01*
X10068800Y-6131800D02*
X10098800Y-6161800D01*
X10098800Y-6131800D02*
X10068800Y-6161800D01*
X10080000Y-7290000D02*
X10110000Y-7320000D01*
X10110000Y-7290000D02*
X10080000Y-7320000D01*
X10186835Y-4430000D02*
X10216835Y-4460000D01*
X10216835Y-4430000D02*
X10186835Y-4460000D01*
X10195800Y-5623800D02*
X10225800Y-5653800D01*
X10225800Y-5623800D02*
X10195800Y-5653800D01*
X10195800Y-8214600D02*
X10225800Y-8244600D01*
X10225800Y-8214600D02*
X10195800Y-8244600D01*
X10195800Y-8621000D02*
X10225800Y-8651000D01*
X10225800Y-8621000D02*
X10195800Y-8651000D01*
X10195800Y-9002000D02*
X10225800Y-9032000D01*
X10225800Y-9002000D02*
X10195800Y-9032000D01*
X10248182Y-7095418D02*
X10278182Y-7125418D01*
X10278182Y-7095418D02*
X10248182Y-7125418D01*
X10297400Y-5623800D02*
X10327400Y-5653800D01*
X10327400Y-5623800D02*
X10297400Y-5653800D01*
X10322800Y-7147800D02*
X10352800Y-7177800D01*
X10352800Y-7147800D02*
X10322800Y-7177800D01*
X10322800Y-7224000D02*
X10352800Y-7254000D01*
X10352800Y-7224000D02*
X10322800Y-7254000D01*
X10373600Y-6817600D02*
X10403600Y-6847600D01*
X10403600Y-6817600D02*
X10373600Y-6847600D01*
X10388541Y-4430000D02*
X10418541Y-4460000D01*
X10418541Y-4430000D02*
X10388541Y-4460000D01*
X10399000Y-7147800D02*
X10429000Y-7177800D01*
X10429000Y-7147800D02*
X10399000Y-7177800D01*
X10424400Y-8214600D02*
X10454400Y-8244600D01*
X10454400Y-8214600D02*
X10424400Y-8244600D01*
X10424400Y-9129000D02*
X10454400Y-9159000D01*
X10454400Y-9129000D02*
X10424400Y-9159000D01*
X10449800Y-7935200D02*
X10479800Y-7965200D01*
X10479800Y-7935200D02*
X10449800Y-7965200D01*
X10460000Y-7705000D02*
X10490000Y-7735000D01*
X10490000Y-7705000D02*
X10460000Y-7735000D01*
X10500600Y-7605000D02*
X10530600Y-7635000D01*
X10530600Y-7605000D02*
X10500600Y-7635000D01*
X10526000Y-8646400D02*
X10556000Y-8676400D01*
X10556000Y-8646400D02*
X10526000Y-8676400D01*
X10574986Y-9129000D02*
X10604986Y-9159000D01*
X10604986Y-9129000D02*
X10574986Y-9159000D01*
X10576800Y-5344400D02*
X10606800Y-5374400D01*
X10606800Y-5344400D02*
X10576800Y-5374400D01*
X10590246Y-4430000D02*
X10620246Y-4460000D01*
X10620246Y-4430000D02*
X10590246Y-4460000D01*
X10678400Y-7935200D02*
X10708400Y-7965200D01*
X10708400Y-7935200D02*
X10678400Y-7965200D01*
X10725571Y-9129000D02*
X10755571Y-9159000D01*
X10755571Y-9129000D02*
X10725571Y-9159000D01*
X10729200Y-8235500D02*
X10759200Y-8265500D01*
X10759200Y-8235500D02*
X10729200Y-8265500D01*
X10754600Y-8062200D02*
X10784600Y-8092200D01*
X10784600Y-8062200D02*
X10754600Y-8092200D01*
X10780000Y-8570200D02*
X10810000Y-8600200D01*
X10810000Y-8570200D02*
X10780000Y-8600200D01*
X10780000Y-8875000D02*
X10810000Y-8905000D01*
X10810000Y-8875000D02*
X10780000Y-8905000D01*
X10791952Y-4430000D02*
X10821952Y-4460000D01*
X10821952Y-4430000D02*
X10791952Y-4460000D01*
X10802509Y-8114309D02*
X10832509Y-8144309D01*
X10832509Y-8114309D02*
X10802509Y-8144309D01*
X10876157Y-9129000D02*
X10906157Y-9159000D01*
X10906157Y-9129000D02*
X10876157Y-9159000D01*
X10932400Y-6995400D02*
X10962400Y-7025400D01*
X10962400Y-6995400D02*
X10932400Y-7025400D01*
X10943800Y-8000000D02*
X10973800Y-8030000D01*
X10973800Y-8000000D02*
X10943800Y-8030000D01*
X10957800Y-7071600D02*
X10987800Y-7101600D01*
X10987800Y-7071600D02*
X10957800Y-7101600D01*
X10957800Y-7401800D02*
X10987800Y-7431800D01*
X10987800Y-7401800D02*
X10957800Y-7431800D01*
X10957800Y-7554200D02*
X10987800Y-7584200D01*
X10987800Y-7554200D02*
X10957800Y-7584200D01*
X10993658Y-4430000D02*
X11023658Y-4460000D01*
X11023658Y-4430000D02*
X10993658Y-4460000D01*
X11008600Y-8000000D02*
X11038600Y-8030000D01*
X11038600Y-8000000D02*
X11008600Y-8030000D01*
X11026743Y-9129000D02*
X11056743Y-9159000D01*
X11056743Y-9129000D02*
X11026743Y-9159000D01*
X11034000Y-7478000D02*
X11064000Y-7508000D01*
X11064000Y-7478000D02*
X11034000Y-7508000D01*
X11034000Y-8646400D02*
X11064000Y-8676400D01*
X11064000Y-8646400D02*
X11034000Y-8676400D01*
X11110200Y-7401800D02*
X11140200Y-7431800D01*
X11140200Y-7401800D02*
X11110200Y-7431800D01*
X11110200Y-7554200D02*
X11140200Y-7584200D01*
X11140200Y-7554200D02*
X11110200Y-7584200D01*
X11135600Y-7046200D02*
X11165600Y-7076200D01*
X11165600Y-7046200D02*
X11135600Y-7076200D01*
X11177329Y-9129000D02*
X11207328Y-9159000D01*
X11207328Y-9129000D02*
X11177329Y-9159000D01*
X11195364Y-4430000D02*
X11225364Y-4460000D01*
X11225364Y-4430000D02*
X11195364Y-4460000D01*
X11211800Y-7198600D02*
X11241800Y-7228600D01*
X11241800Y-7198600D02*
X11211800Y-7228600D01*
X11288000Y-5268200D02*
X11318000Y-5298200D01*
X11318000Y-5268200D02*
X11288000Y-5298200D01*
X11288000Y-8570200D02*
X11318000Y-8600200D01*
X11318000Y-8570200D02*
X11288000Y-8600200D01*
X11288000Y-8875000D02*
X11318000Y-8905000D01*
X11318000Y-8875000D02*
X11288000Y-8905000D01*
X11313400Y-7401800D02*
X11343400Y-7431800D01*
X11343400Y-7401800D02*
X11313400Y-7431800D01*
X11313400Y-7808200D02*
X11343400Y-7838200D01*
X11343400Y-7808200D02*
X11313400Y-7838200D01*
X11327914Y-9129000D02*
X11357914Y-9159000D01*
X11357914Y-9129000D02*
X11327914Y-9159000D01*
X11338800Y-8214600D02*
X11368800Y-8244600D01*
X11368800Y-8214600D02*
X11338800Y-8244600D01*
X11351500Y-5496800D02*
X11381500Y-5526800D01*
X11381500Y-5496800D02*
X11351500Y-5526800D01*
X11364200Y-5268200D02*
X11394200Y-5298200D01*
X11394200Y-5268200D02*
X11364200Y-5298200D01*
X11364200Y-7173200D02*
X11394200Y-7203200D01*
X11394200Y-7173200D02*
X11364200Y-7203200D01*
X11397070Y-4430000D02*
X11427070Y-4460000D01*
X11427070Y-4430000D02*
X11397070Y-4460000D01*
X11415000Y-7122400D02*
X11445000Y-7152400D01*
X11445000Y-7122400D02*
X11415000Y-7152400D01*
X11415000Y-8163800D02*
X11445000Y-8193800D01*
X11445000Y-8163800D02*
X11415000Y-8193800D01*
X11440400Y-5268200D02*
X11470400Y-5298200D01*
X11470400Y-5268200D02*
X11440400Y-5298200D01*
X11465800Y-5496800D02*
X11495800Y-5526800D01*
X11495800Y-5496800D02*
X11465800Y-5526800D01*
X11465800Y-7071600D02*
X11495800Y-7101600D01*
X11495800Y-7071600D02*
X11465800Y-7101600D01*
X11478500Y-9129000D02*
X11508500Y-9159000D01*
X11508500Y-9129000D02*
X11478500Y-9159000D01*
X11516600Y-5268200D02*
X11546600Y-5298200D01*
X11546600Y-5268200D02*
X11516600Y-5298200D01*
X11516600Y-7490500D02*
X11546600Y-7520500D01*
X11546600Y-7490500D02*
X11516600Y-7520500D01*
X11516600Y-7859000D02*
X11546600Y-7889000D01*
X11546600Y-7859000D02*
X11516600Y-7889000D01*
X11516600Y-7935200D02*
X11546600Y-7965200D01*
X11546600Y-7935200D02*
X11516600Y-7965200D01*
X11516600Y-8163800D02*
X11546600Y-8193800D01*
X11546600Y-8163800D02*
X11516600Y-8193800D01*
X11542000Y-8646400D02*
X11572000Y-8676400D01*
X11572000Y-8646400D02*
X11542000Y-8676400D01*
X11592800Y-6995400D02*
X11622800Y-7025400D01*
X11622800Y-6995400D02*
X11592800Y-7025400D01*
X11598775Y-4430000D02*
X11628775Y-4460000D01*
X11628775Y-4430000D02*
X11598775Y-4460000D01*
X11609000Y-7455000D02*
X11639000Y-7485000D01*
X11639000Y-7455000D02*
X11609000Y-7485000D01*
X11770600Y-7198600D02*
X11800600Y-7228600D01*
X11800600Y-7198600D02*
X11770600Y-7228600D01*
X11770600Y-7292729D02*
X11800600Y-7322729D01*
X11800600Y-7292729D02*
X11770600Y-7322729D01*
X11770600Y-7401800D02*
X11800600Y-7431800D01*
X11800600Y-7401800D02*
X11770600Y-7431800D01*
X11796000Y-8341600D02*
X11826000Y-8371600D01*
X11826000Y-8341600D02*
X11796000Y-8371600D01*
X11796000Y-8613529D02*
X11826000Y-8643529D01*
X11826000Y-8613529D02*
X11796000Y-8643529D01*
X11796000Y-8885459D02*
X11826000Y-8915459D01*
X11826000Y-8885459D02*
X11796000Y-8915459D01*
X11800481Y-4430000D02*
X11830481Y-4460000D01*
X11830481Y-4430000D02*
X11800481Y-4460000D01*
X11999200Y-4988800D02*
X12029200Y-5018800D01*
X12029200Y-4988800D02*
X11999200Y-5018800D01*
X11999200Y-7249400D02*
X12029200Y-7279400D01*
X12029200Y-7249400D02*
X11999200Y-7279400D01*
X11999200Y-9129000D02*
X12029200Y-9159000D01*
X12029200Y-9129000D02*
X11999200Y-9159000D01*
X12002187Y-4430000D02*
X12032187Y-4460000D01*
X12032187Y-4430000D02*
X12002187Y-4460000D01*
X12177000Y-5090400D02*
X12207000Y-5120400D01*
X12207000Y-5090400D02*
X12177000Y-5120400D01*
X12177000Y-5344400D02*
X12207000Y-5374400D01*
X12207000Y-5344400D02*
X12177000Y-5374400D01*
X12200906Y-9129000D02*
X12230906Y-9159000D01*
X12230906Y-9129000D02*
X12200906Y-9159000D01*
X12203893Y-4430000D02*
X12233893Y-4460000D01*
X12233893Y-4430000D02*
X12203893Y-4460000D01*
X12227800Y-5039600D02*
X12257800Y-5069600D01*
X12257800Y-5039600D02*
X12227800Y-5069600D01*
X12278600Y-4988800D02*
X12308600Y-5018800D01*
X12308600Y-4988800D02*
X12278600Y-5018800D01*
X12329400Y-4938000D02*
X12359400Y-4968000D01*
X12359400Y-4938000D02*
X12329400Y-4968000D01*
X12402612Y-9129000D02*
X12432612Y-9159000D01*
X12432612Y-9129000D02*
X12402612Y-9159000D01*
X12405600Y-4430000D02*
X12435600Y-4460000D01*
X12435600Y-4430000D02*
X12405600Y-4460000D01*
X12456400Y-5471400D02*
X12486400Y-5501400D01*
X12486400Y-5471400D02*
X12456400Y-5501400D01*
X12604317Y-9129000D02*
X12634317Y-9159000D01*
X12634317Y-9129000D02*
X12604317Y-9159000D01*
X12608800Y-7528800D02*
X12638800Y-7558800D01*
X12638800Y-7528800D02*
X12608800Y-7558800D01*
X12608800Y-7960600D02*
X12638800Y-7990600D01*
X12638800Y-7960600D02*
X12608800Y-7990600D01*
X12806023Y-9129000D02*
X12836023Y-9159000D01*
X12836023Y-9129000D02*
X12806023Y-9159000D01*
X12989800Y-7630400D02*
X13019800Y-7660400D01*
X13019800Y-7630400D02*
X12989800Y-7660400D01*
X13007730Y-9129000D02*
X13037730Y-9159000D01*
X13037730Y-9129000D02*
X13007730Y-9159000D01*
X13294600Y-4506200D02*
X13324600Y-4536200D01*
X13324600Y-4506200D02*
X13294600Y-4536200D01*
X13294600Y-4778129D02*
X13324600Y-4808129D01*
X13324600Y-4778129D02*
X13294600Y-4808129D01*
X13294600Y-5050059D02*
X13324600Y-5080059D01*
X13324600Y-5050059D02*
X13294600Y-5080059D01*
X13294600Y-5321988D02*
X13324600Y-5351988D01*
X13324600Y-5321988D02*
X13294600Y-5351988D01*
X13294600Y-5593918D02*
X13324600Y-5623918D01*
X13324600Y-5593918D02*
X13294600Y-5623918D01*
X13294600Y-5865847D02*
X13324600Y-5895847D01*
X13324600Y-5865847D02*
X13294600Y-5895847D01*
X13294600Y-6137776D02*
X13324600Y-6167776D01*
X13324600Y-6137776D02*
X13294600Y-6167776D01*
X13294600Y-6409706D02*
X13324600Y-6439706D01*
X13324600Y-6409706D02*
X13294600Y-6439706D01*
X13294600Y-6681635D02*
X13324600Y-6711635D01*
X13324600Y-6681635D02*
X13294600Y-6711635D01*
X13294600Y-6953565D02*
X13324600Y-6983565D01*
X13324600Y-6953565D02*
X13294600Y-6983565D01*
X13294600Y-7225494D02*
X13324600Y-7255494D01*
X13324600Y-7225494D02*
X13294600Y-7255494D01*
X13294600Y-7497423D02*
X13324600Y-7527423D01*
X13324600Y-7497423D02*
X13294600Y-7527423D01*
X13294600Y-7769353D02*
X13324600Y-7799353D01*
X13324600Y-7769353D02*
X13294600Y-7799353D01*
X13294600Y-8041282D02*
X13324600Y-8071282D01*
X13324600Y-8041282D02*
X13294600Y-8071282D01*
X13294600Y-8313212D02*
X13324600Y-8343212D01*
X13324600Y-8313212D02*
X13294600Y-8343212D01*
X13294600Y-8585141D02*
X13324600Y-8615141D01*
X13324600Y-8585141D02*
X13294600Y-8615141D01*
X13294600Y-8857070D02*
X13324600Y-8887070D01*
X13324600Y-8857070D02*
X13294600Y-8887070D01*
X13294600Y-9129000D02*
X13324600Y-9159000D01*
X13324600Y-9129000D02*
X13294600Y-9159000D01*
X9766000Y-8890000D02*
G75*
G02*
X9666000Y-8890000I-50000J0D01*
G01*
X9666000Y-8890000D02*
G75*
G02*
X9766000Y-8890000I50000J0D01*
G01*
X10020000Y-8890000D02*
G75*
G02*
X9920000Y-8890000I-50000J0D01*
G01*
X9920000Y-8890000D02*
G75*
G02*
X10020000Y-8890000I50000J0D01*
G01*
D12*
X8953500Y-8749000D02*
X8953500Y-8904000D01*
X8876000Y-8826500D02*
X9031000Y-8826500D01*
X12903200Y-7974300D02*
X12903200Y-8129300D01*
X12825700Y-8051800D02*
X12980700Y-8051800D01*
D13*
X9082247Y-5027247D02*
X9082247Y-4878753D01*
X8933753Y-4878753D01*
X8933753Y-5027247D01*
X9082247Y-5027247D01*
X9862247Y-5027247D02*
X9862247Y-4878753D01*
X9713753Y-4878753D01*
X9713753Y-5027247D01*
X9862247Y-5027247D01*
X12964747Y-4827747D02*
X12964747Y-4679253D01*
X12816253Y-4679253D01*
X12816253Y-4827747D01*
X12964747Y-4827747D01*
X12964747Y-5607747D02*
X12964747Y-5459253D01*
X12816253Y-5459253D01*
X12816253Y-5607747D01*
X12964747Y-5607747D01*
X12964747Y-6533247D02*
X12964747Y-6384753D01*
X12816253Y-6384753D01*
X12816253Y-6533247D01*
X12964747Y-6533247D01*
X12964747Y-7313247D02*
X12964747Y-7164753D01*
X12816253Y-7164753D01*
X12816253Y-7313247D01*
X12964747Y-7313247D01*
D14*
X9715500Y-7907000D02*
X9875500Y-7747000D01*
X9715500Y-7587000D01*
X9555500Y-7747000D01*
X9715500Y-7907000D01*
X12192000Y-6065500D02*
X12352000Y-5905500D01*
X12192000Y-5745500D01*
X12032000Y-5905500D01*
X12192000Y-6065500D01*
D11*
X8717777Y-9634484D02*
X8717777Y-9434484D01*
X8717777Y-9434484D02*
X8765396Y-9434484D01*
X8765396Y-9434484D02*
X8793967Y-9444008D01*
X8793967Y-9444008D02*
X8813015Y-9463055D01*
X8813015Y-9463055D02*
X8822539Y-9482103D01*
X8822539Y-9482103D02*
X8832063Y-9520198D01*
X8832063Y-9520198D02*
X8832063Y-9548770D01*
X8832063Y-9548770D02*
X8822539Y-9586865D01*
X8822539Y-9586865D02*
X8813015Y-9605912D01*
X8813015Y-9605912D02*
X8793967Y-9624960D01*
X8793967Y-9624960D02*
X8765396Y-9634484D01*
X8765396Y-9634484D02*
X8717777Y-9634484D01*
X8917777Y-9634484D02*
X8917777Y-9501150D01*
X8917777Y-9539246D02*
X8927301Y-9520198D01*
X8927301Y-9520198D02*
X8936824Y-9510674D01*
X8936824Y-9510674D02*
X8955872Y-9501150D01*
X8955872Y-9501150D02*
X8974920Y-9501150D01*
X9041586Y-9634484D02*
X9041586Y-9501150D01*
X9041586Y-9434484D02*
X9032063Y-9444008D01*
X9032063Y-9444008D02*
X9041586Y-9453531D01*
X9041586Y-9453531D02*
X9051110Y-9444008D01*
X9051110Y-9444008D02*
X9041586Y-9434484D01*
X9041586Y-9434484D02*
X9041586Y-9453531D01*
X9165396Y-9634484D02*
X9146348Y-9624960D01*
X9146348Y-9624960D02*
X9136824Y-9605912D01*
X9136824Y-9605912D02*
X9136824Y-9434484D01*
X9270158Y-9634484D02*
X9251110Y-9624960D01*
X9251110Y-9624960D02*
X9241586Y-9605912D01*
X9241586Y-9605912D02*
X9241586Y-9434484D01*
X9498729Y-9634484D02*
X9498729Y-9434484D01*
X9498729Y-9434484D02*
X9565396Y-9577341D01*
X9565396Y-9577341D02*
X9632063Y-9434484D01*
X9632063Y-9434484D02*
X9632063Y-9634484D01*
X9813015Y-9634484D02*
X9813015Y-9529722D01*
X9813015Y-9529722D02*
X9803491Y-9510674D01*
X9803491Y-9510674D02*
X9784444Y-9501150D01*
X9784444Y-9501150D02*
X9746348Y-9501150D01*
X9746348Y-9501150D02*
X9727301Y-9510674D01*
X9813015Y-9624960D02*
X9793967Y-9634484D01*
X9793967Y-9634484D02*
X9746348Y-9634484D01*
X9746348Y-9634484D02*
X9727301Y-9624960D01*
X9727301Y-9624960D02*
X9717777Y-9605912D01*
X9717777Y-9605912D02*
X9717777Y-9586865D01*
X9717777Y-9586865D02*
X9727301Y-9567817D01*
X9727301Y-9567817D02*
X9746348Y-9558293D01*
X9746348Y-9558293D02*
X9793967Y-9558293D01*
X9793967Y-9558293D02*
X9813015Y-9548770D01*
X9908253Y-9501150D02*
X9908253Y-9701150D01*
X9908253Y-9510674D02*
X9927301Y-9501150D01*
X9927301Y-9501150D02*
X9965396Y-9501150D01*
X9965396Y-9501150D02*
X9984444Y-9510674D01*
X9984444Y-9510674D02*
X9993967Y-9520198D01*
X9993967Y-9520198D02*
X10003491Y-9539246D01*
X10003491Y-9539246D02*
X10003491Y-9596389D01*
X10003491Y-9596389D02*
X9993967Y-9615436D01*
X9993967Y-9615436D02*
X9984444Y-9624960D01*
X9984444Y-9624960D02*
X9965396Y-9634484D01*
X9965396Y-9634484D02*
X9927301Y-9634484D01*
X9927301Y-9634484D02*
X9908253Y-9624960D01*
X10089205Y-9615436D02*
X10098729Y-9624960D01*
X10098729Y-9624960D02*
X10089205Y-9634484D01*
X10089205Y-9634484D02*
X10079682Y-9624960D01*
X10079682Y-9624960D02*
X10089205Y-9615436D01*
X10089205Y-9615436D02*
X10089205Y-9634484D01*
X10089205Y-9510674D02*
X10098729Y-9520198D01*
X10098729Y-9520198D02*
X10089205Y-9529722D01*
X10089205Y-9529722D02*
X10079682Y-9520198D01*
X10079682Y-9520198D02*
X10089205Y-9510674D01*
X10089205Y-9510674D02*
X10089205Y-9529722D01*
D10*
X8427000Y-9948000D02*
X8457000Y-9978000D01*
X8457000Y-9948000D02*
X8427000Y-9978000D01*
D11*
X8755872Y-9854484D02*
X8774920Y-9854484D01*
X8774920Y-9854484D02*
X8793967Y-9864008D01*
X8793967Y-9864008D02*
X8803491Y-9873531D01*
X8803491Y-9873531D02*
X8813015Y-9892579D01*
X8813015Y-9892579D02*
X8822539Y-9930674D01*
X8822539Y-9930674D02*
X8822539Y-9978293D01*
X8822539Y-9978293D02*
X8813015Y-10016389D01*
X8813015Y-10016389D02*
X8803491Y-10035436D01*
X8803491Y-10035436D02*
X8793967Y-10044960D01*
X8793967Y-10044960D02*
X8774920Y-10054484D01*
X8774920Y-10054484D02*
X8755872Y-10054484D01*
X8755872Y-10054484D02*
X8736824Y-10044960D01*
X8736824Y-10044960D02*
X8727301Y-10035436D01*
X8727301Y-10035436D02*
X8717777Y-10016389D01*
X8717777Y-10016389D02*
X8708253Y-9978293D01*
X8708253Y-9978293D02*
X8708253Y-9930674D01*
X8708253Y-9930674D02*
X8717777Y-9892579D01*
X8717777Y-9892579D02*
X8727301Y-9873531D01*
X8727301Y-9873531D02*
X8736824Y-9864008D01*
X8736824Y-9864008D02*
X8755872Y-9854484D01*
X8908253Y-10035436D02*
X8917777Y-10044960D01*
X8917777Y-10044960D02*
X8908253Y-10054484D01*
X8908253Y-10054484D02*
X8898729Y-10044960D01*
X8898729Y-10044960D02*
X8908253Y-10035436D01*
X8908253Y-10035436D02*
X8908253Y-10054484D01*
X8984444Y-9854484D02*
X9108253Y-9854484D01*
X9108253Y-9854484D02*
X9041586Y-9930674D01*
X9041586Y-9930674D02*
X9070158Y-9930674D01*
X9070158Y-9930674D02*
X9089205Y-9940198D01*
X9089205Y-9940198D02*
X9098729Y-9949722D01*
X9098729Y-9949722D02*
X9108253Y-9968770D01*
X9108253Y-9968770D02*
X9108253Y-10016389D01*
X9108253Y-10016389D02*
X9098729Y-10035436D01*
X9098729Y-10035436D02*
X9089205Y-10044960D01*
X9089205Y-10044960D02*
X9070158Y-10054484D01*
X9070158Y-10054484D02*
X9013015Y-10054484D01*
X9013015Y-10054484D02*
X8993967Y-10044960D01*
X8993967Y-10044960D02*
X8984444Y-10035436D01*
X9232063Y-9854484D02*
X9251110Y-9854484D01*
X9251110Y-9854484D02*
X9270158Y-9864008D01*
X9270158Y-9864008D02*
X9279682Y-9873531D01*
X9279682Y-9873531D02*
X9289205Y-9892579D01*
X9289205Y-9892579D02*
X9298729Y-9930674D01*
X9298729Y-9930674D02*
X9298729Y-9978293D01*
X9298729Y-9978293D02*
X9289205Y-10016389D01*
X9289205Y-10016389D02*
X9279682Y-10035436D01*
X9279682Y-10035436D02*
X9270158Y-10044960D01*
X9270158Y-10044960D02*
X9251110Y-10054484D01*
X9251110Y-10054484D02*
X9232063Y-10054484D01*
X9232063Y-10054484D02*
X9213015Y-10044960D01*
X9213015Y-10044960D02*
X9203491Y-10035436D01*
X9203491Y-10035436D02*
X9193967Y-10016389D01*
X9193967Y-10016389D02*
X9184444Y-9978293D01*
X9184444Y-9978293D02*
X9184444Y-9930674D01*
X9184444Y-9930674D02*
X9193967Y-9892579D01*
X9193967Y-9892579D02*
X9203491Y-9873531D01*
X9203491Y-9873531D02*
X9213015Y-9864008D01*
X9213015Y-9864008D02*
X9232063Y-9854484D01*
X9422539Y-9854484D02*
X9441586Y-9854484D01*
X9441586Y-9854484D02*
X9460634Y-9864008D01*
X9460634Y-9864008D02*
X9470158Y-9873531D01*
X9470158Y-9873531D02*
X9479682Y-9892579D01*
X9479682Y-9892579D02*
X9489205Y-9930674D01*
X9489205Y-9930674D02*
X9489205Y-9978293D01*
X9489205Y-9978293D02*
X9479682Y-10016389D01*
X9479682Y-10016389D02*
X9470158Y-10035436D01*
X9470158Y-10035436D02*
X9460634Y-10044960D01*
X9460634Y-10044960D02*
X9441586Y-10054484D01*
X9441586Y-10054484D02*
X9422539Y-10054484D01*
X9422539Y-10054484D02*
X9403491Y-10044960D01*
X9403491Y-10044960D02*
X9393967Y-10035436D01*
X9393967Y-10035436D02*
X9384444Y-10016389D01*
X9384444Y-10016389D02*
X9374920Y-9978293D01*
X9374920Y-9978293D02*
X9374920Y-9930674D01*
X9374920Y-9930674D02*
X9384444Y-9892579D01*
X9384444Y-9892579D02*
X9393967Y-9873531D01*
X9393967Y-9873531D02*
X9403491Y-9864008D01*
X9403491Y-9864008D02*
X9422539Y-9854484D01*
X9574920Y-10054484D02*
X9574920Y-9921150D01*
X9574920Y-9940198D02*
X9584444Y-9930674D01*
X9584444Y-9930674D02*
X9603491Y-9921150D01*
X9603491Y-9921150D02*
X9632063Y-9921150D01*
X9632063Y-9921150D02*
X9651110Y-9930674D01*
X9651110Y-9930674D02*
X9660634Y-9949722D01*
X9660634Y-9949722D02*
X9660634Y-10054484D01*
X9660634Y-9949722D02*
X9670158Y-9930674D01*
X9670158Y-9930674D02*
X9689205Y-9921150D01*
X9689205Y-9921150D02*
X9717777Y-9921150D01*
X9717777Y-9921150D02*
X9736825Y-9930674D01*
X9736825Y-9930674D02*
X9746348Y-9949722D01*
X9746348Y-9949722D02*
X9746348Y-10054484D01*
X9841586Y-10054484D02*
X9841586Y-9921150D01*
X9841586Y-9940198D02*
X9851110Y-9930674D01*
X9851110Y-9930674D02*
X9870158Y-9921150D01*
X9870158Y-9921150D02*
X9898729Y-9921150D01*
X9898729Y-9921150D02*
X9917777Y-9930674D01*
X9917777Y-9930674D02*
X9927301Y-9949722D01*
X9927301Y-9949722D02*
X9927301Y-10054484D01*
X9927301Y-9949722D02*
X9936825Y-9930674D01*
X9936825Y-9930674D02*
X9955872Y-9921150D01*
X9955872Y-9921150D02*
X9984444Y-9921150D01*
X9984444Y-9921150D02*
X10003491Y-9930674D01*
X10003491Y-9930674D02*
X10013015Y-9949722D01*
X10013015Y-9949722D02*
X10013015Y-10054484D01*
X10403491Y-9844960D02*
X10232063Y-10102103D01*
X10660634Y-9854484D02*
X10679682Y-9854484D01*
X10679682Y-9854484D02*
X10698729Y-9864008D01*
X10698729Y-9864008D02*
X10708253Y-9873531D01*
X10708253Y-9873531D02*
X10717777Y-9892579D01*
X10717777Y-9892579D02*
X10727301Y-9930674D01*
X10727301Y-9930674D02*
X10727301Y-9978293D01*
X10727301Y-9978293D02*
X10717777Y-10016389D01*
X10717777Y-10016389D02*
X10708253Y-10035436D01*
X10708253Y-10035436D02*
X10698729Y-10044960D01*
X10698729Y-10044960D02*
X10679682Y-10054484D01*
X10679682Y-10054484D02*
X10660634Y-10054484D01*
X10660634Y-10054484D02*
X10641587Y-10044960D01*
X10641587Y-10044960D02*
X10632063Y-10035436D01*
X10632063Y-10035436D02*
X10622539Y-10016389D01*
X10622539Y-10016389D02*
X10613015Y-9978293D01*
X10613015Y-9978293D02*
X10613015Y-9930674D01*
X10613015Y-9930674D02*
X10622539Y-9892579D01*
X10622539Y-9892579D02*
X10632063Y-9873531D01*
X10632063Y-9873531D02*
X10641587Y-9864008D01*
X10641587Y-9864008D02*
X10660634Y-9854484D01*
X10813015Y-10035436D02*
X10822539Y-10044960D01*
X10822539Y-10044960D02*
X10813015Y-10054484D01*
X10813015Y-10054484D02*
X10803491Y-10044960D01*
X10803491Y-10044960D02*
X10813015Y-10035436D01*
X10813015Y-10035436D02*
X10813015Y-10054484D01*
X10946348Y-9854484D02*
X10965396Y-9854484D01*
X10965396Y-9854484D02*
X10984444Y-9864008D01*
X10984444Y-9864008D02*
X10993968Y-9873531D01*
X10993968Y-9873531D02*
X11003491Y-9892579D01*
X11003491Y-9892579D02*
X11013015Y-9930674D01*
X11013015Y-9930674D02*
X11013015Y-9978293D01*
X11013015Y-9978293D02*
X11003491Y-10016389D01*
X11003491Y-10016389D02*
X10993968Y-10035436D01*
X10993968Y-10035436D02*
X10984444Y-10044960D01*
X10984444Y-10044960D02*
X10965396Y-10054484D01*
X10965396Y-10054484D02*
X10946348Y-10054484D01*
X10946348Y-10054484D02*
X10927301Y-10044960D01*
X10927301Y-10044960D02*
X10917777Y-10035436D01*
X10917777Y-10035436D02*
X10908253Y-10016389D01*
X10908253Y-10016389D02*
X10898729Y-9978293D01*
X10898729Y-9978293D02*
X10898729Y-9930674D01*
X10898729Y-9930674D02*
X10908253Y-9892579D01*
X10908253Y-9892579D02*
X10917777Y-9873531D01*
X10917777Y-9873531D02*
X10927301Y-9864008D01*
X10927301Y-9864008D02*
X10946348Y-9854484D01*
X11203491Y-10054484D02*
X11089206Y-10054484D01*
X11146348Y-10054484D02*
X11146348Y-9854484D01*
X11146348Y-9854484D02*
X11127301Y-9883055D01*
X11127301Y-9883055D02*
X11108253Y-9902103D01*
X11108253Y-9902103D02*
X11089206Y-9911627D01*
X11393967Y-10054484D02*
X11279682Y-10054484D01*
X11336825Y-10054484D02*
X11336825Y-9854484D01*
X11336825Y-9854484D02*
X11317777Y-9883055D01*
X11317777Y-9883055D02*
X11298729Y-9902103D01*
X11298729Y-9902103D02*
X11279682Y-9911627D01*
X11508253Y-9940198D02*
X11489206Y-9930674D01*
X11489206Y-9930674D02*
X11479682Y-9921150D01*
X11479682Y-9921150D02*
X11470158Y-9902103D01*
X11470158Y-9902103D02*
X11470158Y-9892579D01*
X11470158Y-9892579D02*
X11479682Y-9873531D01*
X11479682Y-9873531D02*
X11489206Y-9864008D01*
X11489206Y-9864008D02*
X11508253Y-9854484D01*
X11508253Y-9854484D02*
X11546348Y-9854484D01*
X11546348Y-9854484D02*
X11565396Y-9864008D01*
X11565396Y-9864008D02*
X11574920Y-9873531D01*
X11574920Y-9873531D02*
X11584444Y-9892579D01*
X11584444Y-9892579D02*
X11584444Y-9902103D01*
X11584444Y-9902103D02*
X11574920Y-9921150D01*
X11574920Y-9921150D02*
X11565396Y-9930674D01*
X11565396Y-9930674D02*
X11546348Y-9940198D01*
X11546348Y-9940198D02*
X11508253Y-9940198D01*
X11508253Y-9940198D02*
X11489206Y-9949722D01*
X11489206Y-9949722D02*
X11479682Y-9959246D01*
X11479682Y-9959246D02*
X11470158Y-9978293D01*
X11470158Y-9978293D02*
X11470158Y-10016389D01*
X11470158Y-10016389D02*
X11479682Y-10035436D01*
X11479682Y-10035436D02*
X11489206Y-10044960D01*
X11489206Y-10044960D02*
X11508253Y-10054484D01*
X11508253Y-10054484D02*
X11546348Y-10054484D01*
X11546348Y-10054484D02*
X11565396Y-10044960D01*
X11565396Y-10044960D02*
X11574920Y-10035436D01*
X11574920Y-10035436D02*
X11584444Y-10016389D01*
X11584444Y-10016389D02*
X11584444Y-9978293D01*
X11584444Y-9978293D02*
X11574920Y-9959246D01*
X11574920Y-9959246D02*
X11565396Y-9949722D01*
X11565396Y-9949722D02*
X11546348Y-9940198D01*
X11660634Y-9854484D02*
X11660634Y-9892579D01*
X11736825Y-9854484D02*
X11736825Y-9892579D01*
X12032063Y-10130674D02*
X12022539Y-10121150D01*
X12022539Y-10121150D02*
X12003491Y-10092579D01*
X12003491Y-10092579D02*
X11993968Y-10073531D01*
X11993968Y-10073531D02*
X11984444Y-10044960D01*
X11984444Y-10044960D02*
X11974920Y-9997341D01*
X11974920Y-9997341D02*
X11974920Y-9959246D01*
X11974920Y-9959246D02*
X11984444Y-9911627D01*
X11984444Y-9911627D02*
X11993968Y-9883055D01*
X11993968Y-9883055D02*
X12003491Y-9864008D01*
X12003491Y-9864008D02*
X12022539Y-9835436D01*
X12022539Y-9835436D02*
X12032063Y-9825912D01*
X12213015Y-10054484D02*
X12098729Y-10054484D01*
X12155872Y-10054484D02*
X12155872Y-9854484D01*
X12155872Y-9854484D02*
X12136825Y-9883055D01*
X12136825Y-9883055D02*
X12117777Y-9902103D01*
X12117777Y-9902103D02*
X12098729Y-9911627D01*
X12384444Y-9854484D02*
X12346348Y-9854484D01*
X12346348Y-9854484D02*
X12327301Y-9864008D01*
X12327301Y-9864008D02*
X12317777Y-9873531D01*
X12317777Y-9873531D02*
X12298729Y-9902103D01*
X12298729Y-9902103D02*
X12289206Y-9940198D01*
X12289206Y-9940198D02*
X12289206Y-10016389D01*
X12289206Y-10016389D02*
X12298729Y-10035436D01*
X12298729Y-10035436D02*
X12308253Y-10044960D01*
X12308253Y-10044960D02*
X12327301Y-10054484D01*
X12327301Y-10054484D02*
X12365396Y-10054484D01*
X12365396Y-10054484D02*
X12384444Y-10044960D01*
X12384444Y-10044960D02*
X12393968Y-10035436D01*
X12393968Y-10035436D02*
X12403491Y-10016389D01*
X12403491Y-10016389D02*
X12403491Y-9968770D01*
X12403491Y-9968770D02*
X12393968Y-9949722D01*
X12393968Y-9949722D02*
X12384444Y-9940198D01*
X12384444Y-9940198D02*
X12365396Y-9930674D01*
X12365396Y-9930674D02*
X12327301Y-9930674D01*
X12327301Y-9930674D02*
X12308253Y-9940198D01*
X12308253Y-9940198D02*
X12298729Y-9949722D01*
X12298729Y-9949722D02*
X12289206Y-9968770D01*
X12498729Y-10054484D02*
X12536825Y-10054484D01*
X12536825Y-10054484D02*
X12555872Y-10044960D01*
X12555872Y-10044960D02*
X12565396Y-10035436D01*
X12565396Y-10035436D02*
X12584444Y-10006865D01*
X12584444Y-10006865D02*
X12593968Y-9968770D01*
X12593968Y-9968770D02*
X12593968Y-9892579D01*
X12593968Y-9892579D02*
X12584444Y-9873531D01*
X12584444Y-9873531D02*
X12574920Y-9864008D01*
X12574920Y-9864008D02*
X12555872Y-9854484D01*
X12555872Y-9854484D02*
X12517777Y-9854484D01*
X12517777Y-9854484D02*
X12498729Y-9864008D01*
X12498729Y-9864008D02*
X12489206Y-9873531D01*
X12489206Y-9873531D02*
X12479682Y-9892579D01*
X12479682Y-9892579D02*
X12479682Y-9940198D01*
X12479682Y-9940198D02*
X12489206Y-9959246D01*
X12489206Y-9959246D02*
X12498729Y-9968770D01*
X12498729Y-9968770D02*
X12517777Y-9978293D01*
X12517777Y-9978293D02*
X12555872Y-9978293D01*
X12555872Y-9978293D02*
X12574920Y-9968770D01*
X12574920Y-9968770D02*
X12584444Y-9959246D01*
X12584444Y-9959246D02*
X12593968Y-9940198D01*
X12832063Y-10054484D02*
X12832063Y-9854484D01*
X12917777Y-10054484D02*
X12917777Y-9949722D01*
X12917777Y-9949722D02*
X12908253Y-9930674D01*
X12908253Y-9930674D02*
X12889206Y-9921150D01*
X12889206Y-9921150D02*
X12860634Y-9921150D01*
X12860634Y-9921150D02*
X12841587Y-9930674D01*
X12841587Y-9930674D02*
X12832063Y-9940198D01*
X13041587Y-10054484D02*
X13022539Y-10044960D01*
X13022539Y-10044960D02*
X13013015Y-10035436D01*
X13013015Y-10035436D02*
X13003491Y-10016389D01*
X13003491Y-10016389D02*
X13003491Y-9959246D01*
X13003491Y-9959246D02*
X13013015Y-9940198D01*
X13013015Y-9940198D02*
X13022539Y-9930674D01*
X13022539Y-9930674D02*
X13041587Y-9921150D01*
X13041587Y-9921150D02*
X13070158Y-9921150D01*
X13070158Y-9921150D02*
X13089206Y-9930674D01*
X13089206Y-9930674D02*
X13098730Y-9940198D01*
X13098730Y-9940198D02*
X13108253Y-9959246D01*
X13108253Y-9959246D02*
X13108253Y-10016389D01*
X13108253Y-10016389D02*
X13098730Y-10035436D01*
X13098730Y-10035436D02*
X13089206Y-10044960D01*
X13089206Y-10044960D02*
X13070158Y-10054484D01*
X13070158Y-10054484D02*
X13041587Y-10054484D01*
X13222539Y-10054484D02*
X13203491Y-10044960D01*
X13203491Y-10044960D02*
X13193968Y-10025912D01*
X13193968Y-10025912D02*
X13193968Y-9854484D01*
X13374920Y-10044960D02*
X13355872Y-10054484D01*
X13355872Y-10054484D02*
X13317777Y-10054484D01*
X13317777Y-10054484D02*
X13298730Y-10044960D01*
X13298730Y-10044960D02*
X13289206Y-10025912D01*
X13289206Y-10025912D02*
X13289206Y-9949722D01*
X13289206Y-9949722D02*
X13298730Y-9930674D01*
X13298730Y-9930674D02*
X13317777Y-9921150D01*
X13317777Y-9921150D02*
X13355872Y-9921150D01*
X13355872Y-9921150D02*
X13374920Y-9930674D01*
X13374920Y-9930674D02*
X13384444Y-9949722D01*
X13384444Y-9949722D02*
X13384444Y-9968770D01*
X13384444Y-9968770D02*
X13289206Y-9987817D01*
X13460634Y-10044960D02*
X13479682Y-10054484D01*
X13479682Y-10054484D02*
X13517777Y-10054484D01*
X13517777Y-10054484D02*
X13536825Y-10044960D01*
X13536825Y-10044960D02*
X13546349Y-10025912D01*
X13546349Y-10025912D02*
X13546349Y-10016389D01*
X13546349Y-10016389D02*
X13536825Y-9997341D01*
X13536825Y-9997341D02*
X13517777Y-9987817D01*
X13517777Y-9987817D02*
X13489206Y-9987817D01*
X13489206Y-9987817D02*
X13470158Y-9978293D01*
X13470158Y-9978293D02*
X13460634Y-9959246D01*
X13460634Y-9959246D02*
X13460634Y-9949722D01*
X13460634Y-9949722D02*
X13470158Y-9930674D01*
X13470158Y-9930674D02*
X13489206Y-9921150D01*
X13489206Y-9921150D02*
X13517777Y-9921150D01*
X13517777Y-9921150D02*
X13536825Y-9930674D01*
X13613015Y-10130674D02*
X13622539Y-10121150D01*
X13622539Y-10121150D02*
X13641587Y-10092579D01*
X13641587Y-10092579D02*
X13651111Y-10073531D01*
X13651111Y-10073531D02*
X13660634Y-10044960D01*
X13660634Y-10044960D02*
X13670158Y-9997341D01*
X13670158Y-9997341D02*
X13670158Y-9959246D01*
X13670158Y-9959246D02*
X13660634Y-9911627D01*
X13660634Y-9911627D02*
X13651111Y-9883055D01*
X13651111Y-9883055D02*
X13641587Y-9864008D01*
X13641587Y-9864008D02*
X13622539Y-9835436D01*
X13622539Y-9835436D02*
X13613015Y-9825912D01*
D10*
X8457000Y-10227000D02*
G75*
G02*
X8357000Y-10227000I-50000J0D01*
G01*
X8357000Y-10227000D02*
G75*
G02*
X8457000Y-10227000I50000J0D01*
G01*
D11*
X8822539Y-10318484D02*
X8708253Y-10318484D01*
X8765396Y-10318484D02*
X8765396Y-10118484D01*
X8765396Y-10118484D02*
X8746348Y-10147055D01*
X8746348Y-10147055D02*
X8727301Y-10166103D01*
X8727301Y-10166103D02*
X8708253Y-10175627D01*
X8908253Y-10299436D02*
X8917777Y-10308960D01*
X8917777Y-10308960D02*
X8908253Y-10318484D01*
X8908253Y-10318484D02*
X8898729Y-10308960D01*
X8898729Y-10308960D02*
X8908253Y-10299436D01*
X8908253Y-10299436D02*
X8908253Y-10318484D01*
X9041586Y-10118484D02*
X9060634Y-10118484D01*
X9060634Y-10118484D02*
X9079682Y-10128008D01*
X9079682Y-10128008D02*
X9089205Y-10137531D01*
X9089205Y-10137531D02*
X9098729Y-10156579D01*
X9098729Y-10156579D02*
X9108253Y-10194674D01*
X9108253Y-10194674D02*
X9108253Y-10242293D01*
X9108253Y-10242293D02*
X9098729Y-10280389D01*
X9098729Y-10280389D02*
X9089205Y-10299436D01*
X9089205Y-10299436D02*
X9079682Y-10308960D01*
X9079682Y-10308960D02*
X9060634Y-10318484D01*
X9060634Y-10318484D02*
X9041586Y-10318484D01*
X9041586Y-10318484D02*
X9022539Y-10308960D01*
X9022539Y-10308960D02*
X9013015Y-10299436D01*
X9013015Y-10299436D02*
X9003491Y-10280389D01*
X9003491Y-10280389D02*
X8993967Y-10242293D01*
X8993967Y-10242293D02*
X8993967Y-10194674D01*
X8993967Y-10194674D02*
X9003491Y-10156579D01*
X9003491Y-10156579D02*
X9013015Y-10137531D01*
X9013015Y-10137531D02*
X9022539Y-10128008D01*
X9022539Y-10128008D02*
X9041586Y-10118484D01*
X9232063Y-10118484D02*
X9251110Y-10118484D01*
X9251110Y-10118484D02*
X9270158Y-10128008D01*
X9270158Y-10128008D02*
X9279682Y-10137531D01*
X9279682Y-10137531D02*
X9289205Y-10156579D01*
X9289205Y-10156579D02*
X9298729Y-10194674D01*
X9298729Y-10194674D02*
X9298729Y-10242293D01*
X9298729Y-10242293D02*
X9289205Y-10280389D01*
X9289205Y-10280389D02*
X9279682Y-10299436D01*
X9279682Y-10299436D02*
X9270158Y-10308960D01*
X9270158Y-10308960D02*
X9251110Y-10318484D01*
X9251110Y-10318484D02*
X9232063Y-10318484D01*
X9232063Y-10318484D02*
X9213015Y-10308960D01*
X9213015Y-10308960D02*
X9203491Y-10299436D01*
X9203491Y-10299436D02*
X9193967Y-10280389D01*
X9193967Y-10280389D02*
X9184444Y-10242293D01*
X9184444Y-10242293D02*
X9184444Y-10194674D01*
X9184444Y-10194674D02*
X9193967Y-10156579D01*
X9193967Y-10156579D02*
X9203491Y-10137531D01*
X9203491Y-10137531D02*
X9213015Y-10128008D01*
X9213015Y-10128008D02*
X9232063Y-10118484D01*
X9422539Y-10118484D02*
X9441586Y-10118484D01*
X9441586Y-10118484D02*
X9460634Y-10128008D01*
X9460634Y-10128008D02*
X9470158Y-10137531D01*
X9470158Y-10137531D02*
X9479682Y-10156579D01*
X9479682Y-10156579D02*
X9489205Y-10194674D01*
X9489205Y-10194674D02*
X9489205Y-10242293D01*
X9489205Y-10242293D02*
X9479682Y-10280389D01*
X9479682Y-10280389D02*
X9470158Y-10299436D01*
X9470158Y-10299436D02*
X9460634Y-10308960D01*
X9460634Y-10308960D02*
X9441586Y-10318484D01*
X9441586Y-10318484D02*
X9422539Y-10318484D01*
X9422539Y-10318484D02*
X9403491Y-10308960D01*
X9403491Y-10308960D02*
X9393967Y-10299436D01*
X9393967Y-10299436D02*
X9384444Y-10280389D01*
X9384444Y-10280389D02*
X9374920Y-10242293D01*
X9374920Y-10242293D02*
X9374920Y-10194674D01*
X9374920Y-10194674D02*
X9384444Y-10156579D01*
X9384444Y-10156579D02*
X9393967Y-10137531D01*
X9393967Y-10137531D02*
X9403491Y-10128008D01*
X9403491Y-10128008D02*
X9422539Y-10118484D01*
X9574920Y-10318484D02*
X9574920Y-10185150D01*
X9574920Y-10204198D02*
X9584444Y-10194674D01*
X9584444Y-10194674D02*
X9603491Y-10185150D01*
X9603491Y-10185150D02*
X9632063Y-10185150D01*
X9632063Y-10185150D02*
X9651110Y-10194674D01*
X9651110Y-10194674D02*
X9660634Y-10213722D01*
X9660634Y-10213722D02*
X9660634Y-10318484D01*
X9660634Y-10213722D02*
X9670158Y-10194674D01*
X9670158Y-10194674D02*
X9689205Y-10185150D01*
X9689205Y-10185150D02*
X9717777Y-10185150D01*
X9717777Y-10185150D02*
X9736825Y-10194674D01*
X9736825Y-10194674D02*
X9746348Y-10213722D01*
X9746348Y-10213722D02*
X9746348Y-10318484D01*
X9841586Y-10318484D02*
X9841586Y-10185150D01*
X9841586Y-10204198D02*
X9851110Y-10194674D01*
X9851110Y-10194674D02*
X9870158Y-10185150D01*
X9870158Y-10185150D02*
X9898729Y-10185150D01*
X9898729Y-10185150D02*
X9917777Y-10194674D01*
X9917777Y-10194674D02*
X9927301Y-10213722D01*
X9927301Y-10213722D02*
X9927301Y-10318484D01*
X9927301Y-10213722D02*
X9936825Y-10194674D01*
X9936825Y-10194674D02*
X9955872Y-10185150D01*
X9955872Y-10185150D02*
X9984444Y-10185150D01*
X9984444Y-10185150D02*
X10003491Y-10194674D01*
X10003491Y-10194674D02*
X10013015Y-10213722D01*
X10013015Y-10213722D02*
X10013015Y-10318484D01*
X10403491Y-10108960D02*
X10232063Y-10366103D01*
X10660634Y-10118484D02*
X10679682Y-10118484D01*
X10679682Y-10118484D02*
X10698729Y-10128008D01*
X10698729Y-10128008D02*
X10708253Y-10137531D01*
X10708253Y-10137531D02*
X10717777Y-10156579D01*
X10717777Y-10156579D02*
X10727301Y-10194674D01*
X10727301Y-10194674D02*
X10727301Y-10242293D01*
X10727301Y-10242293D02*
X10717777Y-10280389D01*
X10717777Y-10280389D02*
X10708253Y-10299436D01*
X10708253Y-10299436D02*
X10698729Y-10308960D01*
X10698729Y-10308960D02*
X10679682Y-10318484D01*
X10679682Y-10318484D02*
X10660634Y-10318484D01*
X10660634Y-10318484D02*
X10641587Y-10308960D01*
X10641587Y-10308960D02*
X10632063Y-10299436D01*
X10632063Y-10299436D02*
X10622539Y-10280389D01*
X10622539Y-10280389D02*
X10613015Y-10242293D01*
X10613015Y-10242293D02*
X10613015Y-10194674D01*
X10613015Y-10194674D02*
X10622539Y-10156579D01*
X10622539Y-10156579D02*
X10632063Y-10137531D01*
X10632063Y-10137531D02*
X10641587Y-10128008D01*
X10641587Y-10128008D02*
X10660634Y-10118484D01*
X10813015Y-10299436D02*
X10822539Y-10308960D01*
X10822539Y-10308960D02*
X10813015Y-10318484D01*
X10813015Y-10318484D02*
X10803491Y-10308960D01*
X10803491Y-10308960D02*
X10813015Y-10299436D01*
X10813015Y-10299436D02*
X10813015Y-10318484D01*
X10946348Y-10118484D02*
X10965396Y-10118484D01*
X10965396Y-10118484D02*
X10984444Y-10128008D01*
X10984444Y-10128008D02*
X10993968Y-10137531D01*
X10993968Y-10137531D02*
X11003491Y-10156579D01*
X11003491Y-10156579D02*
X11013015Y-10194674D01*
X11013015Y-10194674D02*
X11013015Y-10242293D01*
X11013015Y-10242293D02*
X11003491Y-10280389D01*
X11003491Y-10280389D02*
X10993968Y-10299436D01*
X10993968Y-10299436D02*
X10984444Y-10308960D01*
X10984444Y-10308960D02*
X10965396Y-10318484D01*
X10965396Y-10318484D02*
X10946348Y-10318484D01*
X10946348Y-10318484D02*
X10927301Y-10308960D01*
X10927301Y-10308960D02*
X10917777Y-10299436D01*
X10917777Y-10299436D02*
X10908253Y-10280389D01*
X10908253Y-10280389D02*
X10898729Y-10242293D01*
X10898729Y-10242293D02*
X10898729Y-10194674D01*
X10898729Y-10194674D02*
X10908253Y-10156579D01*
X10908253Y-10156579D02*
X10917777Y-10137531D01*
X10917777Y-10137531D02*
X10927301Y-10128008D01*
X10927301Y-10128008D02*
X10946348Y-10118484D01*
X11079682Y-10118484D02*
X11203491Y-10118484D01*
X11203491Y-10118484D02*
X11136825Y-10194674D01*
X11136825Y-10194674D02*
X11165396Y-10194674D01*
X11165396Y-10194674D02*
X11184444Y-10204198D01*
X11184444Y-10204198D02*
X11193967Y-10213722D01*
X11193967Y-10213722D02*
X11203491Y-10232770D01*
X11203491Y-10232770D02*
X11203491Y-10280389D01*
X11203491Y-10280389D02*
X11193967Y-10299436D01*
X11193967Y-10299436D02*
X11184444Y-10308960D01*
X11184444Y-10308960D02*
X11165396Y-10318484D01*
X11165396Y-10318484D02*
X11108253Y-10318484D01*
X11108253Y-10318484D02*
X11089206Y-10308960D01*
X11089206Y-10308960D02*
X11079682Y-10299436D01*
X11298729Y-10318484D02*
X11336825Y-10318484D01*
X11336825Y-10318484D02*
X11355872Y-10308960D01*
X11355872Y-10308960D02*
X11365396Y-10299436D01*
X11365396Y-10299436D02*
X11384444Y-10270865D01*
X11384444Y-10270865D02*
X11393967Y-10232770D01*
X11393967Y-10232770D02*
X11393967Y-10156579D01*
X11393967Y-10156579D02*
X11384444Y-10137531D01*
X11384444Y-10137531D02*
X11374920Y-10128008D01*
X11374920Y-10128008D02*
X11355872Y-10118484D01*
X11355872Y-10118484D02*
X11317777Y-10118484D01*
X11317777Y-10118484D02*
X11298729Y-10128008D01*
X11298729Y-10128008D02*
X11289206Y-10137531D01*
X11289206Y-10137531D02*
X11279682Y-10156579D01*
X11279682Y-10156579D02*
X11279682Y-10204198D01*
X11279682Y-10204198D02*
X11289206Y-10223246D01*
X11289206Y-10223246D02*
X11298729Y-10232770D01*
X11298729Y-10232770D02*
X11317777Y-10242293D01*
X11317777Y-10242293D02*
X11355872Y-10242293D01*
X11355872Y-10242293D02*
X11374920Y-10232770D01*
X11374920Y-10232770D02*
X11384444Y-10223246D01*
X11384444Y-10223246D02*
X11393967Y-10204198D01*
X11565396Y-10185150D02*
X11565396Y-10318484D01*
X11517777Y-10108960D02*
X11470158Y-10251817D01*
X11470158Y-10251817D02*
X11593967Y-10251817D01*
X11660634Y-10118484D02*
X11660634Y-10156579D01*
X11736825Y-10118484D02*
X11736825Y-10156579D01*
X12032063Y-10394674D02*
X12022539Y-10385150D01*
X12022539Y-10385150D02*
X12003491Y-10356579D01*
X12003491Y-10356579D02*
X11993968Y-10337531D01*
X11993968Y-10337531D02*
X11984444Y-10308960D01*
X11984444Y-10308960D02*
X11974920Y-10261341D01*
X11974920Y-10261341D02*
X11974920Y-10223246D01*
X11974920Y-10223246D02*
X11984444Y-10175627D01*
X11984444Y-10175627D02*
X11993968Y-10147055D01*
X11993968Y-10147055D02*
X12003491Y-10128008D01*
X12003491Y-10128008D02*
X12022539Y-10099436D01*
X12022539Y-10099436D02*
X12032063Y-10089912D01*
X12098729Y-10137531D02*
X12108253Y-10128008D01*
X12108253Y-10128008D02*
X12127301Y-10118484D01*
X12127301Y-10118484D02*
X12174920Y-10118484D01*
X12174920Y-10118484D02*
X12193968Y-10128008D01*
X12193968Y-10128008D02*
X12203491Y-10137531D01*
X12203491Y-10137531D02*
X12213015Y-10156579D01*
X12213015Y-10156579D02*
X12213015Y-10175627D01*
X12213015Y-10175627D02*
X12203491Y-10204198D01*
X12203491Y-10204198D02*
X12089206Y-10318484D01*
X12089206Y-10318484D02*
X12213015Y-10318484D01*
X12451110Y-10318484D02*
X12451110Y-10118484D01*
X12536825Y-10318484D02*
X12536825Y-10213722D01*
X12536825Y-10213722D02*
X12527301Y-10194674D01*
X12527301Y-10194674D02*
X12508253Y-10185150D01*
X12508253Y-10185150D02*
X12479682Y-10185150D01*
X12479682Y-10185150D02*
X12460634Y-10194674D01*
X12460634Y-10194674D02*
X12451110Y-10204198D01*
X12660634Y-10318484D02*
X12641587Y-10308960D01*
X12641587Y-10308960D02*
X12632063Y-10299436D01*
X12632063Y-10299436D02*
X12622539Y-10280389D01*
X12622539Y-10280389D02*
X12622539Y-10223246D01*
X12622539Y-10223246D02*
X12632063Y-10204198D01*
X12632063Y-10204198D02*
X12641587Y-10194674D01*
X12641587Y-10194674D02*
X12660634Y-10185150D01*
X12660634Y-10185150D02*
X12689206Y-10185150D01*
X12689206Y-10185150D02*
X12708253Y-10194674D01*
X12708253Y-10194674D02*
X12717777Y-10204198D01*
X12717777Y-10204198D02*
X12727301Y-10223246D01*
X12727301Y-10223246D02*
X12727301Y-10280389D01*
X12727301Y-10280389D02*
X12717777Y-10299436D01*
X12717777Y-10299436D02*
X12708253Y-10308960D01*
X12708253Y-10308960D02*
X12689206Y-10318484D01*
X12689206Y-10318484D02*
X12660634Y-10318484D01*
X12841587Y-10318484D02*
X12822539Y-10308960D01*
X12822539Y-10308960D02*
X12813015Y-10289912D01*
X12813015Y-10289912D02*
X12813015Y-10118484D01*
X12993968Y-10308960D02*
X12974920Y-10318484D01*
X12974920Y-10318484D02*
X12936825Y-10318484D01*
X12936825Y-10318484D02*
X12917777Y-10308960D01*
X12917777Y-10308960D02*
X12908253Y-10289912D01*
X12908253Y-10289912D02*
X12908253Y-10213722D01*
X12908253Y-10213722D02*
X12917777Y-10194674D01*
X12917777Y-10194674D02*
X12936825Y-10185150D01*
X12936825Y-10185150D02*
X12974920Y-10185150D01*
X12974920Y-10185150D02*
X12993968Y-10194674D01*
X12993968Y-10194674D02*
X13003491Y-10213722D01*
X13003491Y-10213722D02*
X13003491Y-10232770D01*
X13003491Y-10232770D02*
X12908253Y-10251817D01*
X13079682Y-10308960D02*
X13098730Y-10318484D01*
X13098730Y-10318484D02*
X13136825Y-10318484D01*
X13136825Y-10318484D02*
X13155872Y-10308960D01*
X13155872Y-10308960D02*
X13165396Y-10289912D01*
X13165396Y-10289912D02*
X13165396Y-10280389D01*
X13165396Y-10280389D02*
X13155872Y-10261341D01*
X13155872Y-10261341D02*
X13136825Y-10251817D01*
X13136825Y-10251817D02*
X13108253Y-10251817D01*
X13108253Y-10251817D02*
X13089206Y-10242293D01*
X13089206Y-10242293D02*
X13079682Y-10223246D01*
X13079682Y-10223246D02*
X13079682Y-10213722D01*
X13079682Y-10213722D02*
X13089206Y-10194674D01*
X13089206Y-10194674D02*
X13108253Y-10185150D01*
X13108253Y-10185150D02*
X13136825Y-10185150D01*
X13136825Y-10185150D02*
X13155872Y-10194674D01*
X13232063Y-10394674D02*
X13241587Y-10385150D01*
X13241587Y-10385150D02*
X13260634Y-10356579D01*
X13260634Y-10356579D02*
X13270158Y-10337531D01*
X13270158Y-10337531D02*
X13279682Y-10308960D01*
X13279682Y-10308960D02*
X13289206Y-10261341D01*
X13289206Y-10261341D02*
X13289206Y-10223246D01*
X13289206Y-10223246D02*
X13279682Y-10175627D01*
X13279682Y-10175627D02*
X13270158Y-10147055D01*
X13270158Y-10147055D02*
X13260634Y-10128008D01*
X13260634Y-10128008D02*
X13241587Y-10099436D01*
X13241587Y-10099436D02*
X13232063Y-10089912D01*
D12*
X8379500Y-10413500D02*
X8379500Y-10568500D01*
X8302000Y-10491000D02*
X8457000Y-10491000D01*
D11*
X8822539Y-10582484D02*
X8708253Y-10582484D01*
X8765396Y-10582484D02*
X8765396Y-10382484D01*
X8765396Y-10382484D02*
X8746348Y-10411055D01*
X8746348Y-10411055D02*
X8727301Y-10430103D01*
X8727301Y-10430103D02*
X8708253Y-10439627D01*
X8908253Y-10563436D02*
X8917777Y-10572960D01*
X8917777Y-10572960D02*
X8908253Y-10582484D01*
X8908253Y-10582484D02*
X8898729Y-10572960D01*
X8898729Y-10572960D02*
X8908253Y-10563436D01*
X8908253Y-10563436D02*
X8908253Y-10582484D01*
X9098729Y-10382484D02*
X9003491Y-10382484D01*
X9003491Y-10382484D02*
X8993967Y-10477722D01*
X8993967Y-10477722D02*
X9003491Y-10468198D01*
X9003491Y-10468198D02*
X9022539Y-10458674D01*
X9022539Y-10458674D02*
X9070158Y-10458674D01*
X9070158Y-10458674D02*
X9089205Y-10468198D01*
X9089205Y-10468198D02*
X9098729Y-10477722D01*
X9098729Y-10477722D02*
X9108253Y-10496770D01*
X9108253Y-10496770D02*
X9108253Y-10544389D01*
X9108253Y-10544389D02*
X9098729Y-10563436D01*
X9098729Y-10563436D02*
X9089205Y-10572960D01*
X9089205Y-10572960D02*
X9070158Y-10582484D01*
X9070158Y-10582484D02*
X9022539Y-10582484D01*
X9022539Y-10582484D02*
X9003491Y-10572960D01*
X9003491Y-10572960D02*
X8993967Y-10563436D01*
X9289205Y-10382484D02*
X9193967Y-10382484D01*
X9193967Y-10382484D02*
X9184444Y-10477722D01*
X9184444Y-10477722D02*
X9193967Y-10468198D01*
X9193967Y-10468198D02*
X9213015Y-10458674D01*
X9213015Y-10458674D02*
X9260634Y-10458674D01*
X9260634Y-10458674D02*
X9279682Y-10468198D01*
X9279682Y-10468198D02*
X9289205Y-10477722D01*
X9289205Y-10477722D02*
X9298729Y-10496770D01*
X9298729Y-10496770D02*
X9298729Y-10544389D01*
X9298729Y-10544389D02*
X9289205Y-10563436D01*
X9289205Y-10563436D02*
X9279682Y-10572960D01*
X9279682Y-10572960D02*
X9260634Y-10582484D01*
X9260634Y-10582484D02*
X9213015Y-10582484D01*
X9213015Y-10582484D02*
X9193967Y-10572960D01*
X9193967Y-10572960D02*
X9184444Y-10563436D01*
X9422539Y-10382484D02*
X9441586Y-10382484D01*
X9441586Y-10382484D02*
X9460634Y-10392008D01*
X9460634Y-10392008D02*
X9470158Y-10401531D01*
X9470158Y-10401531D02*
X9479682Y-10420579D01*
X9479682Y-10420579D02*
X9489205Y-10458674D01*
X9489205Y-10458674D02*
X9489205Y-10506293D01*
X9489205Y-10506293D02*
X9479682Y-10544389D01*
X9479682Y-10544389D02*
X9470158Y-10563436D01*
X9470158Y-10563436D02*
X9460634Y-10572960D01*
X9460634Y-10572960D02*
X9441586Y-10582484D01*
X9441586Y-10582484D02*
X9422539Y-10582484D01*
X9422539Y-10582484D02*
X9403491Y-10572960D01*
X9403491Y-10572960D02*
X9393967Y-10563436D01*
X9393967Y-10563436D02*
X9384444Y-10544389D01*
X9384444Y-10544389D02*
X9374920Y-10506293D01*
X9374920Y-10506293D02*
X9374920Y-10458674D01*
X9374920Y-10458674D02*
X9384444Y-10420579D01*
X9384444Y-10420579D02*
X9393967Y-10401531D01*
X9393967Y-10401531D02*
X9403491Y-10392008D01*
X9403491Y-10392008D02*
X9422539Y-10382484D01*
X9574920Y-10582484D02*
X9574920Y-10449150D01*
X9574920Y-10468198D02*
X9584444Y-10458674D01*
X9584444Y-10458674D02*
X9603491Y-10449150D01*
X9603491Y-10449150D02*
X9632063Y-10449150D01*
X9632063Y-10449150D02*
X9651110Y-10458674D01*
X9651110Y-10458674D02*
X9660634Y-10477722D01*
X9660634Y-10477722D02*
X9660634Y-10582484D01*
X9660634Y-10477722D02*
X9670158Y-10458674D01*
X9670158Y-10458674D02*
X9689205Y-10449150D01*
X9689205Y-10449150D02*
X9717777Y-10449150D01*
X9717777Y-10449150D02*
X9736825Y-10458674D01*
X9736825Y-10458674D02*
X9746348Y-10477722D01*
X9746348Y-10477722D02*
X9746348Y-10582484D01*
X9841586Y-10582484D02*
X9841586Y-10449150D01*
X9841586Y-10468198D02*
X9851110Y-10458674D01*
X9851110Y-10458674D02*
X9870158Y-10449150D01*
X9870158Y-10449150D02*
X9898729Y-10449150D01*
X9898729Y-10449150D02*
X9917777Y-10458674D01*
X9917777Y-10458674D02*
X9927301Y-10477722D01*
X9927301Y-10477722D02*
X9927301Y-10582484D01*
X9927301Y-10477722D02*
X9936825Y-10458674D01*
X9936825Y-10458674D02*
X9955872Y-10449150D01*
X9955872Y-10449150D02*
X9984444Y-10449150D01*
X9984444Y-10449150D02*
X10003491Y-10458674D01*
X10003491Y-10458674D02*
X10013015Y-10477722D01*
X10013015Y-10477722D02*
X10013015Y-10582484D01*
X10403491Y-10372960D02*
X10232063Y-10630103D01*
X10660634Y-10382484D02*
X10679682Y-10382484D01*
X10679682Y-10382484D02*
X10698729Y-10392008D01*
X10698729Y-10392008D02*
X10708253Y-10401531D01*
X10708253Y-10401531D02*
X10717777Y-10420579D01*
X10717777Y-10420579D02*
X10727301Y-10458674D01*
X10727301Y-10458674D02*
X10727301Y-10506293D01*
X10727301Y-10506293D02*
X10717777Y-10544389D01*
X10717777Y-10544389D02*
X10708253Y-10563436D01*
X10708253Y-10563436D02*
X10698729Y-10572960D01*
X10698729Y-10572960D02*
X10679682Y-10582484D01*
X10679682Y-10582484D02*
X10660634Y-10582484D01*
X10660634Y-10582484D02*
X10641587Y-10572960D01*
X10641587Y-10572960D02*
X10632063Y-10563436D01*
X10632063Y-10563436D02*
X10622539Y-10544389D01*
X10622539Y-10544389D02*
X10613015Y-10506293D01*
X10613015Y-10506293D02*
X10613015Y-10458674D01*
X10613015Y-10458674D02*
X10622539Y-10420579D01*
X10622539Y-10420579D02*
X10632063Y-10401531D01*
X10632063Y-10401531D02*
X10641587Y-10392008D01*
X10641587Y-10392008D02*
X10660634Y-10382484D01*
X10813015Y-10563436D02*
X10822539Y-10572960D01*
X10822539Y-10572960D02*
X10813015Y-10582484D01*
X10813015Y-10582484D02*
X10803491Y-10572960D01*
X10803491Y-10572960D02*
X10813015Y-10563436D01*
X10813015Y-10563436D02*
X10813015Y-10582484D01*
X10946348Y-10382484D02*
X10965396Y-10382484D01*
X10965396Y-10382484D02*
X10984444Y-10392008D01*
X10984444Y-10392008D02*
X10993968Y-10401531D01*
X10993968Y-10401531D02*
X11003491Y-10420579D01*
X11003491Y-10420579D02*
X11013015Y-10458674D01*
X11013015Y-10458674D02*
X11013015Y-10506293D01*
X11013015Y-10506293D02*
X11003491Y-10544389D01*
X11003491Y-10544389D02*
X10993968Y-10563436D01*
X10993968Y-10563436D02*
X10984444Y-10572960D01*
X10984444Y-10572960D02*
X10965396Y-10582484D01*
X10965396Y-10582484D02*
X10946348Y-10582484D01*
X10946348Y-10582484D02*
X10927301Y-10572960D01*
X10927301Y-10572960D02*
X10917777Y-10563436D01*
X10917777Y-10563436D02*
X10908253Y-10544389D01*
X10908253Y-10544389D02*
X10898729Y-10506293D01*
X10898729Y-10506293D02*
X10898729Y-10458674D01*
X10898729Y-10458674D02*
X10908253Y-10420579D01*
X10908253Y-10420579D02*
X10917777Y-10401531D01*
X10917777Y-10401531D02*
X10927301Y-10392008D01*
X10927301Y-10392008D02*
X10946348Y-10382484D01*
X11184444Y-10382484D02*
X11146348Y-10382484D01*
X11146348Y-10382484D02*
X11127301Y-10392008D01*
X11127301Y-10392008D02*
X11117777Y-10401531D01*
X11117777Y-10401531D02*
X11098729Y-10430103D01*
X11098729Y-10430103D02*
X11089206Y-10468198D01*
X11089206Y-10468198D02*
X11089206Y-10544389D01*
X11089206Y-10544389D02*
X11098729Y-10563436D01*
X11098729Y-10563436D02*
X11108253Y-10572960D01*
X11108253Y-10572960D02*
X11127301Y-10582484D01*
X11127301Y-10582484D02*
X11165396Y-10582484D01*
X11165396Y-10582484D02*
X11184444Y-10572960D01*
X11184444Y-10572960D02*
X11193967Y-10563436D01*
X11193967Y-10563436D02*
X11203491Y-10544389D01*
X11203491Y-10544389D02*
X11203491Y-10496770D01*
X11203491Y-10496770D02*
X11193967Y-10477722D01*
X11193967Y-10477722D02*
X11184444Y-10468198D01*
X11184444Y-10468198D02*
X11165396Y-10458674D01*
X11165396Y-10458674D02*
X11127301Y-10458674D01*
X11127301Y-10458674D02*
X11108253Y-10468198D01*
X11108253Y-10468198D02*
X11098729Y-10477722D01*
X11098729Y-10477722D02*
X11089206Y-10496770D01*
X11393967Y-10582484D02*
X11279682Y-10582484D01*
X11336825Y-10582484D02*
X11336825Y-10382484D01*
X11336825Y-10382484D02*
X11317777Y-10411055D01*
X11317777Y-10411055D02*
X11298729Y-10430103D01*
X11298729Y-10430103D02*
X11279682Y-10439627D01*
X11517777Y-10382484D02*
X11536825Y-10382484D01*
X11536825Y-10382484D02*
X11555872Y-10392008D01*
X11555872Y-10392008D02*
X11565396Y-10401531D01*
X11565396Y-10401531D02*
X11574920Y-10420579D01*
X11574920Y-10420579D02*
X11584444Y-10458674D01*
X11584444Y-10458674D02*
X11584444Y-10506293D01*
X11584444Y-10506293D02*
X11574920Y-10544389D01*
X11574920Y-10544389D02*
X11565396Y-10563436D01*
X11565396Y-10563436D02*
X11555872Y-10572960D01*
X11555872Y-10572960D02*
X11536825Y-10582484D01*
X11536825Y-10582484D02*
X11517777Y-10582484D01*
X11517777Y-10582484D02*
X11498729Y-10572960D01*
X11498729Y-10572960D02*
X11489206Y-10563436D01*
X11489206Y-10563436D02*
X11479682Y-10544389D01*
X11479682Y-10544389D02*
X11470158Y-10506293D01*
X11470158Y-10506293D02*
X11470158Y-10458674D01*
X11470158Y-10458674D02*
X11479682Y-10420579D01*
X11479682Y-10420579D02*
X11489206Y-10401531D01*
X11489206Y-10401531D02*
X11498729Y-10392008D01*
X11498729Y-10392008D02*
X11517777Y-10382484D01*
X11660634Y-10382484D02*
X11660634Y-10420579D01*
X11736825Y-10382484D02*
X11736825Y-10420579D01*
X12032063Y-10658674D02*
X12022539Y-10649150D01*
X12022539Y-10649150D02*
X12003491Y-10620579D01*
X12003491Y-10620579D02*
X11993968Y-10601531D01*
X11993968Y-10601531D02*
X11984444Y-10572960D01*
X11984444Y-10572960D02*
X11974920Y-10525341D01*
X11974920Y-10525341D02*
X11974920Y-10487246D01*
X11974920Y-10487246D02*
X11984444Y-10439627D01*
X11984444Y-10439627D02*
X11993968Y-10411055D01*
X11993968Y-10411055D02*
X12003491Y-10392008D01*
X12003491Y-10392008D02*
X12022539Y-10363436D01*
X12022539Y-10363436D02*
X12032063Y-10353912D01*
X12098729Y-10401531D02*
X12108253Y-10392008D01*
X12108253Y-10392008D02*
X12127301Y-10382484D01*
X12127301Y-10382484D02*
X12174920Y-10382484D01*
X12174920Y-10382484D02*
X12193968Y-10392008D01*
X12193968Y-10392008D02*
X12203491Y-10401531D01*
X12203491Y-10401531D02*
X12213015Y-10420579D01*
X12213015Y-10420579D02*
X12213015Y-10439627D01*
X12213015Y-10439627D02*
X12203491Y-10468198D01*
X12203491Y-10468198D02*
X12089206Y-10582484D01*
X12089206Y-10582484D02*
X12213015Y-10582484D01*
X12451110Y-10582484D02*
X12451110Y-10382484D01*
X12536825Y-10582484D02*
X12536825Y-10477722D01*
X12536825Y-10477722D02*
X12527301Y-10458674D01*
X12527301Y-10458674D02*
X12508253Y-10449150D01*
X12508253Y-10449150D02*
X12479682Y-10449150D01*
X12479682Y-10449150D02*
X12460634Y-10458674D01*
X12460634Y-10458674D02*
X12451110Y-10468198D01*
X12660634Y-10582484D02*
X12641587Y-10572960D01*
X12641587Y-10572960D02*
X12632063Y-10563436D01*
X12632063Y-10563436D02*
X12622539Y-10544389D01*
X12622539Y-10544389D02*
X12622539Y-10487246D01*
X12622539Y-10487246D02*
X12632063Y-10468198D01*
X12632063Y-10468198D02*
X12641587Y-10458674D01*
X12641587Y-10458674D02*
X12660634Y-10449150D01*
X12660634Y-10449150D02*
X12689206Y-10449150D01*
X12689206Y-10449150D02*
X12708253Y-10458674D01*
X12708253Y-10458674D02*
X12717777Y-10468198D01*
X12717777Y-10468198D02*
X12727301Y-10487246D01*
X12727301Y-10487246D02*
X12727301Y-10544389D01*
X12727301Y-10544389D02*
X12717777Y-10563436D01*
X12717777Y-10563436D02*
X12708253Y-10572960D01*
X12708253Y-10572960D02*
X12689206Y-10582484D01*
X12689206Y-10582484D02*
X12660634Y-10582484D01*
X12841587Y-10582484D02*
X12822539Y-10572960D01*
X12822539Y-10572960D02*
X12813015Y-10553912D01*
X12813015Y-10553912D02*
X12813015Y-10382484D01*
X12993968Y-10572960D02*
X12974920Y-10582484D01*
X12974920Y-10582484D02*
X12936825Y-10582484D01*
X12936825Y-10582484D02*
X12917777Y-10572960D01*
X12917777Y-10572960D02*
X12908253Y-10553912D01*
X12908253Y-10553912D02*
X12908253Y-10477722D01*
X12908253Y-10477722D02*
X12917777Y-10458674D01*
X12917777Y-10458674D02*
X12936825Y-10449150D01*
X12936825Y-10449150D02*
X12974920Y-10449150D01*
X12974920Y-10449150D02*
X12993968Y-10458674D01*
X12993968Y-10458674D02*
X13003491Y-10477722D01*
X13003491Y-10477722D02*
X13003491Y-10496770D01*
X13003491Y-10496770D02*
X12908253Y-10515817D01*
X13079682Y-10572960D02*
X13098730Y-10582484D01*
X13098730Y-10582484D02*
X13136825Y-10582484D01*
X13136825Y-10582484D02*
X13155872Y-10572960D01*
X13155872Y-10572960D02*
X13165396Y-10553912D01*
X13165396Y-10553912D02*
X13165396Y-10544389D01*
X13165396Y-10544389D02*
X13155872Y-10525341D01*
X13155872Y-10525341D02*
X13136825Y-10515817D01*
X13136825Y-10515817D02*
X13108253Y-10515817D01*
X13108253Y-10515817D02*
X13089206Y-10506293D01*
X13089206Y-10506293D02*
X13079682Y-10487246D01*
X13079682Y-10487246D02*
X13079682Y-10477722D01*
X13079682Y-10477722D02*
X13089206Y-10458674D01*
X13089206Y-10458674D02*
X13108253Y-10449150D01*
X13108253Y-10449150D02*
X13136825Y-10449150D01*
X13136825Y-10449150D02*
X13155872Y-10458674D01*
X13232063Y-10658674D02*
X13241587Y-10649150D01*
X13241587Y-10649150D02*
X13260634Y-10620579D01*
X13260634Y-10620579D02*
X13270158Y-10601531D01*
X13270158Y-10601531D02*
X13279682Y-10572960D01*
X13279682Y-10572960D02*
X13289206Y-10525341D01*
X13289206Y-10525341D02*
X13289206Y-10487246D01*
X13289206Y-10487246D02*
X13279682Y-10439627D01*
X13279682Y-10439627D02*
X13270158Y-10411055D01*
X13270158Y-10411055D02*
X13260634Y-10392008D01*
X13260634Y-10392008D02*
X13241587Y-10363436D01*
X13241587Y-10363436D02*
X13232063Y-10353912D01*
X8427711Y-10836711D02*
X8427711Y-10695289D01*
X8286289Y-10695289D01*
X8286289Y-10836711D01*
X8427711Y-10836711D01*
X8708253Y-10676531D02*
X8717777Y-10667008D01*
X8717777Y-10667008D02*
X8736824Y-10657484D01*
X8736824Y-10657484D02*
X8784444Y-10657484D01*
X8784444Y-10657484D02*
X8803491Y-10667008D01*
X8803491Y-10667008D02*
X8813015Y-10676531D01*
X8813015Y-10676531D02*
X8822539Y-10695579D01*
X8822539Y-10695579D02*
X8822539Y-10714627D01*
X8822539Y-10714627D02*
X8813015Y-10743198D01*
X8813015Y-10743198D02*
X8698729Y-10857484D01*
X8698729Y-10857484D02*
X8822539Y-10857484D01*
X8908253Y-10838436D02*
X8917777Y-10847960D01*
X8917777Y-10847960D02*
X8908253Y-10857484D01*
X8908253Y-10857484D02*
X8898729Y-10847960D01*
X8898729Y-10847960D02*
X8908253Y-10838436D01*
X8908253Y-10838436D02*
X8908253Y-10857484D01*
X9108253Y-10857484D02*
X8993967Y-10857484D01*
X9051110Y-10857484D02*
X9051110Y-10657484D01*
X9051110Y-10657484D02*
X9032063Y-10686055D01*
X9032063Y-10686055D02*
X9013015Y-10705103D01*
X9013015Y-10705103D02*
X8993967Y-10714627D01*
X9232063Y-10657484D02*
X9251110Y-10657484D01*
X9251110Y-10657484D02*
X9270158Y-10667008D01*
X9270158Y-10667008D02*
X9279682Y-10676531D01*
X9279682Y-10676531D02*
X9289205Y-10695579D01*
X9289205Y-10695579D02*
X9298729Y-10733674D01*
X9298729Y-10733674D02*
X9298729Y-10781293D01*
X9298729Y-10781293D02*
X9289205Y-10819389D01*
X9289205Y-10819389D02*
X9279682Y-10838436D01*
X9279682Y-10838436D02*
X9270158Y-10847960D01*
X9270158Y-10847960D02*
X9251110Y-10857484D01*
X9251110Y-10857484D02*
X9232063Y-10857484D01*
X9232063Y-10857484D02*
X9213015Y-10847960D01*
X9213015Y-10847960D02*
X9203491Y-10838436D01*
X9203491Y-10838436D02*
X9193967Y-10819389D01*
X9193967Y-10819389D02*
X9184444Y-10781293D01*
X9184444Y-10781293D02*
X9184444Y-10733674D01*
X9184444Y-10733674D02*
X9193967Y-10695579D01*
X9193967Y-10695579D02*
X9203491Y-10676531D01*
X9203491Y-10676531D02*
X9213015Y-10667008D01*
X9213015Y-10667008D02*
X9232063Y-10657484D01*
X9422539Y-10657484D02*
X9441586Y-10657484D01*
X9441586Y-10657484D02*
X9460634Y-10667008D01*
X9460634Y-10667008D02*
X9470158Y-10676531D01*
X9470158Y-10676531D02*
X9479682Y-10695579D01*
X9479682Y-10695579D02*
X9489205Y-10733674D01*
X9489205Y-10733674D02*
X9489205Y-10781293D01*
X9489205Y-10781293D02*
X9479682Y-10819389D01*
X9479682Y-10819389D02*
X9470158Y-10838436D01*
X9470158Y-10838436D02*
X9460634Y-10847960D01*
X9460634Y-10847960D02*
X9441586Y-10857484D01*
X9441586Y-10857484D02*
X9422539Y-10857484D01*
X9422539Y-10857484D02*
X9403491Y-10847960D01*
X9403491Y-10847960D02*
X9393967Y-10838436D01*
X9393967Y-10838436D02*
X9384444Y-10819389D01*
X9384444Y-10819389D02*
X9374920Y-10781293D01*
X9374920Y-10781293D02*
X9374920Y-10733674D01*
X9374920Y-10733674D02*
X9384444Y-10695579D01*
X9384444Y-10695579D02*
X9393967Y-10676531D01*
X9393967Y-10676531D02*
X9403491Y-10667008D01*
X9403491Y-10667008D02*
X9422539Y-10657484D01*
X9574920Y-10857484D02*
X9574920Y-10724150D01*
X9574920Y-10743198D02*
X9584444Y-10733674D01*
X9584444Y-10733674D02*
X9603491Y-10724150D01*
X9603491Y-10724150D02*
X9632063Y-10724150D01*
X9632063Y-10724150D02*
X9651110Y-10733674D01*
X9651110Y-10733674D02*
X9660634Y-10752722D01*
X9660634Y-10752722D02*
X9660634Y-10857484D01*
X9660634Y-10752722D02*
X9670158Y-10733674D01*
X9670158Y-10733674D02*
X9689205Y-10724150D01*
X9689205Y-10724150D02*
X9717777Y-10724150D01*
X9717777Y-10724150D02*
X9736825Y-10733674D01*
X9736825Y-10733674D02*
X9746348Y-10752722D01*
X9746348Y-10752722D02*
X9746348Y-10857484D01*
X9841586Y-10857484D02*
X9841586Y-10724150D01*
X9841586Y-10743198D02*
X9851110Y-10733674D01*
X9851110Y-10733674D02*
X9870158Y-10724150D01*
X9870158Y-10724150D02*
X9898729Y-10724150D01*
X9898729Y-10724150D02*
X9917777Y-10733674D01*
X9917777Y-10733674D02*
X9927301Y-10752722D01*
X9927301Y-10752722D02*
X9927301Y-10857484D01*
X9927301Y-10752722D02*
X9936825Y-10733674D01*
X9936825Y-10733674D02*
X9955872Y-10724150D01*
X9955872Y-10724150D02*
X9984444Y-10724150D01*
X9984444Y-10724150D02*
X10003491Y-10733674D01*
X10003491Y-10733674D02*
X10013015Y-10752722D01*
X10013015Y-10752722D02*
X10013015Y-10857484D01*
X10403491Y-10647960D02*
X10232063Y-10905103D01*
X10660634Y-10657484D02*
X10679682Y-10657484D01*
X10679682Y-10657484D02*
X10698729Y-10667008D01*
X10698729Y-10667008D02*
X10708253Y-10676531D01*
X10708253Y-10676531D02*
X10717777Y-10695579D01*
X10717777Y-10695579D02*
X10727301Y-10733674D01*
X10727301Y-10733674D02*
X10727301Y-10781293D01*
X10727301Y-10781293D02*
X10717777Y-10819389D01*
X10717777Y-10819389D02*
X10708253Y-10838436D01*
X10708253Y-10838436D02*
X10698729Y-10847960D01*
X10698729Y-10847960D02*
X10679682Y-10857484D01*
X10679682Y-10857484D02*
X10660634Y-10857484D01*
X10660634Y-10857484D02*
X10641587Y-10847960D01*
X10641587Y-10847960D02*
X10632063Y-10838436D01*
X10632063Y-10838436D02*
X10622539Y-10819389D01*
X10622539Y-10819389D02*
X10613015Y-10781293D01*
X10613015Y-10781293D02*
X10613015Y-10733674D01*
X10613015Y-10733674D02*
X10622539Y-10695579D01*
X10622539Y-10695579D02*
X10632063Y-10676531D01*
X10632063Y-10676531D02*
X10641587Y-10667008D01*
X10641587Y-10667008D02*
X10660634Y-10657484D01*
X10813015Y-10838436D02*
X10822539Y-10847960D01*
X10822539Y-10847960D02*
X10813015Y-10857484D01*
X10813015Y-10857484D02*
X10803491Y-10847960D01*
X10803491Y-10847960D02*
X10813015Y-10838436D01*
X10813015Y-10838436D02*
X10813015Y-10857484D01*
X10946348Y-10657484D02*
X10965396Y-10657484D01*
X10965396Y-10657484D02*
X10984444Y-10667008D01*
X10984444Y-10667008D02*
X10993968Y-10676531D01*
X10993968Y-10676531D02*
X11003491Y-10695579D01*
X11003491Y-10695579D02*
X11013015Y-10733674D01*
X11013015Y-10733674D02*
X11013015Y-10781293D01*
X11013015Y-10781293D02*
X11003491Y-10819389D01*
X11003491Y-10819389D02*
X10993968Y-10838436D01*
X10993968Y-10838436D02*
X10984444Y-10847960D01*
X10984444Y-10847960D02*
X10965396Y-10857484D01*
X10965396Y-10857484D02*
X10946348Y-10857484D01*
X10946348Y-10857484D02*
X10927301Y-10847960D01*
X10927301Y-10847960D02*
X10917777Y-10838436D01*
X10917777Y-10838436D02*
X10908253Y-10819389D01*
X10908253Y-10819389D02*
X10898729Y-10781293D01*
X10898729Y-10781293D02*
X10898729Y-10733674D01*
X10898729Y-10733674D02*
X10908253Y-10695579D01*
X10908253Y-10695579D02*
X10917777Y-10676531D01*
X10917777Y-10676531D02*
X10927301Y-10667008D01*
X10927301Y-10667008D02*
X10946348Y-10657484D01*
X11127301Y-10743198D02*
X11108253Y-10733674D01*
X11108253Y-10733674D02*
X11098729Y-10724150D01*
X11098729Y-10724150D02*
X11089206Y-10705103D01*
X11089206Y-10705103D02*
X11089206Y-10695579D01*
X11089206Y-10695579D02*
X11098729Y-10676531D01*
X11098729Y-10676531D02*
X11108253Y-10667008D01*
X11108253Y-10667008D02*
X11127301Y-10657484D01*
X11127301Y-10657484D02*
X11165396Y-10657484D01*
X11165396Y-10657484D02*
X11184444Y-10667008D01*
X11184444Y-10667008D02*
X11193967Y-10676531D01*
X11193967Y-10676531D02*
X11203491Y-10695579D01*
X11203491Y-10695579D02*
X11203491Y-10705103D01*
X11203491Y-10705103D02*
X11193967Y-10724150D01*
X11193967Y-10724150D02*
X11184444Y-10733674D01*
X11184444Y-10733674D02*
X11165396Y-10743198D01*
X11165396Y-10743198D02*
X11127301Y-10743198D01*
X11127301Y-10743198D02*
X11108253Y-10752722D01*
X11108253Y-10752722D02*
X11098729Y-10762246D01*
X11098729Y-10762246D02*
X11089206Y-10781293D01*
X11089206Y-10781293D02*
X11089206Y-10819389D01*
X11089206Y-10819389D02*
X11098729Y-10838436D01*
X11098729Y-10838436D02*
X11108253Y-10847960D01*
X11108253Y-10847960D02*
X11127301Y-10857484D01*
X11127301Y-10857484D02*
X11165396Y-10857484D01*
X11165396Y-10857484D02*
X11184444Y-10847960D01*
X11184444Y-10847960D02*
X11193967Y-10838436D01*
X11193967Y-10838436D02*
X11203491Y-10819389D01*
X11203491Y-10819389D02*
X11203491Y-10781293D01*
X11203491Y-10781293D02*
X11193967Y-10762246D01*
X11193967Y-10762246D02*
X11184444Y-10752722D01*
X11184444Y-10752722D02*
X11165396Y-10743198D01*
X11279682Y-10676531D02*
X11289206Y-10667008D01*
X11289206Y-10667008D02*
X11308253Y-10657484D01*
X11308253Y-10657484D02*
X11355872Y-10657484D01*
X11355872Y-10657484D02*
X11374920Y-10667008D01*
X11374920Y-10667008D02*
X11384444Y-10676531D01*
X11384444Y-10676531D02*
X11393967Y-10695579D01*
X11393967Y-10695579D02*
X11393967Y-10714627D01*
X11393967Y-10714627D02*
X11384444Y-10743198D01*
X11384444Y-10743198D02*
X11270158Y-10857484D01*
X11270158Y-10857484D02*
X11393967Y-10857484D01*
X11460634Y-10657484D02*
X11593967Y-10657484D01*
X11593967Y-10657484D02*
X11508253Y-10857484D01*
X11660634Y-10657484D02*
X11660634Y-10695579D01*
X11736825Y-10657484D02*
X11736825Y-10695579D01*
X12032063Y-10933674D02*
X12022539Y-10924150D01*
X12022539Y-10924150D02*
X12003491Y-10895579D01*
X12003491Y-10895579D02*
X11993968Y-10876531D01*
X11993968Y-10876531D02*
X11984444Y-10847960D01*
X11984444Y-10847960D02*
X11974920Y-10800341D01*
X11974920Y-10800341D02*
X11974920Y-10762246D01*
X11974920Y-10762246D02*
X11984444Y-10714627D01*
X11984444Y-10714627D02*
X11993968Y-10686055D01*
X11993968Y-10686055D02*
X12003491Y-10667008D01*
X12003491Y-10667008D02*
X12022539Y-10638436D01*
X12022539Y-10638436D02*
X12032063Y-10628912D01*
X12193968Y-10657484D02*
X12155872Y-10657484D01*
X12155872Y-10657484D02*
X12136825Y-10667008D01*
X12136825Y-10667008D02*
X12127301Y-10676531D01*
X12127301Y-10676531D02*
X12108253Y-10705103D01*
X12108253Y-10705103D02*
X12098729Y-10743198D01*
X12098729Y-10743198D02*
X12098729Y-10819389D01*
X12098729Y-10819389D02*
X12108253Y-10838436D01*
X12108253Y-10838436D02*
X12117777Y-10847960D01*
X12117777Y-10847960D02*
X12136825Y-10857484D01*
X12136825Y-10857484D02*
X12174920Y-10857484D01*
X12174920Y-10857484D02*
X12193968Y-10847960D01*
X12193968Y-10847960D02*
X12203491Y-10838436D01*
X12203491Y-10838436D02*
X12213015Y-10819389D01*
X12213015Y-10819389D02*
X12213015Y-10771770D01*
X12213015Y-10771770D02*
X12203491Y-10752722D01*
X12203491Y-10752722D02*
X12193968Y-10743198D01*
X12193968Y-10743198D02*
X12174920Y-10733674D01*
X12174920Y-10733674D02*
X12136825Y-10733674D01*
X12136825Y-10733674D02*
X12117777Y-10743198D01*
X12117777Y-10743198D02*
X12108253Y-10752722D01*
X12108253Y-10752722D02*
X12098729Y-10771770D01*
X12451110Y-10857484D02*
X12451110Y-10657484D01*
X12536825Y-10857484D02*
X12536825Y-10752722D01*
X12536825Y-10752722D02*
X12527301Y-10733674D01*
X12527301Y-10733674D02*
X12508253Y-10724150D01*
X12508253Y-10724150D02*
X12479682Y-10724150D01*
X12479682Y-10724150D02*
X12460634Y-10733674D01*
X12460634Y-10733674D02*
X12451110Y-10743198D01*
X12660634Y-10857484D02*
X12641587Y-10847960D01*
X12641587Y-10847960D02*
X12632063Y-10838436D01*
X12632063Y-10838436D02*
X12622539Y-10819389D01*
X12622539Y-10819389D02*
X12622539Y-10762246D01*
X12622539Y-10762246D02*
X12632063Y-10743198D01*
X12632063Y-10743198D02*
X12641587Y-10733674D01*
X12641587Y-10733674D02*
X12660634Y-10724150D01*
X12660634Y-10724150D02*
X12689206Y-10724150D01*
X12689206Y-10724150D02*
X12708253Y-10733674D01*
X12708253Y-10733674D02*
X12717777Y-10743198D01*
X12717777Y-10743198D02*
X12727301Y-10762246D01*
X12727301Y-10762246D02*
X12727301Y-10819389D01*
X12727301Y-10819389D02*
X12717777Y-10838436D01*
X12717777Y-10838436D02*
X12708253Y-10847960D01*
X12708253Y-10847960D02*
X12689206Y-10857484D01*
X12689206Y-10857484D02*
X12660634Y-10857484D01*
X12841587Y-10857484D02*
X12822539Y-10847960D01*
X12822539Y-10847960D02*
X12813015Y-10828912D01*
X12813015Y-10828912D02*
X12813015Y-10657484D01*
X12993968Y-10847960D02*
X12974920Y-10857484D01*
X12974920Y-10857484D02*
X12936825Y-10857484D01*
X12936825Y-10857484D02*
X12917777Y-10847960D01*
X12917777Y-10847960D02*
X12908253Y-10828912D01*
X12908253Y-10828912D02*
X12908253Y-10752722D01*
X12908253Y-10752722D02*
X12917777Y-10733674D01*
X12917777Y-10733674D02*
X12936825Y-10724150D01*
X12936825Y-10724150D02*
X12974920Y-10724150D01*
X12974920Y-10724150D02*
X12993968Y-10733674D01*
X12993968Y-10733674D02*
X13003491Y-10752722D01*
X13003491Y-10752722D02*
X13003491Y-10771770D01*
X13003491Y-10771770D02*
X12908253Y-10790817D01*
X13079682Y-10847960D02*
X13098730Y-10857484D01*
X13098730Y-10857484D02*
X13136825Y-10857484D01*
X13136825Y-10857484D02*
X13155872Y-10847960D01*
X13155872Y-10847960D02*
X13165396Y-10828912D01*
X13165396Y-10828912D02*
X13165396Y-10819389D01*
X13165396Y-10819389D02*
X13155872Y-10800341D01*
X13155872Y-10800341D02*
X13136825Y-10790817D01*
X13136825Y-10790817D02*
X13108253Y-10790817D01*
X13108253Y-10790817D02*
X13089206Y-10781293D01*
X13089206Y-10781293D02*
X13079682Y-10762246D01*
X13079682Y-10762246D02*
X13079682Y-10752722D01*
X13079682Y-10752722D02*
X13089206Y-10733674D01*
X13089206Y-10733674D02*
X13108253Y-10724150D01*
X13108253Y-10724150D02*
X13136825Y-10724150D01*
X13136825Y-10724150D02*
X13155872Y-10733674D01*
X13232063Y-10933674D02*
X13241587Y-10924150D01*
X13241587Y-10924150D02*
X13260634Y-10895579D01*
X13260634Y-10895579D02*
X13270158Y-10876531D01*
X13270158Y-10876531D02*
X13279682Y-10847960D01*
X13279682Y-10847960D02*
X13289206Y-10800341D01*
X13289206Y-10800341D02*
X13289206Y-10762246D01*
X13289206Y-10762246D02*
X13279682Y-10714627D01*
X13279682Y-10714627D02*
X13270158Y-10686055D01*
X13270158Y-10686055D02*
X13260634Y-10667008D01*
X13260634Y-10667008D02*
X13241587Y-10638436D01*
X13241587Y-10638436D02*
X13232063Y-10628912D01*
X8357000Y-11186000D02*
X8457000Y-11086000D01*
X8357000Y-10986000D01*
X8257000Y-11086000D01*
X8357000Y-11186000D01*
X8698729Y-10977484D02*
X8822539Y-10977484D01*
X8822539Y-10977484D02*
X8755872Y-11053674D01*
X8755872Y-11053674D02*
X8784444Y-11053674D01*
X8784444Y-11053674D02*
X8803491Y-11063198D01*
X8803491Y-11063198D02*
X8813015Y-11072722D01*
X8813015Y-11072722D02*
X8822539Y-11091770D01*
X8822539Y-11091770D02*
X8822539Y-11139389D01*
X8822539Y-11139389D02*
X8813015Y-11158436D01*
X8813015Y-11158436D02*
X8803491Y-11167960D01*
X8803491Y-11167960D02*
X8784444Y-11177484D01*
X8784444Y-11177484D02*
X8727301Y-11177484D01*
X8727301Y-11177484D02*
X8708253Y-11167960D01*
X8708253Y-11167960D02*
X8698729Y-11158436D01*
X8908253Y-11158436D02*
X8917777Y-11167960D01*
X8917777Y-11167960D02*
X8908253Y-11177484D01*
X8908253Y-11177484D02*
X8898729Y-11167960D01*
X8898729Y-11167960D02*
X8908253Y-11158436D01*
X8908253Y-11158436D02*
X8908253Y-11177484D01*
X8993967Y-10996531D02*
X9003491Y-10987008D01*
X9003491Y-10987008D02*
X9022539Y-10977484D01*
X9022539Y-10977484D02*
X9070158Y-10977484D01*
X9070158Y-10977484D02*
X9089205Y-10987008D01*
X9089205Y-10987008D02*
X9098729Y-10996531D01*
X9098729Y-10996531D02*
X9108253Y-11015579D01*
X9108253Y-11015579D02*
X9108253Y-11034627D01*
X9108253Y-11034627D02*
X9098729Y-11063198D01*
X9098729Y-11063198D02*
X8984444Y-11177484D01*
X8984444Y-11177484D02*
X9108253Y-11177484D01*
X9232063Y-10977484D02*
X9251110Y-10977484D01*
X9251110Y-10977484D02*
X9270158Y-10987008D01*
X9270158Y-10987008D02*
X9279682Y-10996531D01*
X9279682Y-10996531D02*
X9289205Y-11015579D01*
X9289205Y-11015579D02*
X9298729Y-11053674D01*
X9298729Y-11053674D02*
X9298729Y-11101293D01*
X9298729Y-11101293D02*
X9289205Y-11139389D01*
X9289205Y-11139389D02*
X9279682Y-11158436D01*
X9279682Y-11158436D02*
X9270158Y-11167960D01*
X9270158Y-11167960D02*
X9251110Y-11177484D01*
X9251110Y-11177484D02*
X9232063Y-11177484D01*
X9232063Y-11177484D02*
X9213015Y-11167960D01*
X9213015Y-11167960D02*
X9203491Y-11158436D01*
X9203491Y-11158436D02*
X9193967Y-11139389D01*
X9193967Y-11139389D02*
X9184444Y-11101293D01*
X9184444Y-11101293D02*
X9184444Y-11053674D01*
X9184444Y-11053674D02*
X9193967Y-11015579D01*
X9193967Y-11015579D02*
X9203491Y-10996531D01*
X9203491Y-10996531D02*
X9213015Y-10987008D01*
X9213015Y-10987008D02*
X9232063Y-10977484D01*
X9422539Y-10977484D02*
X9441586Y-10977484D01*
X9441586Y-10977484D02*
X9460634Y-10987008D01*
X9460634Y-10987008D02*
X9470158Y-10996531D01*
X9470158Y-10996531D02*
X9479682Y-11015579D01*
X9479682Y-11015579D02*
X9489205Y-11053674D01*
X9489205Y-11053674D02*
X9489205Y-11101293D01*
X9489205Y-11101293D02*
X9479682Y-11139389D01*
X9479682Y-11139389D02*
X9470158Y-11158436D01*
X9470158Y-11158436D02*
X9460634Y-11167960D01*
X9460634Y-11167960D02*
X9441586Y-11177484D01*
X9441586Y-11177484D02*
X9422539Y-11177484D01*
X9422539Y-11177484D02*
X9403491Y-11167960D01*
X9403491Y-11167960D02*
X9393967Y-11158436D01*
X9393967Y-11158436D02*
X9384444Y-11139389D01*
X9384444Y-11139389D02*
X9374920Y-11101293D01*
X9374920Y-11101293D02*
X9374920Y-11053674D01*
X9374920Y-11053674D02*
X9384444Y-11015579D01*
X9384444Y-11015579D02*
X9393967Y-10996531D01*
X9393967Y-10996531D02*
X9403491Y-10987008D01*
X9403491Y-10987008D02*
X9422539Y-10977484D01*
X9574920Y-11177484D02*
X9574920Y-11044150D01*
X9574920Y-11063198D02*
X9584444Y-11053674D01*
X9584444Y-11053674D02*
X9603491Y-11044150D01*
X9603491Y-11044150D02*
X9632063Y-11044150D01*
X9632063Y-11044150D02*
X9651110Y-11053674D01*
X9651110Y-11053674D02*
X9660634Y-11072722D01*
X9660634Y-11072722D02*
X9660634Y-11177484D01*
X9660634Y-11072722D02*
X9670158Y-11053674D01*
X9670158Y-11053674D02*
X9689205Y-11044150D01*
X9689205Y-11044150D02*
X9717777Y-11044150D01*
X9717777Y-11044150D02*
X9736825Y-11053674D01*
X9736825Y-11053674D02*
X9746348Y-11072722D01*
X9746348Y-11072722D02*
X9746348Y-11177484D01*
X9841586Y-11177484D02*
X9841586Y-11044150D01*
X9841586Y-11063198D02*
X9851110Y-11053674D01*
X9851110Y-11053674D02*
X9870158Y-11044150D01*
X9870158Y-11044150D02*
X9898729Y-11044150D01*
X9898729Y-11044150D02*
X9917777Y-11053674D01*
X9917777Y-11053674D02*
X9927301Y-11072722D01*
X9927301Y-11072722D02*
X9927301Y-11177484D01*
X9927301Y-11072722D02*
X9936825Y-11053674D01*
X9936825Y-11053674D02*
X9955872Y-11044150D01*
X9955872Y-11044150D02*
X9984444Y-11044150D01*
X9984444Y-11044150D02*
X10003491Y-11053674D01*
X10003491Y-11053674D02*
X10013015Y-11072722D01*
X10013015Y-11072722D02*
X10013015Y-11177484D01*
X10403491Y-10967960D02*
X10232063Y-11225103D01*
X10660634Y-10977484D02*
X10679682Y-10977484D01*
X10679682Y-10977484D02*
X10698729Y-10987008D01*
X10698729Y-10987008D02*
X10708253Y-10996531D01*
X10708253Y-10996531D02*
X10717777Y-11015579D01*
X10717777Y-11015579D02*
X10727301Y-11053674D01*
X10727301Y-11053674D02*
X10727301Y-11101293D01*
X10727301Y-11101293D02*
X10717777Y-11139389D01*
X10717777Y-11139389D02*
X10708253Y-11158436D01*
X10708253Y-11158436D02*
X10698729Y-11167960D01*
X10698729Y-11167960D02*
X10679682Y-11177484D01*
X10679682Y-11177484D02*
X10660634Y-11177484D01*
X10660634Y-11177484D02*
X10641587Y-11167960D01*
X10641587Y-11167960D02*
X10632063Y-11158436D01*
X10632063Y-11158436D02*
X10622539Y-11139389D01*
X10622539Y-11139389D02*
X10613015Y-11101293D01*
X10613015Y-11101293D02*
X10613015Y-11053674D01*
X10613015Y-11053674D02*
X10622539Y-11015579D01*
X10622539Y-11015579D02*
X10632063Y-10996531D01*
X10632063Y-10996531D02*
X10641587Y-10987008D01*
X10641587Y-10987008D02*
X10660634Y-10977484D01*
X10813015Y-11158436D02*
X10822539Y-11167960D01*
X10822539Y-11167960D02*
X10813015Y-11177484D01*
X10813015Y-11177484D02*
X10803491Y-11167960D01*
X10803491Y-11167960D02*
X10813015Y-11158436D01*
X10813015Y-11158436D02*
X10813015Y-11177484D01*
X11013015Y-11177484D02*
X10898729Y-11177484D01*
X10955872Y-11177484D02*
X10955872Y-10977484D01*
X10955872Y-10977484D02*
X10936825Y-11006055D01*
X10936825Y-11006055D02*
X10917777Y-11025103D01*
X10917777Y-11025103D02*
X10898729Y-11034627D01*
X11089206Y-10996531D02*
X11098729Y-10987008D01*
X11098729Y-10987008D02*
X11117777Y-10977484D01*
X11117777Y-10977484D02*
X11165396Y-10977484D01*
X11165396Y-10977484D02*
X11184444Y-10987008D01*
X11184444Y-10987008D02*
X11193967Y-10996531D01*
X11193967Y-10996531D02*
X11203491Y-11015579D01*
X11203491Y-11015579D02*
X11203491Y-11034627D01*
X11203491Y-11034627D02*
X11193967Y-11063198D01*
X11193967Y-11063198D02*
X11079682Y-11177484D01*
X11079682Y-11177484D02*
X11203491Y-11177484D01*
X11374920Y-10977484D02*
X11336825Y-10977484D01*
X11336825Y-10977484D02*
X11317777Y-10987008D01*
X11317777Y-10987008D02*
X11308253Y-10996531D01*
X11308253Y-10996531D02*
X11289206Y-11025103D01*
X11289206Y-11025103D02*
X11279682Y-11063198D01*
X11279682Y-11063198D02*
X11279682Y-11139389D01*
X11279682Y-11139389D02*
X11289206Y-11158436D01*
X11289206Y-11158436D02*
X11298729Y-11167960D01*
X11298729Y-11167960D02*
X11317777Y-11177484D01*
X11317777Y-11177484D02*
X11355872Y-11177484D01*
X11355872Y-11177484D02*
X11374920Y-11167960D01*
X11374920Y-11167960D02*
X11384444Y-11158436D01*
X11384444Y-11158436D02*
X11393967Y-11139389D01*
X11393967Y-11139389D02*
X11393967Y-11091770D01*
X11393967Y-11091770D02*
X11384444Y-11072722D01*
X11384444Y-11072722D02*
X11374920Y-11063198D01*
X11374920Y-11063198D02*
X11355872Y-11053674D01*
X11355872Y-11053674D02*
X11317777Y-11053674D01*
X11317777Y-11053674D02*
X11298729Y-11063198D01*
X11298729Y-11063198D02*
X11289206Y-11072722D01*
X11289206Y-11072722D02*
X11279682Y-11091770D01*
X11517777Y-10977484D02*
X11536825Y-10977484D01*
X11536825Y-10977484D02*
X11555872Y-10987008D01*
X11555872Y-10987008D02*
X11565396Y-10996531D01*
X11565396Y-10996531D02*
X11574920Y-11015579D01*
X11574920Y-11015579D02*
X11584444Y-11053674D01*
X11584444Y-11053674D02*
X11584444Y-11101293D01*
X11584444Y-11101293D02*
X11574920Y-11139389D01*
X11574920Y-11139389D02*
X11565396Y-11158436D01*
X11565396Y-11158436D02*
X11555872Y-11167960D01*
X11555872Y-11167960D02*
X11536825Y-11177484D01*
X11536825Y-11177484D02*
X11517777Y-11177484D01*
X11517777Y-11177484D02*
X11498729Y-11167960D01*
X11498729Y-11167960D02*
X11489206Y-11158436D01*
X11489206Y-11158436D02*
X11479682Y-11139389D01*
X11479682Y-11139389D02*
X11470158Y-11101293D01*
X11470158Y-11101293D02*
X11470158Y-11053674D01*
X11470158Y-11053674D02*
X11479682Y-11015579D01*
X11479682Y-11015579D02*
X11489206Y-10996531D01*
X11489206Y-10996531D02*
X11498729Y-10987008D01*
X11498729Y-10987008D02*
X11517777Y-10977484D01*
X11660634Y-10977484D02*
X11660634Y-11015579D01*
X11736825Y-10977484D02*
X11736825Y-11015579D01*
X12032063Y-11253674D02*
X12022539Y-11244150D01*
X12022539Y-11244150D02*
X12003491Y-11215579D01*
X12003491Y-11215579D02*
X11993968Y-11196531D01*
X11993968Y-11196531D02*
X11984444Y-11167960D01*
X11984444Y-11167960D02*
X11974920Y-11120341D01*
X11974920Y-11120341D02*
X11974920Y-11082246D01*
X11974920Y-11082246D02*
X11984444Y-11034627D01*
X11984444Y-11034627D02*
X11993968Y-11006055D01*
X11993968Y-11006055D02*
X12003491Y-10987008D01*
X12003491Y-10987008D02*
X12022539Y-10958436D01*
X12022539Y-10958436D02*
X12032063Y-10948912D01*
X12098729Y-10996531D02*
X12108253Y-10987008D01*
X12108253Y-10987008D02*
X12127301Y-10977484D01*
X12127301Y-10977484D02*
X12174920Y-10977484D01*
X12174920Y-10977484D02*
X12193968Y-10987008D01*
X12193968Y-10987008D02*
X12203491Y-10996531D01*
X12203491Y-10996531D02*
X12213015Y-11015579D01*
X12213015Y-11015579D02*
X12213015Y-11034627D01*
X12213015Y-11034627D02*
X12203491Y-11063198D01*
X12203491Y-11063198D02*
X12089206Y-11177484D01*
X12089206Y-11177484D02*
X12213015Y-11177484D01*
X12451110Y-11177484D02*
X12451110Y-10977484D01*
X12536825Y-11177484D02*
X12536825Y-11072722D01*
X12536825Y-11072722D02*
X12527301Y-11053674D01*
X12527301Y-11053674D02*
X12508253Y-11044150D01*
X12508253Y-11044150D02*
X12479682Y-11044150D01*
X12479682Y-11044150D02*
X12460634Y-11053674D01*
X12460634Y-11053674D02*
X12451110Y-11063198D01*
X12660634Y-11177484D02*
X12641587Y-11167960D01*
X12641587Y-11167960D02*
X12632063Y-11158436D01*
X12632063Y-11158436D02*
X12622539Y-11139389D01*
X12622539Y-11139389D02*
X12622539Y-11082246D01*
X12622539Y-11082246D02*
X12632063Y-11063198D01*
X12632063Y-11063198D02*
X12641587Y-11053674D01*
X12641587Y-11053674D02*
X12660634Y-11044150D01*
X12660634Y-11044150D02*
X12689206Y-11044150D01*
X12689206Y-11044150D02*
X12708253Y-11053674D01*
X12708253Y-11053674D02*
X12717777Y-11063198D01*
X12717777Y-11063198D02*
X12727301Y-11082246D01*
X12727301Y-11082246D02*
X12727301Y-11139389D01*
X12727301Y-11139389D02*
X12717777Y-11158436D01*
X12717777Y-11158436D02*
X12708253Y-11167960D01*
X12708253Y-11167960D02*
X12689206Y-11177484D01*
X12689206Y-11177484D02*
X12660634Y-11177484D01*
X12841587Y-11177484D02*
X12822539Y-11167960D01*
X12822539Y-11167960D02*
X12813015Y-11148912D01*
X12813015Y-11148912D02*
X12813015Y-10977484D01*
X12993968Y-11167960D02*
X12974920Y-11177484D01*
X12974920Y-11177484D02*
X12936825Y-11177484D01*
X12936825Y-11177484D02*
X12917777Y-11167960D01*
X12917777Y-11167960D02*
X12908253Y-11148912D01*
X12908253Y-11148912D02*
X12908253Y-11072722D01*
X12908253Y-11072722D02*
X12917777Y-11053674D01*
X12917777Y-11053674D02*
X12936825Y-11044150D01*
X12936825Y-11044150D02*
X12974920Y-11044150D01*
X12974920Y-11044150D02*
X12993968Y-11053674D01*
X12993968Y-11053674D02*
X13003491Y-11072722D01*
X13003491Y-11072722D02*
X13003491Y-11091770D01*
X13003491Y-11091770D02*
X12908253Y-11110817D01*
X13079682Y-11167960D02*
X13098730Y-11177484D01*
X13098730Y-11177484D02*
X13136825Y-11177484D01*
X13136825Y-11177484D02*
X13155872Y-11167960D01*
X13155872Y-11167960D02*
X13165396Y-11148912D01*
X13165396Y-11148912D02*
X13165396Y-11139389D01*
X13165396Y-11139389D02*
X13155872Y-11120341D01*
X13155872Y-11120341D02*
X13136825Y-11110817D01*
X13136825Y-11110817D02*
X13108253Y-11110817D01*
X13108253Y-11110817D02*
X13089206Y-11101293D01*
X13089206Y-11101293D02*
X13079682Y-11082246D01*
X13079682Y-11082246D02*
X13079682Y-11072722D01*
X13079682Y-11072722D02*
X13089206Y-11053674D01*
X13089206Y-11053674D02*
X13108253Y-11044150D01*
X13108253Y-11044150D02*
X13136825Y-11044150D01*
X13136825Y-11044150D02*
X13155872Y-11053674D01*
X13232063Y-11253674D02*
X13241587Y-11244150D01*
X13241587Y-11244150D02*
X13260634Y-11215579D01*
X13260634Y-11215579D02*
X13270158Y-11196531D01*
X13270158Y-11196531D02*
X13279682Y-11167960D01*
X13279682Y-11167960D02*
X13289206Y-11120341D01*
X13289206Y-11120341D02*
X13289206Y-11082246D01*
X13289206Y-11082246D02*
X13279682Y-11034627D01*
X13279682Y-11034627D02*
X13270158Y-11006055D01*
X13270158Y-11006055D02*
X13260634Y-10987008D01*
X13260634Y-10987008D02*
X13241587Y-10958436D01*
X13241587Y-10958436D02*
X13232063Y-10948912D01*
M02*
